%TF.GenerationSoftware,KiCad,Pcbnew,(5.1.9)-1*%
%TF.CreationDate,2021-04-21T20:58:21+02:00*%
%TF.ProjectId,Air-Quality,4169722d-5175-4616-9c69-74792e6b6963,rev?*%
%TF.SameCoordinates,Original*%
%TF.FileFunction,Legend,Top*%
%TF.FilePolarity,Positive*%
%FSLAX46Y46*%
G04 Gerber Fmt 4.6, Leading zero omitted, Abs format (unit mm)*
G04 Created by KiCad (PCBNEW (5.1.9)-1) date 2021-04-21 20:58:21*
%MOMM*%
%LPD*%
G01*
G04 APERTURE LIST*
%ADD10C,0.120000*%
%ADD11C,0.150000*%
G04 APERTURE END LIST*
D10*
%TO.C,BZ1*%
X190969000Y-107313600D02*
X190969000Y-103313600D01*
X184619000Y-109663600D02*
X188619000Y-109663600D01*
X182269000Y-103313600D02*
X182269000Y-107313600D01*
X188619000Y-100963600D02*
X184619000Y-100963600D01*
%TO.C,U1*%
X187900000Y-113790001D02*
X188300000Y-113790001D01*
X185300000Y-113790001D02*
X185700000Y-113790001D01*
X197300000Y-113790001D02*
X190500000Y-113790001D01*
X197300000Y-103390001D02*
X197300000Y-103790001D01*
X197300000Y-95690001D02*
X197300000Y-96090001D01*
X197300000Y-70290001D02*
X197300000Y-70690001D01*
X197300000Y-62790001D02*
X197300000Y-63090001D01*
X197300000Y-85590001D02*
X197300000Y-85990001D01*
X197300000Y-100790001D02*
X197300000Y-101190001D01*
X197300000Y-80490001D02*
X197300000Y-80890001D01*
X197300000Y-75390001D02*
X197300000Y-75790001D01*
X197300000Y-88090001D02*
X197300000Y-88490001D01*
X197300000Y-93190001D02*
X197300000Y-93590001D01*
X197300000Y-108390001D02*
X197300000Y-108790001D01*
X197300000Y-110990001D02*
X197300000Y-111390001D01*
X197300000Y-105890001D02*
X197300000Y-106290001D01*
X197300000Y-72890001D02*
X197300000Y-73290001D01*
X197300000Y-65190001D02*
X197300000Y-65590001D01*
X197300000Y-67790001D02*
X197300000Y-68190001D01*
X197300000Y-98290001D02*
X197300000Y-98690001D01*
X197300000Y-90590001D02*
X197300000Y-90990001D01*
X197300000Y-82990001D02*
X197300000Y-83390001D01*
X197300000Y-77890001D02*
X197300000Y-78290001D01*
X176300000Y-110990001D02*
X176300000Y-111390001D01*
X176300000Y-108390001D02*
X176300000Y-108790001D01*
X176300000Y-105890001D02*
X176300000Y-106290001D01*
X176300000Y-103390001D02*
X176300000Y-103790001D01*
X176300000Y-100790001D02*
X176300000Y-101190001D01*
X176300000Y-98290001D02*
X176300000Y-98690001D01*
X176300000Y-95690001D02*
X176300000Y-96090001D01*
X176300000Y-93190001D02*
X176300000Y-93590001D01*
X176300000Y-90590001D02*
X176300000Y-90990001D01*
X176300000Y-88090001D02*
X176300000Y-88490001D01*
X176300000Y-85590001D02*
X176300000Y-85990001D01*
X176300000Y-82990001D02*
X176300000Y-83390001D01*
X176300000Y-80490001D02*
X176300000Y-80890001D01*
X176300000Y-77890001D02*
X176300000Y-78290001D01*
X176300000Y-75390001D02*
X176300000Y-75790001D01*
X176300000Y-72890001D02*
X176300000Y-73290001D01*
X176300000Y-70290001D02*
X176300000Y-70690001D01*
X176300000Y-67790001D02*
X176300000Y-68190001D01*
X176300000Y-65190001D02*
X176300000Y-65590001D01*
X176300000Y-62790001D02*
X176300000Y-63090001D01*
X179307000Y-65457001D02*
X179307000Y-62790001D01*
X176300000Y-65457001D02*
X179307000Y-65457001D01*
X183100000Y-113790001D02*
X176300000Y-113790001D01*
X176300000Y-62790001D02*
X197300000Y-62790001D01*
%TO.C,D1*%
X188677500Y-73385800D02*
X185992500Y-73385800D01*
X188677500Y-75305800D02*
X188677500Y-73385800D01*
X185992500Y-75305800D02*
X188677500Y-75305800D01*
%TO.C,D2*%
X186017900Y-77845800D02*
X188702900Y-77845800D01*
X188702900Y-77845800D02*
X188702900Y-75925800D01*
X188702900Y-75925800D02*
X186017900Y-75925800D01*
%TO.C,D3*%
X188707500Y-78465800D02*
X186022500Y-78465800D01*
X188707500Y-80385800D02*
X188707500Y-78465800D01*
X186022500Y-80385800D02*
X188707500Y-80385800D01*
%TO.C,D4*%
X186017900Y-82925800D02*
X188702900Y-82925800D01*
X188702900Y-82925800D02*
X188702900Y-81005800D01*
X188702900Y-81005800D02*
X186017900Y-81005800D01*
%TO.C,D5*%
X186020200Y-85465800D02*
X188705200Y-85465800D01*
X188705200Y-85465800D02*
X188705200Y-83545800D01*
X188705200Y-83545800D02*
X186020200Y-83545800D01*
%TO.C,SW1*%
X187108200Y-92236800D02*
X187108200Y-96736800D01*
X191108200Y-90986800D02*
X189608200Y-90986800D01*
X193608200Y-96736800D02*
X193608200Y-92236800D01*
X189608200Y-97986800D02*
X191108200Y-97986800D01*
%TO.C,SW2*%
X180612400Y-99463400D02*
X180612400Y-89563400D01*
X185452400Y-99463400D02*
X185452400Y-89563400D01*
X180612400Y-99463400D02*
X185452400Y-99463400D01*
X180612400Y-89563400D02*
X185452400Y-89563400D01*
X180372400Y-99703400D02*
X180372400Y-98319400D01*
X180372400Y-99703400D02*
X181755400Y-99703400D01*
X182397400Y-96543400D02*
X183667400Y-96543400D01*
X183667400Y-96543400D02*
X183667400Y-92483400D01*
X183667400Y-92483400D02*
X182397400Y-92483400D01*
X182397400Y-92483400D02*
X182397400Y-96543400D01*
X182517400Y-96543400D02*
X182517400Y-95190067D01*
X182637400Y-96543400D02*
X182637400Y-95190067D01*
X182757400Y-96543400D02*
X182757400Y-95190067D01*
X182877400Y-96543400D02*
X182877400Y-95190067D01*
X182997400Y-96543400D02*
X182997400Y-95190067D01*
X183117400Y-96543400D02*
X183117400Y-95190067D01*
X183237400Y-96543400D02*
X183237400Y-95190067D01*
X183357400Y-96543400D02*
X183357400Y-95190067D01*
X183477400Y-96543400D02*
X183477400Y-95190067D01*
X183597400Y-96543400D02*
X183597400Y-95190067D01*
X182397400Y-95190067D02*
X183667400Y-95190067D01*
%TO.C,R1*%
X182016036Y-75080800D02*
X182470164Y-75080800D01*
X182016036Y-73610800D02*
X182470164Y-73610800D01*
%TO.C,R2*%
X182016036Y-76150800D02*
X182470164Y-76150800D01*
X182016036Y-77620800D02*
X182470164Y-77620800D01*
%TO.C,R3*%
X182016036Y-80160800D02*
X182470164Y-80160800D01*
X182016036Y-78690800D02*
X182470164Y-78690800D01*
%TO.C,R4*%
X181990636Y-81230800D02*
X182444764Y-81230800D01*
X181990636Y-82700800D02*
X182444764Y-82700800D01*
%TO.C,R5*%
X182016036Y-83770800D02*
X182470164Y-83770800D01*
X182016036Y-85240800D02*
X182470164Y-85240800D01*
%TO.C,R6*%
X190674364Y-87174400D02*
X190220236Y-87174400D01*
X190674364Y-88644400D02*
X190220236Y-88644400D01*
%TO.C,R7*%
X182981964Y-87174400D02*
X182527836Y-87174400D01*
X182981964Y-88644400D02*
X182527836Y-88644400D01*
%TO.C,J1*%
X192582800Y-85175400D02*
X191252800Y-85175400D01*
X191252800Y-85175400D02*
X191252800Y-83845400D01*
X191252800Y-82575400D02*
X191252800Y-67275400D01*
X193912800Y-67275400D02*
X191252800Y-67275400D01*
X193912800Y-82575400D02*
X193912800Y-67275400D01*
X193912800Y-82575400D02*
X191252800Y-82575400D01*
%TO.C,BZ1*%
D11*
X185938047Y-99342171D02*
X186080904Y-99389790D01*
X186128523Y-99437409D01*
X186176142Y-99532647D01*
X186176142Y-99675504D01*
X186128523Y-99770742D01*
X186080904Y-99818361D01*
X185985666Y-99865980D01*
X185604714Y-99865980D01*
X185604714Y-98865980D01*
X185938047Y-98865980D01*
X186033285Y-98913600D01*
X186080904Y-98961219D01*
X186128523Y-99056457D01*
X186128523Y-99151695D01*
X186080904Y-99246933D01*
X186033285Y-99294552D01*
X185938047Y-99342171D01*
X185604714Y-99342171D01*
X186509476Y-98865980D02*
X187176142Y-98865980D01*
X186509476Y-99865980D01*
X187176142Y-99865980D01*
X188080904Y-99865980D02*
X187509476Y-99865980D01*
X187795190Y-99865980D02*
X187795190Y-98865980D01*
X187699952Y-99008838D01*
X187604714Y-99104076D01*
X187509476Y-99151695D01*
X185190428Y-102444552D02*
X185190428Y-101682647D01*
X185571380Y-102063600D02*
X184809476Y-102063600D01*
%TO.C,U1*%
X186038095Y-87742381D02*
X186038095Y-88551905D01*
X186085714Y-88647143D01*
X186133333Y-88694762D01*
X186228571Y-88742381D01*
X186419047Y-88742381D01*
X186514285Y-88694762D01*
X186561904Y-88647143D01*
X186609523Y-88551905D01*
X186609523Y-87742381D01*
X187609523Y-88742381D02*
X187038095Y-88742381D01*
X187323809Y-88742381D02*
X187323809Y-87742381D01*
X187228571Y-87885239D01*
X187133333Y-87980477D01*
X187038095Y-88028096D01*
X173213096Y-66811219D02*
X173132284Y-66838156D01*
X173051471Y-66918968D01*
X172997597Y-67026718D01*
X172997597Y-67134468D01*
X173024534Y-67215280D01*
X173105346Y-67349967D01*
X173186158Y-67430779D01*
X173320845Y-67511591D01*
X173401658Y-67538529D01*
X173509407Y-67538529D01*
X173617157Y-67484654D01*
X173671032Y-67430779D01*
X173724906Y-67323029D01*
X173724906Y-67269155D01*
X173536345Y-67080593D01*
X173428595Y-67188342D01*
X174021218Y-67080593D02*
X173455532Y-66514907D01*
X173671032Y-66299408D01*
X173751844Y-66272471D01*
X173805719Y-66272471D01*
X173886531Y-66299408D01*
X173967343Y-66380220D01*
X173994280Y-66461033D01*
X173994280Y-66514907D01*
X173967343Y-66595720D01*
X173751844Y-66811219D01*
X174883215Y-66218596D02*
X174559966Y-66541845D01*
X174721590Y-66380220D02*
X174155905Y-65814535D01*
X174182842Y-65949222D01*
X174182842Y-66056972D01*
X174155905Y-66137784D01*
X173213096Y-71901219D02*
X173132284Y-71928156D01*
X173051471Y-72008968D01*
X172997597Y-72116718D01*
X172997597Y-72224468D01*
X173024534Y-72305280D01*
X173105346Y-72439967D01*
X173186158Y-72520779D01*
X173320845Y-72601591D01*
X173401658Y-72628529D01*
X173509407Y-72628529D01*
X173617157Y-72574654D01*
X173671032Y-72520779D01*
X173724906Y-72413029D01*
X173724906Y-72359155D01*
X173536345Y-72170593D01*
X173428595Y-72278342D01*
X174021218Y-72170593D02*
X173455532Y-71604907D01*
X173671032Y-71389408D01*
X173751844Y-71362471D01*
X173805719Y-71362471D01*
X173886531Y-71389408D01*
X173967343Y-71470220D01*
X173994280Y-71551033D01*
X173994280Y-71604907D01*
X173967343Y-71685720D01*
X173751844Y-71901219D01*
X174048155Y-71120034D02*
X174048155Y-71066159D01*
X174075093Y-70985347D01*
X174209780Y-70850660D01*
X174290592Y-70823723D01*
X174344467Y-70823723D01*
X174425279Y-70850660D01*
X174479154Y-70904535D01*
X174533028Y-71012285D01*
X174533028Y-71658782D01*
X174883215Y-71308596D01*
X173313096Y-64281219D02*
X173232284Y-64308156D01*
X173151471Y-64388968D01*
X173097597Y-64496718D01*
X173097597Y-64604468D01*
X173124534Y-64685280D01*
X173205346Y-64819967D01*
X173286158Y-64900779D01*
X173420845Y-64981591D01*
X173501658Y-65008529D01*
X173609407Y-65008529D01*
X173717157Y-64954654D01*
X173771032Y-64900779D01*
X173824906Y-64793029D01*
X173824906Y-64739155D01*
X173636345Y-64550593D01*
X173528595Y-64658342D01*
X174121218Y-64550593D02*
X173555532Y-63984907D01*
X173771032Y-63769408D01*
X173851844Y-63742471D01*
X173905719Y-63742471D01*
X173986531Y-63769408D01*
X174067343Y-63850220D01*
X174094280Y-63931033D01*
X174094280Y-63984907D01*
X174067343Y-64065720D01*
X173851844Y-64281219D01*
X174228967Y-63311472D02*
X174282842Y-63257598D01*
X174363654Y-63230660D01*
X174417529Y-63230660D01*
X174498341Y-63257598D01*
X174633028Y-63338410D01*
X174767715Y-63473097D01*
X174848528Y-63607784D01*
X174875465Y-63688596D01*
X174875465Y-63742471D01*
X174848528Y-63823283D01*
X174794653Y-63877158D01*
X174713841Y-63904095D01*
X174659966Y-63904095D01*
X174579154Y-63877158D01*
X174444467Y-63796346D01*
X174309780Y-63661659D01*
X174228967Y-63526972D01*
X174202030Y-63446159D01*
X174202030Y-63392285D01*
X174228967Y-63311472D01*
X173313096Y-74441219D02*
X173232284Y-74468156D01*
X173151471Y-74548968D01*
X173097597Y-74656718D01*
X173097597Y-74764468D01*
X173124534Y-74845280D01*
X173205346Y-74979967D01*
X173286158Y-75060779D01*
X173420845Y-75141591D01*
X173501658Y-75168529D01*
X173609407Y-75168529D01*
X173717157Y-75114654D01*
X173771032Y-75060779D01*
X173824906Y-74953029D01*
X173824906Y-74899155D01*
X173636345Y-74710593D01*
X173528595Y-74818342D01*
X174121218Y-74710593D02*
X173555532Y-74144907D01*
X173771032Y-73929408D01*
X173851844Y-73902471D01*
X173905719Y-73902471D01*
X173986531Y-73929408D01*
X174067343Y-74010220D01*
X174094280Y-74091033D01*
X174094280Y-74144907D01*
X174067343Y-74225720D01*
X173851844Y-74441219D01*
X174067343Y-73633097D02*
X174417529Y-73282911D01*
X174444467Y-73686972D01*
X174525279Y-73606159D01*
X174606091Y-73579222D01*
X174659966Y-73579222D01*
X174740778Y-73606159D01*
X174875465Y-73740846D01*
X174902402Y-73821659D01*
X174902402Y-73875533D01*
X174875465Y-73956346D01*
X174713841Y-74117970D01*
X174633028Y-74144907D01*
X174579154Y-74144907D01*
X173313096Y-76981219D02*
X173232284Y-77008156D01*
X173151471Y-77088968D01*
X173097597Y-77196718D01*
X173097597Y-77304468D01*
X173124534Y-77385280D01*
X173205346Y-77519967D01*
X173286158Y-77600779D01*
X173420845Y-77681591D01*
X173501658Y-77708529D01*
X173609407Y-77708529D01*
X173717157Y-77654654D01*
X173771032Y-77600779D01*
X173824906Y-77493029D01*
X173824906Y-77439155D01*
X173636345Y-77250593D01*
X173528595Y-77358342D01*
X174121218Y-77250593D02*
X173555532Y-76684907D01*
X173771032Y-76469408D01*
X173851844Y-76442471D01*
X173905719Y-76442471D01*
X173986531Y-76469408D01*
X174067343Y-76550220D01*
X174094280Y-76631033D01*
X174094280Y-76684907D01*
X174067343Y-76765720D01*
X173851844Y-76981219D01*
X174552216Y-76065347D02*
X174929340Y-76442471D01*
X174202030Y-75984535D02*
X174471404Y-76523283D01*
X174821590Y-76173097D01*
X173313096Y-79521219D02*
X173232284Y-79548156D01*
X173151471Y-79628968D01*
X173097597Y-79736718D01*
X173097597Y-79844468D01*
X173124534Y-79925280D01*
X173205346Y-80059967D01*
X173286158Y-80140779D01*
X173420845Y-80221591D01*
X173501658Y-80248529D01*
X173609407Y-80248529D01*
X173717157Y-80194654D01*
X173771032Y-80140779D01*
X173824906Y-80033029D01*
X173824906Y-79979155D01*
X173636345Y-79790593D01*
X173528595Y-79898342D01*
X174121218Y-79790593D02*
X173555532Y-79224907D01*
X173771032Y-79009408D01*
X173851844Y-78982471D01*
X173905719Y-78982471D01*
X173986531Y-79009408D01*
X174067343Y-79090220D01*
X174094280Y-79171033D01*
X174094280Y-79224907D01*
X174067343Y-79305720D01*
X173851844Y-79521219D01*
X174390592Y-78389848D02*
X174121218Y-78659222D01*
X174363654Y-78955533D01*
X174363654Y-78901659D01*
X174390592Y-78820846D01*
X174525279Y-78686159D01*
X174606091Y-78659222D01*
X174659966Y-78659222D01*
X174740778Y-78686159D01*
X174875465Y-78820846D01*
X174902402Y-78901659D01*
X174902402Y-78955533D01*
X174875465Y-79036346D01*
X174740778Y-79171033D01*
X174659966Y-79197970D01*
X174606091Y-79197970D01*
X173313096Y-84601219D02*
X173232284Y-84628156D01*
X173151471Y-84708968D01*
X173097597Y-84816718D01*
X173097597Y-84924468D01*
X173124534Y-85005280D01*
X173205346Y-85139967D01*
X173286158Y-85220779D01*
X173420845Y-85301591D01*
X173501658Y-85328529D01*
X173609407Y-85328529D01*
X173717157Y-85274654D01*
X173771032Y-85220779D01*
X173824906Y-85113029D01*
X173824906Y-85059155D01*
X173636345Y-84870593D01*
X173528595Y-84978342D01*
X174121218Y-84870593D02*
X173555532Y-84304907D01*
X173771032Y-84089408D01*
X173851844Y-84062471D01*
X173905719Y-84062471D01*
X173986531Y-84089408D01*
X174067343Y-84170220D01*
X174094280Y-84251033D01*
X174094280Y-84304907D01*
X174067343Y-84385720D01*
X173851844Y-84601219D01*
X174363654Y-83496785D02*
X174255905Y-83604535D01*
X174228967Y-83685347D01*
X174228967Y-83739222D01*
X174255905Y-83873909D01*
X174336717Y-84008596D01*
X174552216Y-84224095D01*
X174633028Y-84251033D01*
X174686903Y-84251033D01*
X174767715Y-84224095D01*
X174875465Y-84116346D01*
X174902402Y-84035533D01*
X174902402Y-83981659D01*
X174875465Y-83900846D01*
X174740778Y-83766159D01*
X174659966Y-83739222D01*
X174606091Y-83739222D01*
X174525279Y-83766159D01*
X174417529Y-83873909D01*
X174390592Y-83954721D01*
X174390592Y-84008596D01*
X174417529Y-84089408D01*
X173413096Y-87111219D02*
X173332284Y-87138156D01*
X173251471Y-87218968D01*
X173197597Y-87326718D01*
X173197597Y-87434468D01*
X173224534Y-87515280D01*
X173305346Y-87649967D01*
X173386158Y-87730779D01*
X173520845Y-87811591D01*
X173601658Y-87838529D01*
X173709407Y-87838529D01*
X173817157Y-87784654D01*
X173871032Y-87730779D01*
X173924906Y-87623029D01*
X173924906Y-87569155D01*
X173736345Y-87380593D01*
X173628595Y-87488342D01*
X174221218Y-87380593D02*
X173655532Y-86814907D01*
X173871032Y-86599408D01*
X173951844Y-86572471D01*
X174005719Y-86572471D01*
X174086531Y-86599408D01*
X174167343Y-86680220D01*
X174194280Y-86761033D01*
X174194280Y-86814907D01*
X174167343Y-86895720D01*
X173951844Y-87111219D01*
X174167343Y-86303097D02*
X174544467Y-85925973D01*
X174867715Y-86734095D01*
X173313096Y-89681219D02*
X173232284Y-89708156D01*
X173151471Y-89788968D01*
X173097597Y-89896718D01*
X173097597Y-90004468D01*
X173124534Y-90085280D01*
X173205346Y-90219967D01*
X173286158Y-90300779D01*
X173420845Y-90381591D01*
X173501658Y-90408529D01*
X173609407Y-90408529D01*
X173717157Y-90354654D01*
X173771032Y-90300779D01*
X173824906Y-90193029D01*
X173824906Y-90139155D01*
X173636345Y-89950593D01*
X173528595Y-90058342D01*
X174121218Y-89950593D02*
X173555532Y-89384907D01*
X173771032Y-89169408D01*
X173851844Y-89142471D01*
X173905719Y-89142471D01*
X173986531Y-89169408D01*
X174067343Y-89250220D01*
X174094280Y-89331033D01*
X174094280Y-89384907D01*
X174067343Y-89465720D01*
X173851844Y-89681219D01*
X174444467Y-88980846D02*
X174363654Y-89007784D01*
X174309780Y-89007784D01*
X174228967Y-88980846D01*
X174202030Y-88953909D01*
X174175093Y-88873097D01*
X174175093Y-88819222D01*
X174202030Y-88738410D01*
X174309780Y-88630660D01*
X174390592Y-88603723D01*
X174444467Y-88603723D01*
X174525279Y-88630660D01*
X174552216Y-88657598D01*
X174579154Y-88738410D01*
X174579154Y-88792285D01*
X174552216Y-88873097D01*
X174444467Y-88980846D01*
X174417529Y-89061659D01*
X174417529Y-89115533D01*
X174444467Y-89196346D01*
X174552216Y-89304095D01*
X174633028Y-89331033D01*
X174686903Y-89331033D01*
X174767715Y-89304095D01*
X174875465Y-89196346D01*
X174902402Y-89115533D01*
X174902402Y-89061659D01*
X174875465Y-88980846D01*
X174767715Y-88873097D01*
X174686903Y-88846159D01*
X174633028Y-88846159D01*
X174552216Y-88873097D01*
X173313096Y-92221219D02*
X173232284Y-92248156D01*
X173151471Y-92328968D01*
X173097597Y-92436718D01*
X173097597Y-92544468D01*
X173124534Y-92625280D01*
X173205346Y-92759967D01*
X173286158Y-92840779D01*
X173420845Y-92921591D01*
X173501658Y-92948529D01*
X173609407Y-92948529D01*
X173717157Y-92894654D01*
X173771032Y-92840779D01*
X173824906Y-92733029D01*
X173824906Y-92679155D01*
X173636345Y-92490593D01*
X173528595Y-92598342D01*
X174121218Y-92490593D02*
X173555532Y-91924907D01*
X173771032Y-91709408D01*
X173851844Y-91682471D01*
X173905719Y-91682471D01*
X173986531Y-91709408D01*
X174067343Y-91790220D01*
X174094280Y-91871033D01*
X174094280Y-91924907D01*
X174067343Y-92005720D01*
X173851844Y-92221219D01*
X174713841Y-91897970D02*
X174821590Y-91790220D01*
X174848528Y-91709408D01*
X174848528Y-91655533D01*
X174821590Y-91520846D01*
X174740778Y-91386159D01*
X174525279Y-91170660D01*
X174444467Y-91143723D01*
X174390592Y-91143723D01*
X174309780Y-91170660D01*
X174202030Y-91278410D01*
X174175093Y-91359222D01*
X174175093Y-91413097D01*
X174202030Y-91493909D01*
X174336717Y-91628596D01*
X174417529Y-91655533D01*
X174471404Y-91655533D01*
X174552216Y-91628596D01*
X174659966Y-91520846D01*
X174686903Y-91440034D01*
X174686903Y-91386159D01*
X174659966Y-91305347D01*
X172789722Y-97570593D02*
X172708910Y-97597530D01*
X172628097Y-97678342D01*
X172574223Y-97786092D01*
X172574223Y-97893842D01*
X172601160Y-97974654D01*
X172681972Y-98109341D01*
X172762784Y-98190153D01*
X172897471Y-98270965D01*
X172978284Y-98297903D01*
X173086033Y-98297903D01*
X173193783Y-98244028D01*
X173247658Y-98190153D01*
X173301532Y-98082403D01*
X173301532Y-98028529D01*
X173112971Y-97839967D01*
X173005221Y-97947716D01*
X173597844Y-97839967D02*
X173032158Y-97274281D01*
X173247658Y-97058782D01*
X173328470Y-97031845D01*
X173382345Y-97031845D01*
X173463157Y-97058782D01*
X173543969Y-97139594D01*
X173570906Y-97220407D01*
X173570906Y-97274281D01*
X173543969Y-97355094D01*
X173328470Y-97570593D01*
X174459841Y-96977970D02*
X174136592Y-97301219D01*
X174298216Y-97139594D02*
X173732531Y-96573909D01*
X173759468Y-96708596D01*
X173759468Y-96816346D01*
X173732531Y-96897158D01*
X174244341Y-96062098D02*
X174298216Y-96008224D01*
X174379028Y-95981286D01*
X174432903Y-95981286D01*
X174513715Y-96008224D01*
X174648402Y-96089036D01*
X174783089Y-96223723D01*
X174863902Y-96358410D01*
X174890839Y-96439222D01*
X174890839Y-96493097D01*
X174863902Y-96573909D01*
X174810027Y-96627784D01*
X174729215Y-96654721D01*
X174675340Y-96654721D01*
X174594528Y-96627784D01*
X174459841Y-96546972D01*
X174325154Y-96412285D01*
X174244341Y-96277598D01*
X174217404Y-96196785D01*
X174217404Y-96142911D01*
X174244341Y-96062098D01*
X172643722Y-100110593D02*
X172562910Y-100137530D01*
X172482097Y-100218342D01*
X172428223Y-100326092D01*
X172428223Y-100433842D01*
X172455160Y-100514654D01*
X172535972Y-100649341D01*
X172616784Y-100730153D01*
X172751471Y-100810965D01*
X172832284Y-100837903D01*
X172940033Y-100837903D01*
X173047783Y-100784028D01*
X173101658Y-100730153D01*
X173155532Y-100622403D01*
X173155532Y-100568529D01*
X172966971Y-100379967D01*
X172859221Y-100487716D01*
X173451844Y-100379967D02*
X172886158Y-99814281D01*
X173101658Y-99598782D01*
X173182470Y-99571845D01*
X173236345Y-99571845D01*
X173317157Y-99598782D01*
X173397969Y-99679594D01*
X173424906Y-99760407D01*
X173424906Y-99814281D01*
X173397969Y-99895094D01*
X173182470Y-100110593D01*
X174313841Y-99517970D02*
X173990592Y-99841219D01*
X174152216Y-99679594D02*
X173586531Y-99113909D01*
X173613468Y-99248596D01*
X173613468Y-99356346D01*
X173586531Y-99437158D01*
X174852589Y-98979222D02*
X174529340Y-99302471D01*
X174690964Y-99140846D02*
X174125279Y-98575161D01*
X174152216Y-98709848D01*
X174152216Y-98817598D01*
X174125279Y-98898410D01*
X172643722Y-102650593D02*
X172562910Y-102677530D01*
X172482097Y-102758342D01*
X172428223Y-102866092D01*
X172428223Y-102973842D01*
X172455160Y-103054654D01*
X172535972Y-103189341D01*
X172616784Y-103270153D01*
X172751471Y-103350965D01*
X172832284Y-103377903D01*
X172940033Y-103377903D01*
X173047783Y-103324028D01*
X173101658Y-103270153D01*
X173155532Y-103162403D01*
X173155532Y-103108529D01*
X172966971Y-102919967D01*
X172859221Y-103027716D01*
X173451844Y-102919967D02*
X172886158Y-102354281D01*
X173101658Y-102138782D01*
X173182470Y-102111845D01*
X173236345Y-102111845D01*
X173317157Y-102138782D01*
X173397969Y-102219594D01*
X173424906Y-102300407D01*
X173424906Y-102354281D01*
X173397969Y-102435094D01*
X173182470Y-102650593D01*
X174313841Y-102057970D02*
X173990592Y-102381219D01*
X174152216Y-102219594D02*
X173586531Y-101653909D01*
X173613468Y-101788596D01*
X173613468Y-101896346D01*
X173586531Y-101977158D01*
X174017529Y-101330660D02*
X174017529Y-101276785D01*
X174044467Y-101195973D01*
X174179154Y-101061286D01*
X174259966Y-101034349D01*
X174313841Y-101034349D01*
X174394653Y-101061286D01*
X174448528Y-101115161D01*
X174502402Y-101222911D01*
X174502402Y-101869408D01*
X174852589Y-101519222D01*
X172789722Y-105190593D02*
X172708910Y-105217530D01*
X172628097Y-105298342D01*
X172574223Y-105406092D01*
X172574223Y-105513842D01*
X172601160Y-105594654D01*
X172681972Y-105729341D01*
X172762784Y-105810153D01*
X172897471Y-105890965D01*
X172978284Y-105917903D01*
X173086033Y-105917903D01*
X173193783Y-105864028D01*
X173247658Y-105810153D01*
X173301532Y-105702403D01*
X173301532Y-105648529D01*
X173112971Y-105459967D01*
X173005221Y-105567716D01*
X173597844Y-105459967D02*
X173032158Y-104894281D01*
X173247658Y-104678782D01*
X173328470Y-104651845D01*
X173382345Y-104651845D01*
X173463157Y-104678782D01*
X173543969Y-104759594D01*
X173570906Y-104840407D01*
X173570906Y-104894281D01*
X173543969Y-104975094D01*
X173328470Y-105190593D01*
X174459841Y-104597970D02*
X174136592Y-104921219D01*
X174298216Y-104759594D02*
X173732531Y-104193909D01*
X173759468Y-104328596D01*
X173759468Y-104436346D01*
X173732531Y-104517158D01*
X174082717Y-103843723D02*
X174432903Y-103493537D01*
X174459841Y-103897598D01*
X174540653Y-103816785D01*
X174621465Y-103789848D01*
X174675340Y-103789848D01*
X174756152Y-103816785D01*
X174890839Y-103951472D01*
X174917776Y-104032285D01*
X174917776Y-104086159D01*
X174890839Y-104166972D01*
X174729215Y-104328596D01*
X174648402Y-104355533D01*
X174594528Y-104355533D01*
X172743722Y-110270593D02*
X172662910Y-110297530D01*
X172582097Y-110378342D01*
X172528223Y-110486092D01*
X172528223Y-110593842D01*
X172555160Y-110674654D01*
X172635972Y-110809341D01*
X172716784Y-110890153D01*
X172851471Y-110970965D01*
X172932284Y-110997903D01*
X173040033Y-110997903D01*
X173147783Y-110944028D01*
X173201658Y-110890153D01*
X173255532Y-110782403D01*
X173255532Y-110728529D01*
X173066971Y-110539967D01*
X172959221Y-110647716D01*
X173551844Y-110539967D02*
X172986158Y-109974281D01*
X173201658Y-109758782D01*
X173282470Y-109731845D01*
X173336345Y-109731845D01*
X173417157Y-109758782D01*
X173497969Y-109839594D01*
X173524906Y-109920407D01*
X173524906Y-109974281D01*
X173497969Y-110055094D01*
X173282470Y-110270593D01*
X174413841Y-109677970D02*
X174090592Y-110001219D01*
X174252216Y-109839594D02*
X173686531Y-109273909D01*
X173713468Y-109408596D01*
X173713468Y-109516346D01*
X173686531Y-109597158D01*
X174521590Y-108815973D02*
X174898714Y-109193097D01*
X174171404Y-108735161D02*
X174440778Y-109273909D01*
X174790964Y-108923723D01*
X172789722Y-112810593D02*
X172708910Y-112837530D01*
X172628097Y-112918342D01*
X172574223Y-113026092D01*
X172574223Y-113133842D01*
X172601160Y-113214654D01*
X172681972Y-113349341D01*
X172762784Y-113430153D01*
X172897471Y-113510965D01*
X172978284Y-113537903D01*
X173086033Y-113537903D01*
X173193783Y-113484028D01*
X173247658Y-113430153D01*
X173301532Y-113322403D01*
X173301532Y-113268529D01*
X173112971Y-113079967D01*
X173005221Y-113187716D01*
X173597844Y-113079967D02*
X173032158Y-112514281D01*
X173247658Y-112298782D01*
X173328470Y-112271845D01*
X173382345Y-112271845D01*
X173463157Y-112298782D01*
X173543969Y-112379594D01*
X173570906Y-112460407D01*
X173570906Y-112514281D01*
X173543969Y-112595094D01*
X173328470Y-112810593D01*
X174459841Y-112217970D02*
X174136592Y-112541219D01*
X174298216Y-112379594D02*
X173732531Y-111813909D01*
X173759468Y-111948596D01*
X173759468Y-112056346D01*
X173732531Y-112137158D01*
X174405966Y-111140474D02*
X174136592Y-111409848D01*
X174379028Y-111706159D01*
X174379028Y-111652285D01*
X174405966Y-111571472D01*
X174540653Y-111436785D01*
X174621465Y-111409848D01*
X174675340Y-111409848D01*
X174756152Y-111436785D01*
X174890839Y-111571472D01*
X174917776Y-111652285D01*
X174917776Y-111706159D01*
X174890839Y-111786972D01*
X174756152Y-111921659D01*
X174675340Y-111948596D01*
X174621465Y-111948596D01*
X198897722Y-112810593D02*
X198816910Y-112837530D01*
X198736097Y-112918342D01*
X198682223Y-113026092D01*
X198682223Y-113133842D01*
X198709160Y-113214654D01*
X198789972Y-113349341D01*
X198870784Y-113430153D01*
X199005471Y-113510965D01*
X199086284Y-113537903D01*
X199194033Y-113537903D01*
X199301783Y-113484028D01*
X199355658Y-113430153D01*
X199409532Y-113322403D01*
X199409532Y-113268529D01*
X199220971Y-113079967D01*
X199113221Y-113187716D01*
X199705844Y-113079967D02*
X199140158Y-112514281D01*
X199355658Y-112298782D01*
X199436470Y-112271845D01*
X199490345Y-112271845D01*
X199571157Y-112298782D01*
X199651969Y-112379594D01*
X199678906Y-112460407D01*
X199678906Y-112514281D01*
X199651969Y-112595094D01*
X199436470Y-112810593D01*
X200567841Y-112217970D02*
X200244592Y-112541219D01*
X200406216Y-112379594D02*
X199840531Y-111813909D01*
X199867468Y-111948596D01*
X199867468Y-112056346D01*
X199840531Y-112137158D01*
X200487028Y-111167411D02*
X200379279Y-111275161D01*
X200352341Y-111355973D01*
X200352341Y-111409848D01*
X200379279Y-111544535D01*
X200460091Y-111679222D01*
X200675590Y-111894721D01*
X200756402Y-111921659D01*
X200810277Y-111921659D01*
X200891089Y-111894721D01*
X200998839Y-111786972D01*
X201025776Y-111706159D01*
X201025776Y-111652285D01*
X200998839Y-111571472D01*
X200864152Y-111436785D01*
X200783340Y-111409848D01*
X200729465Y-111409848D01*
X200648653Y-111436785D01*
X200540903Y-111544535D01*
X200513966Y-111625347D01*
X200513966Y-111679222D01*
X200540903Y-111760034D01*
X198897722Y-110270593D02*
X198816910Y-110297530D01*
X198736097Y-110378342D01*
X198682223Y-110486092D01*
X198682223Y-110593842D01*
X198709160Y-110674654D01*
X198789972Y-110809341D01*
X198870784Y-110890153D01*
X199005471Y-110970965D01*
X199086284Y-110997903D01*
X199194033Y-110997903D01*
X199301783Y-110944028D01*
X199355658Y-110890153D01*
X199409532Y-110782403D01*
X199409532Y-110728529D01*
X199220971Y-110539967D01*
X199113221Y-110647716D01*
X199705844Y-110539967D02*
X199140158Y-109974281D01*
X199355658Y-109758782D01*
X199436470Y-109731845D01*
X199490345Y-109731845D01*
X199571157Y-109758782D01*
X199651969Y-109839594D01*
X199678906Y-109920407D01*
X199678906Y-109974281D01*
X199651969Y-110055094D01*
X199436470Y-110270593D01*
X200567841Y-109677970D02*
X200244592Y-110001219D01*
X200406216Y-109839594D02*
X199840531Y-109273909D01*
X199867468Y-109408596D01*
X199867468Y-109516346D01*
X199840531Y-109597158D01*
X200190717Y-108923723D02*
X200567841Y-108546599D01*
X200891089Y-109354721D01*
X198897722Y-105190593D02*
X198816910Y-105217530D01*
X198736097Y-105298342D01*
X198682223Y-105406092D01*
X198682223Y-105513842D01*
X198709160Y-105594654D01*
X198789972Y-105729341D01*
X198870784Y-105810153D01*
X199005471Y-105890965D01*
X199086284Y-105917903D01*
X199194033Y-105917903D01*
X199301783Y-105864028D01*
X199355658Y-105810153D01*
X199409532Y-105702403D01*
X199409532Y-105648529D01*
X199220971Y-105459967D01*
X199113221Y-105567716D01*
X199705844Y-105459967D02*
X199140158Y-104894281D01*
X199355658Y-104678782D01*
X199436470Y-104651845D01*
X199490345Y-104651845D01*
X199571157Y-104678782D01*
X199651969Y-104759594D01*
X199678906Y-104840407D01*
X199678906Y-104894281D01*
X199651969Y-104975094D01*
X199436470Y-105190593D01*
X200567841Y-104597970D02*
X200244592Y-104921219D01*
X200406216Y-104759594D02*
X199840531Y-104193909D01*
X199867468Y-104328596D01*
X199867468Y-104436346D01*
X199840531Y-104517158D01*
X200567841Y-103951472D02*
X200487028Y-103978410D01*
X200433154Y-103978410D01*
X200352341Y-103951472D01*
X200325404Y-103924535D01*
X200298467Y-103843723D01*
X200298467Y-103789848D01*
X200325404Y-103709036D01*
X200433154Y-103601286D01*
X200513966Y-103574349D01*
X200567841Y-103574349D01*
X200648653Y-103601286D01*
X200675590Y-103628224D01*
X200702528Y-103709036D01*
X200702528Y-103762911D01*
X200675590Y-103843723D01*
X200567841Y-103951472D01*
X200540903Y-104032285D01*
X200540903Y-104086159D01*
X200567841Y-104166972D01*
X200675590Y-104274721D01*
X200756402Y-104301659D01*
X200810277Y-104301659D01*
X200891089Y-104274721D01*
X200998839Y-104166972D01*
X201025776Y-104086159D01*
X201025776Y-104032285D01*
X200998839Y-103951472D01*
X200891089Y-103843723D01*
X200810277Y-103816785D01*
X200756402Y-103816785D01*
X200675590Y-103843723D01*
X198897722Y-102650593D02*
X198816910Y-102677530D01*
X198736097Y-102758342D01*
X198682223Y-102866092D01*
X198682223Y-102973842D01*
X198709160Y-103054654D01*
X198789972Y-103189341D01*
X198870784Y-103270153D01*
X199005471Y-103350965D01*
X199086284Y-103377903D01*
X199194033Y-103377903D01*
X199301783Y-103324028D01*
X199355658Y-103270153D01*
X199409532Y-103162403D01*
X199409532Y-103108529D01*
X199220971Y-102919967D01*
X199113221Y-103027716D01*
X199705844Y-102919967D02*
X199140158Y-102354281D01*
X199355658Y-102138782D01*
X199436470Y-102111845D01*
X199490345Y-102111845D01*
X199571157Y-102138782D01*
X199651969Y-102219594D01*
X199678906Y-102300407D01*
X199678906Y-102354281D01*
X199651969Y-102435094D01*
X199436470Y-102650593D01*
X200567841Y-102057970D02*
X200244592Y-102381219D01*
X200406216Y-102219594D02*
X199840531Y-101653909D01*
X199867468Y-101788596D01*
X199867468Y-101896346D01*
X199840531Y-101977158D01*
X200837215Y-101788596D02*
X200944964Y-101680846D01*
X200971902Y-101600034D01*
X200971902Y-101546159D01*
X200944964Y-101411472D01*
X200864152Y-101276785D01*
X200648653Y-101061286D01*
X200567841Y-101034349D01*
X200513966Y-101034349D01*
X200433154Y-101061286D01*
X200325404Y-101169036D01*
X200298467Y-101249848D01*
X200298467Y-101303723D01*
X200325404Y-101384535D01*
X200460091Y-101519222D01*
X200540903Y-101546159D01*
X200594778Y-101546159D01*
X200675590Y-101519222D01*
X200783340Y-101411472D01*
X200810277Y-101330660D01*
X200810277Y-101276785D01*
X200783340Y-101195973D01*
X198897722Y-100110593D02*
X198816910Y-100137530D01*
X198736097Y-100218342D01*
X198682223Y-100326092D01*
X198682223Y-100433842D01*
X198709160Y-100514654D01*
X198789972Y-100649341D01*
X198870784Y-100730153D01*
X199005471Y-100810965D01*
X199086284Y-100837903D01*
X199194033Y-100837903D01*
X199301783Y-100784028D01*
X199355658Y-100730153D01*
X199409532Y-100622403D01*
X199409532Y-100568529D01*
X199220971Y-100379967D01*
X199113221Y-100487716D01*
X199705844Y-100379967D02*
X199140158Y-99814281D01*
X199355658Y-99598782D01*
X199436470Y-99571845D01*
X199490345Y-99571845D01*
X199571157Y-99598782D01*
X199651969Y-99679594D01*
X199678906Y-99760407D01*
X199678906Y-99814281D01*
X199651969Y-99895094D01*
X199436470Y-100110593D01*
X199732781Y-99329408D02*
X199732781Y-99275533D01*
X199759719Y-99194721D01*
X199894406Y-99060034D01*
X199975218Y-99033097D01*
X200029093Y-99033097D01*
X200109905Y-99060034D01*
X200163780Y-99113909D01*
X200217654Y-99221659D01*
X200217654Y-99868156D01*
X200567841Y-99517970D01*
X200352341Y-98602098D02*
X200406216Y-98548224D01*
X200487028Y-98521286D01*
X200540903Y-98521286D01*
X200621715Y-98548224D01*
X200756402Y-98629036D01*
X200891089Y-98763723D01*
X200971902Y-98898410D01*
X200998839Y-98979222D01*
X200998839Y-99033097D01*
X200971902Y-99113909D01*
X200918027Y-99167784D01*
X200837215Y-99194721D01*
X200783340Y-99194721D01*
X200702528Y-99167784D01*
X200567841Y-99086972D01*
X200433154Y-98952285D01*
X200352341Y-98817598D01*
X200325404Y-98736785D01*
X200325404Y-98682911D01*
X200352341Y-98602098D01*
X198897722Y-97580593D02*
X198816910Y-97607530D01*
X198736097Y-97688342D01*
X198682223Y-97796092D01*
X198682223Y-97903842D01*
X198709160Y-97984654D01*
X198789972Y-98119341D01*
X198870784Y-98200153D01*
X199005471Y-98280965D01*
X199086284Y-98307903D01*
X199194033Y-98307903D01*
X199301783Y-98254028D01*
X199355658Y-98200153D01*
X199409532Y-98092403D01*
X199409532Y-98038529D01*
X199220971Y-97849967D01*
X199113221Y-97957716D01*
X199705844Y-97849967D02*
X199140158Y-97284281D01*
X199355658Y-97068782D01*
X199436470Y-97041845D01*
X199490345Y-97041845D01*
X199571157Y-97068782D01*
X199651969Y-97149594D01*
X199678906Y-97230407D01*
X199678906Y-97284281D01*
X199651969Y-97365094D01*
X199436470Y-97580593D01*
X199732781Y-96799408D02*
X199732781Y-96745533D01*
X199759719Y-96664721D01*
X199894406Y-96530034D01*
X199975218Y-96503097D01*
X200029093Y-96503097D01*
X200109905Y-96530034D01*
X200163780Y-96583909D01*
X200217654Y-96691659D01*
X200217654Y-97338156D01*
X200567841Y-96987970D01*
X201106589Y-96449222D02*
X200783340Y-96772471D01*
X200944964Y-96610846D02*
X200379279Y-96045161D01*
X200406216Y-96179848D01*
X200406216Y-96287598D01*
X200379279Y-96368410D01*
X198897722Y-92490593D02*
X198816910Y-92517530D01*
X198736097Y-92598342D01*
X198682223Y-92706092D01*
X198682223Y-92813842D01*
X198709160Y-92894654D01*
X198789972Y-93029341D01*
X198870784Y-93110153D01*
X199005471Y-93190965D01*
X199086284Y-93217903D01*
X199194033Y-93217903D01*
X199301783Y-93164028D01*
X199355658Y-93110153D01*
X199409532Y-93002403D01*
X199409532Y-92948529D01*
X199220971Y-92759967D01*
X199113221Y-92867716D01*
X199705844Y-92759967D02*
X199140158Y-92194281D01*
X199355658Y-91978782D01*
X199436470Y-91951845D01*
X199490345Y-91951845D01*
X199571157Y-91978782D01*
X199651969Y-92059594D01*
X199678906Y-92140407D01*
X199678906Y-92194281D01*
X199651969Y-92275094D01*
X199436470Y-92490593D01*
X199732781Y-91709408D02*
X199732781Y-91655533D01*
X199759719Y-91574721D01*
X199894406Y-91440034D01*
X199975218Y-91413097D01*
X200029093Y-91413097D01*
X200109905Y-91440034D01*
X200163780Y-91493909D01*
X200217654Y-91601659D01*
X200217654Y-92248156D01*
X200567841Y-91897970D01*
X200271529Y-91170660D02*
X200271529Y-91116785D01*
X200298467Y-91035973D01*
X200433154Y-90901286D01*
X200513966Y-90874349D01*
X200567841Y-90874349D01*
X200648653Y-90901286D01*
X200702528Y-90955161D01*
X200756402Y-91062911D01*
X200756402Y-91709408D01*
X201106589Y-91359222D01*
X199638375Y-90233436D02*
X199180439Y-90152623D01*
X199315126Y-90556684D02*
X198749441Y-89990999D01*
X198964940Y-89775500D01*
X199045752Y-89748562D01*
X199099627Y-89748562D01*
X199180439Y-89775500D01*
X199261251Y-89856312D01*
X199288189Y-89937124D01*
X199288189Y-89990999D01*
X199261251Y-90071811D01*
X199045752Y-90287310D01*
X199315126Y-89425313D02*
X199773062Y-89883249D01*
X199853874Y-89910187D01*
X199907749Y-89910187D01*
X199988561Y-89883249D01*
X200096311Y-89775500D01*
X200123248Y-89694688D01*
X200123248Y-89640813D01*
X200096311Y-89560000D01*
X199638375Y-89102065D01*
X200473435Y-89398376D02*
X199907749Y-88832691D01*
X200796683Y-89075127D01*
X200230998Y-88509442D01*
X198897722Y-87410593D02*
X198816910Y-87437530D01*
X198736097Y-87518342D01*
X198682223Y-87626092D01*
X198682223Y-87733842D01*
X198709160Y-87814654D01*
X198789972Y-87949341D01*
X198870784Y-88030153D01*
X199005471Y-88110965D01*
X199086284Y-88137903D01*
X199194033Y-88137903D01*
X199301783Y-88084028D01*
X199355658Y-88030153D01*
X199409532Y-87922403D01*
X199409532Y-87868529D01*
X199220971Y-87679967D01*
X199113221Y-87787716D01*
X199705844Y-87679967D02*
X199140158Y-87114281D01*
X199355658Y-86898782D01*
X199436470Y-86871845D01*
X199490345Y-86871845D01*
X199571157Y-86898782D01*
X199651969Y-86979594D01*
X199678906Y-87060407D01*
X199678906Y-87114281D01*
X199651969Y-87195094D01*
X199436470Y-87410593D01*
X199732781Y-86629408D02*
X199732781Y-86575533D01*
X199759719Y-86494721D01*
X199894406Y-86360034D01*
X199975218Y-86333097D01*
X200029093Y-86333097D01*
X200109905Y-86360034D01*
X200163780Y-86413909D01*
X200217654Y-86521659D01*
X200217654Y-87168156D01*
X200567841Y-86817970D01*
X200487028Y-85767411D02*
X200379279Y-85875161D01*
X200352341Y-85955973D01*
X200352341Y-86009848D01*
X200379279Y-86144535D01*
X200460091Y-86279222D01*
X200675590Y-86494721D01*
X200756402Y-86521659D01*
X200810277Y-86521659D01*
X200891089Y-86494721D01*
X200998839Y-86386972D01*
X201025776Y-86306159D01*
X201025776Y-86252285D01*
X200998839Y-86171472D01*
X200864152Y-86036785D01*
X200783340Y-86009848D01*
X200729465Y-86009848D01*
X200648653Y-86036785D01*
X200540903Y-86144535D01*
X200513966Y-86225347D01*
X200513966Y-86279222D01*
X200540903Y-86360034D01*
X198897722Y-84880593D02*
X198816910Y-84907530D01*
X198736097Y-84988342D01*
X198682223Y-85096092D01*
X198682223Y-85203842D01*
X198709160Y-85284654D01*
X198789972Y-85419341D01*
X198870784Y-85500153D01*
X199005471Y-85580965D01*
X199086284Y-85607903D01*
X199194033Y-85607903D01*
X199301783Y-85554028D01*
X199355658Y-85500153D01*
X199409532Y-85392403D01*
X199409532Y-85338529D01*
X199220971Y-85149967D01*
X199113221Y-85257716D01*
X199705844Y-85149967D02*
X199140158Y-84584281D01*
X199355658Y-84368782D01*
X199436470Y-84341845D01*
X199490345Y-84341845D01*
X199571157Y-84368782D01*
X199651969Y-84449594D01*
X199678906Y-84530407D01*
X199678906Y-84584281D01*
X199651969Y-84665094D01*
X199436470Y-84880593D01*
X199732781Y-84099408D02*
X199732781Y-84045533D01*
X199759719Y-83964721D01*
X199894406Y-83830034D01*
X199975218Y-83803097D01*
X200029093Y-83803097D01*
X200109905Y-83830034D01*
X200163780Y-83883909D01*
X200217654Y-83991659D01*
X200217654Y-84638156D01*
X200567841Y-84287970D01*
X200190717Y-83533723D02*
X200567841Y-83156599D01*
X200891089Y-83964721D01*
X198897722Y-79536593D02*
X198816910Y-79563530D01*
X198736097Y-79644342D01*
X198682223Y-79752092D01*
X198682223Y-79859842D01*
X198709160Y-79940654D01*
X198789972Y-80075341D01*
X198870784Y-80156153D01*
X199005471Y-80236965D01*
X199086284Y-80263903D01*
X199194033Y-80263903D01*
X199301783Y-80210028D01*
X199355658Y-80156153D01*
X199409532Y-80048403D01*
X199409532Y-79994529D01*
X199220971Y-79805967D01*
X199113221Y-79913716D01*
X199705844Y-79805967D02*
X199140158Y-79240281D01*
X199355658Y-79024782D01*
X199436470Y-78997845D01*
X199490345Y-78997845D01*
X199571157Y-79024782D01*
X199651969Y-79105594D01*
X199678906Y-79186407D01*
X199678906Y-79240281D01*
X199651969Y-79321094D01*
X199436470Y-79536593D01*
X199732781Y-78755408D02*
X199732781Y-78701533D01*
X199759719Y-78620721D01*
X199894406Y-78486034D01*
X199975218Y-78459097D01*
X200029093Y-78459097D01*
X200109905Y-78486034D01*
X200163780Y-78539909D01*
X200217654Y-78647659D01*
X200217654Y-79294156D01*
X200567841Y-78943970D01*
X200567841Y-78297472D02*
X200487028Y-78324410D01*
X200433154Y-78324410D01*
X200352341Y-78297472D01*
X200325404Y-78270535D01*
X200298467Y-78189723D01*
X200298467Y-78135848D01*
X200325404Y-78055036D01*
X200433154Y-77947286D01*
X200513966Y-77920349D01*
X200567841Y-77920349D01*
X200648653Y-77947286D01*
X200675590Y-77974224D01*
X200702528Y-78055036D01*
X200702528Y-78108911D01*
X200675590Y-78189723D01*
X200567841Y-78297472D01*
X200540903Y-78378285D01*
X200540903Y-78432159D01*
X200567841Y-78512972D01*
X200675590Y-78620721D01*
X200756402Y-78647659D01*
X200810277Y-78647659D01*
X200891089Y-78620721D01*
X200998839Y-78512972D01*
X201025776Y-78432159D01*
X201025776Y-78378285D01*
X200998839Y-78297472D01*
X200891089Y-78189723D01*
X200810277Y-78162785D01*
X200756402Y-78162785D01*
X200675590Y-78189723D01*
X198954788Y-77823774D02*
X199224162Y-77554400D01*
X199062537Y-78039273D02*
X198685414Y-77285026D01*
X199439661Y-77662150D01*
X199628223Y-77473588D02*
X199062537Y-76907903D01*
X199197224Y-76773216D01*
X199304974Y-76719341D01*
X199412723Y-76719341D01*
X199493536Y-76746278D01*
X199628223Y-76827090D01*
X199709035Y-76907903D01*
X199789847Y-77042590D01*
X199816784Y-77123402D01*
X199816784Y-77231151D01*
X199762910Y-77338901D01*
X199628223Y-77473588D01*
X200463282Y-76530779D02*
X200463282Y-76584654D01*
X200409407Y-76692403D01*
X200355532Y-76746278D01*
X200247783Y-76800153D01*
X200140033Y-76800153D01*
X200059221Y-76773216D01*
X199924534Y-76692403D01*
X199843722Y-76611591D01*
X199762910Y-76476904D01*
X199735972Y-76396092D01*
X199735972Y-76288342D01*
X199789847Y-76180593D01*
X199843722Y-76126718D01*
X199951471Y-76072843D01*
X200005346Y-76072843D01*
X200678781Y-76530779D02*
X201109780Y-76099781D01*
X200544094Y-75426346D02*
X201298341Y-75803469D01*
X200921218Y-75049222D01*
X201998714Y-75103097D02*
X201540778Y-75022285D01*
X201675465Y-75426346D02*
X201109780Y-74860660D01*
X201325279Y-74645161D01*
X201406091Y-74618224D01*
X201459966Y-74618224D01*
X201540778Y-74645161D01*
X201621590Y-74725973D01*
X201648528Y-74806785D01*
X201648528Y-74860660D01*
X201621590Y-74941472D01*
X201406091Y-75156972D01*
X201944839Y-74564349D02*
X202133401Y-74375787D01*
X202510524Y-74591286D02*
X202241150Y-74860660D01*
X201675465Y-74294975D01*
X201944839Y-74025601D01*
X202645211Y-73863976D02*
X202456650Y-74052538D01*
X202752961Y-74348850D02*
X202187276Y-73783164D01*
X202456650Y-73513790D01*
X198689847Y-74780593D02*
X199040033Y-74430407D01*
X199066971Y-74834468D01*
X199147783Y-74753655D01*
X199228595Y-74726718D01*
X199282470Y-74726718D01*
X199363282Y-74753655D01*
X199497969Y-74888342D01*
X199524906Y-74969155D01*
X199524906Y-75023029D01*
X199497969Y-75103842D01*
X199336345Y-75265466D01*
X199255532Y-75292403D01*
X199201658Y-75292403D01*
X199201658Y-74268782D02*
X199955905Y-74645906D01*
X199578781Y-73891659D01*
X199713468Y-73756972D02*
X200063654Y-73406785D01*
X200090592Y-73810846D01*
X200171404Y-73730034D01*
X200252216Y-73703097D01*
X200306091Y-73703097D01*
X200386903Y-73730034D01*
X200521590Y-73864721D01*
X200548528Y-73945533D01*
X200548528Y-73999408D01*
X200521590Y-74080220D01*
X200359966Y-74241845D01*
X200279154Y-74268782D01*
X200225279Y-74268782D01*
X198722131Y-72248309D02*
X199072317Y-71898123D01*
X199099255Y-72302184D01*
X199180067Y-72221371D01*
X199260879Y-72194434D01*
X199314754Y-72194434D01*
X199395566Y-72221371D01*
X199530253Y-72356058D01*
X199557190Y-72436871D01*
X199557190Y-72490745D01*
X199530253Y-72571558D01*
X199368629Y-72733182D01*
X199287816Y-72760119D01*
X199233942Y-72760119D01*
X199233942Y-71736498D02*
X199988189Y-72113622D01*
X199611065Y-71359375D01*
X199745752Y-71224688D02*
X200095938Y-70874501D01*
X200122876Y-71278562D01*
X200203688Y-71197750D01*
X200284500Y-71170813D01*
X200338375Y-71170813D01*
X200419187Y-71197750D01*
X200553874Y-71332437D01*
X200580812Y-71413249D01*
X200580812Y-71467124D01*
X200553874Y-71547936D01*
X200392250Y-71709561D01*
X200311438Y-71736498D01*
X200257563Y-71736498D01*
X200823248Y-71386312D02*
X201254247Y-70955313D01*
X201038748Y-70470440D02*
X201227309Y-70281878D01*
X201604433Y-70497378D02*
X201335059Y-70766752D01*
X200769374Y-70201066D01*
X201038748Y-69931692D01*
X201846870Y-70254941D02*
X201281184Y-69689256D01*
X202170118Y-69931692D01*
X201604433Y-69366007D01*
X198720473Y-67359967D02*
X199474720Y-67737090D01*
X199097597Y-66982843D01*
X199797969Y-67359967D02*
X199905719Y-67306092D01*
X200040406Y-67171405D01*
X200067343Y-67090593D01*
X200067343Y-67036718D01*
X200040406Y-66955906D01*
X199986531Y-66902031D01*
X199905719Y-66875094D01*
X199851844Y-66875094D01*
X199771032Y-66902031D01*
X199636345Y-66982843D01*
X199555532Y-67009781D01*
X199501658Y-67009781D01*
X199420845Y-66982843D01*
X199366971Y-66928968D01*
X199340033Y-66848156D01*
X199340033Y-66794281D01*
X199366971Y-66713469D01*
X199501658Y-66578782D01*
X199609407Y-66524907D01*
X200228967Y-66444095D02*
X200498341Y-66713469D01*
X199744094Y-66336346D02*
X200228967Y-66444095D01*
X200121218Y-65959222D01*
X200821590Y-66336346D02*
X200929340Y-66282471D01*
X201064027Y-66147784D01*
X201090964Y-66066972D01*
X201090964Y-66013097D01*
X201064027Y-65932285D01*
X201010152Y-65878410D01*
X200929340Y-65851472D01*
X200875465Y-65851472D01*
X200794653Y-65878410D01*
X200659966Y-65959222D01*
X200579154Y-65986159D01*
X200525279Y-65986159D01*
X200444467Y-65959222D01*
X200390592Y-65905347D01*
X200363654Y-65824535D01*
X200363654Y-65770660D01*
X200390592Y-65689848D01*
X200525279Y-65555161D01*
X200633028Y-65501286D01*
X198753129Y-64817310D02*
X199507377Y-65194434D01*
X199130253Y-64440187D01*
X199776751Y-64332437D02*
X199884500Y-64278562D01*
X199938375Y-64278562D01*
X200019187Y-64305500D01*
X200100000Y-64386312D01*
X200126937Y-64467124D01*
X200126937Y-64520999D01*
X200100000Y-64601811D01*
X199884500Y-64817310D01*
X199318815Y-64251625D01*
X199507377Y-64063063D01*
X199588189Y-64036126D01*
X199642064Y-64036126D01*
X199722876Y-64063063D01*
X199776751Y-64116938D01*
X199803688Y-64197750D01*
X199803688Y-64251625D01*
X199776751Y-64332437D01*
X199588189Y-64520999D01*
X199884500Y-63685939D02*
X200342436Y-64143875D01*
X200423248Y-64170813D01*
X200477123Y-64170813D01*
X200557935Y-64143875D01*
X200665685Y-64036126D01*
X200692622Y-63955313D01*
X200692622Y-63901439D01*
X200665685Y-63820626D01*
X200207749Y-63362691D01*
X200988934Y-63659002D02*
X201096683Y-63605127D01*
X201231370Y-63470440D01*
X201258308Y-63389628D01*
X201258308Y-63335753D01*
X201231370Y-63254941D01*
X201177496Y-63201066D01*
X201096683Y-63174129D01*
X201042809Y-63174129D01*
X200961996Y-63201066D01*
X200827309Y-63281878D01*
X200746497Y-63308816D01*
X200692622Y-63308816D01*
X200611810Y-63281878D01*
X200557935Y-63228004D01*
X200530998Y-63147191D01*
X200530998Y-63093317D01*
X200557935Y-63012504D01*
X200692622Y-62877817D01*
X200800372Y-62823943D01*
X173286158Y-69388156D02*
X173205346Y-69415094D01*
X173124534Y-69495906D01*
X173070659Y-69603655D01*
X173070659Y-69711405D01*
X173097597Y-69792217D01*
X173178409Y-69926904D01*
X173259221Y-70007716D01*
X173393908Y-70088529D01*
X173474720Y-70115466D01*
X173582470Y-70115466D01*
X173690219Y-70061591D01*
X173744094Y-70007716D01*
X173797969Y-69899967D01*
X173797969Y-69846092D01*
X173609407Y-69657530D01*
X173501658Y-69765280D01*
X174094280Y-69657530D02*
X173528595Y-69091845D01*
X174417529Y-69334281D01*
X173851844Y-68768596D01*
X174686903Y-69064907D02*
X174121218Y-68499222D01*
X174255905Y-68364535D01*
X174363654Y-68310660D01*
X174471404Y-68310660D01*
X174552216Y-68337598D01*
X174686903Y-68418410D01*
X174767715Y-68499222D01*
X174848528Y-68633909D01*
X174875465Y-68714721D01*
X174875465Y-68822471D01*
X174821590Y-68930220D01*
X174686903Y-69064907D01*
X173286158Y-82088156D02*
X173205346Y-82115094D01*
X173124534Y-82195906D01*
X173070659Y-82303655D01*
X173070659Y-82411405D01*
X173097597Y-82492217D01*
X173178409Y-82626904D01*
X173259221Y-82707716D01*
X173393908Y-82788529D01*
X173474720Y-82815466D01*
X173582470Y-82815466D01*
X173690219Y-82761591D01*
X173744094Y-82707716D01*
X173797969Y-82599967D01*
X173797969Y-82546092D01*
X173609407Y-82357530D01*
X173501658Y-82465280D01*
X174094280Y-82357530D02*
X173528595Y-81791845D01*
X174417529Y-82034281D01*
X173851844Y-81468596D01*
X174686903Y-81764907D02*
X174121218Y-81199222D01*
X174255905Y-81064535D01*
X174363654Y-81010660D01*
X174471404Y-81010660D01*
X174552216Y-81037598D01*
X174686903Y-81118410D01*
X174767715Y-81199222D01*
X174848528Y-81333909D01*
X174875465Y-81414721D01*
X174875465Y-81522471D01*
X174821590Y-81630220D01*
X174686903Y-81764907D01*
X173286158Y-94788156D02*
X173205346Y-94815094D01*
X173124534Y-94895906D01*
X173070659Y-95003655D01*
X173070659Y-95111405D01*
X173097597Y-95192217D01*
X173178409Y-95326904D01*
X173259221Y-95407716D01*
X173393908Y-95488529D01*
X173474720Y-95515466D01*
X173582470Y-95515466D01*
X173690219Y-95461591D01*
X173744094Y-95407716D01*
X173797969Y-95299967D01*
X173797969Y-95246092D01*
X173609407Y-95057530D01*
X173501658Y-95165280D01*
X174094280Y-95057530D02*
X173528595Y-94491845D01*
X174417529Y-94734281D01*
X173851844Y-94168596D01*
X174686903Y-94464907D02*
X174121218Y-93899222D01*
X174255905Y-93764535D01*
X174363654Y-93710660D01*
X174471404Y-93710660D01*
X174552216Y-93737598D01*
X174686903Y-93818410D01*
X174767715Y-93899222D01*
X174848528Y-94033909D01*
X174875465Y-94114721D01*
X174875465Y-94222471D01*
X174821590Y-94330220D01*
X174686903Y-94464907D01*
X173286158Y-107488156D02*
X173205346Y-107515094D01*
X173124534Y-107595906D01*
X173070659Y-107703655D01*
X173070659Y-107811405D01*
X173097597Y-107892217D01*
X173178409Y-108026904D01*
X173259221Y-108107716D01*
X173393908Y-108188529D01*
X173474720Y-108215466D01*
X173582470Y-108215466D01*
X173690219Y-108161591D01*
X173744094Y-108107716D01*
X173797969Y-107999967D01*
X173797969Y-107946092D01*
X173609407Y-107757530D01*
X173501658Y-107865280D01*
X174094280Y-107757530D02*
X173528595Y-107191845D01*
X174417529Y-107434281D01*
X173851844Y-106868596D01*
X174686903Y-107164907D02*
X174121218Y-106599222D01*
X174255905Y-106464535D01*
X174363654Y-106410660D01*
X174471404Y-106410660D01*
X174552216Y-106437598D01*
X174686903Y-106518410D01*
X174767715Y-106599222D01*
X174848528Y-106733909D01*
X174875465Y-106814721D01*
X174875465Y-106922471D01*
X174821590Y-107030220D01*
X174686903Y-107164907D01*
X198886158Y-107488156D02*
X198805346Y-107515094D01*
X198724534Y-107595906D01*
X198670659Y-107703655D01*
X198670659Y-107811405D01*
X198697597Y-107892217D01*
X198778409Y-108026904D01*
X198859221Y-108107716D01*
X198993908Y-108188529D01*
X199074720Y-108215466D01*
X199182470Y-108215466D01*
X199290219Y-108161591D01*
X199344094Y-108107716D01*
X199397969Y-107999967D01*
X199397969Y-107946092D01*
X199209407Y-107757530D01*
X199101658Y-107865280D01*
X199694280Y-107757530D02*
X199128595Y-107191845D01*
X200017529Y-107434281D01*
X199451844Y-106868596D01*
X200286903Y-107164907D02*
X199721218Y-106599222D01*
X199855905Y-106464535D01*
X199963654Y-106410660D01*
X200071404Y-106410660D01*
X200152216Y-106437598D01*
X200286903Y-106518410D01*
X200367715Y-106599222D01*
X200448528Y-106733909D01*
X200475465Y-106814721D01*
X200475465Y-106922471D01*
X200421590Y-107030220D01*
X200286903Y-107164907D01*
X198886158Y-94788156D02*
X198805346Y-94815094D01*
X198724534Y-94895906D01*
X198670659Y-95003655D01*
X198670659Y-95111405D01*
X198697597Y-95192217D01*
X198778409Y-95326904D01*
X198859221Y-95407716D01*
X198993908Y-95488529D01*
X199074720Y-95515466D01*
X199182470Y-95515466D01*
X199290219Y-95461591D01*
X199344094Y-95407716D01*
X199397969Y-95299967D01*
X199397969Y-95246092D01*
X199209407Y-95057530D01*
X199101658Y-95165280D01*
X199694280Y-95057530D02*
X199128595Y-94491845D01*
X200017529Y-94734281D01*
X199451844Y-94168596D01*
X200286903Y-94464907D02*
X199721218Y-93899222D01*
X199855905Y-93764535D01*
X199963654Y-93710660D01*
X200071404Y-93710660D01*
X200152216Y-93737598D01*
X200286903Y-93818410D01*
X200367715Y-93899222D01*
X200448528Y-94033909D01*
X200475465Y-94114721D01*
X200475465Y-94222471D01*
X200421590Y-94330220D01*
X200286903Y-94464907D01*
X198886158Y-69388156D02*
X198805346Y-69415094D01*
X198724534Y-69495906D01*
X198670659Y-69603655D01*
X198670659Y-69711405D01*
X198697597Y-69792217D01*
X198778409Y-69926904D01*
X198859221Y-70007716D01*
X198993908Y-70088529D01*
X199074720Y-70115466D01*
X199182470Y-70115466D01*
X199290219Y-70061591D01*
X199344094Y-70007716D01*
X199397969Y-69899967D01*
X199397969Y-69846092D01*
X199209407Y-69657530D01*
X199101658Y-69765280D01*
X199694280Y-69657530D02*
X199128595Y-69091845D01*
X200017529Y-69334281D01*
X199451844Y-68768596D01*
X200286903Y-69064907D02*
X199721218Y-68499222D01*
X199855905Y-68364535D01*
X199963654Y-68310660D01*
X200071404Y-68310660D01*
X200152216Y-68337598D01*
X200286903Y-68418410D01*
X200367715Y-68499222D01*
X200448528Y-68633909D01*
X200475465Y-68714721D01*
X200475465Y-68822471D01*
X200421590Y-68930220D01*
X200286903Y-69064907D01*
X198951597Y-83030965D02*
X199220971Y-82761591D01*
X199059346Y-83246464D02*
X198682223Y-82492217D01*
X199436470Y-82869341D01*
X199382595Y-81845720D02*
X199301783Y-81872657D01*
X199220971Y-81953469D01*
X199167096Y-82061219D01*
X199167096Y-82168968D01*
X199194033Y-82249781D01*
X199274845Y-82384468D01*
X199355658Y-82465280D01*
X199490345Y-82546092D01*
X199571157Y-82573029D01*
X199678906Y-82573029D01*
X199786656Y-82519155D01*
X199840531Y-82465280D01*
X199894406Y-82357530D01*
X199894406Y-82303655D01*
X199705844Y-82115094D01*
X199598094Y-82222843D01*
X200190717Y-82115094D02*
X199625032Y-81549408D01*
X200513966Y-81791845D01*
X199948280Y-81226159D01*
X200783340Y-81522471D02*
X200217654Y-80956785D01*
X200352341Y-80822098D01*
X200460091Y-80768224D01*
X200567841Y-80768224D01*
X200648653Y-80795161D01*
X200783340Y-80875973D01*
X200864152Y-80956785D01*
X200944964Y-81091472D01*
X200971902Y-81172285D01*
X200971902Y-81280034D01*
X200918027Y-81387784D01*
X200783340Y-81522471D01*
X179290476Y-114813810D02*
X179404761Y-114851905D01*
X179595238Y-114851905D01*
X179671428Y-114813810D01*
X179709523Y-114775715D01*
X179747619Y-114699524D01*
X179747619Y-114623334D01*
X179709523Y-114547143D01*
X179671428Y-114509048D01*
X179595238Y-114470953D01*
X179442857Y-114432858D01*
X179366666Y-114394762D01*
X179328571Y-114356667D01*
X179290476Y-114280477D01*
X179290476Y-114204286D01*
X179328571Y-114128096D01*
X179366666Y-114090001D01*
X179442857Y-114051905D01*
X179633333Y-114051905D01*
X179747619Y-114090001D01*
X180014285Y-114051905D02*
X180204761Y-114851905D01*
X180357142Y-114280477D01*
X180509523Y-114851905D01*
X180700000Y-114051905D01*
X181461904Y-114775715D02*
X181423809Y-114813810D01*
X181309523Y-114851905D01*
X181233333Y-114851905D01*
X181119047Y-114813810D01*
X181042857Y-114737620D01*
X181004761Y-114661429D01*
X180966666Y-114509048D01*
X180966666Y-114394762D01*
X181004761Y-114242381D01*
X181042857Y-114166191D01*
X181119047Y-114090001D01*
X181233333Y-114051905D01*
X181309523Y-114051905D01*
X181423809Y-114090001D01*
X181461904Y-114128096D01*
X182185714Y-114851905D02*
X181804761Y-114851905D01*
X181804761Y-114051905D01*
X182452380Y-114851905D02*
X182452380Y-114051905D01*
X182909523Y-114851905D02*
X182566666Y-114394762D01*
X182909523Y-114051905D02*
X182452380Y-114509048D01*
X190704761Y-114813810D02*
X190819047Y-114851905D01*
X191009523Y-114851905D01*
X191085714Y-114813810D01*
X191123809Y-114775715D01*
X191161904Y-114699524D01*
X191161904Y-114623334D01*
X191123809Y-114547143D01*
X191085714Y-114509048D01*
X191009523Y-114470953D01*
X190857142Y-114432858D01*
X190780952Y-114394762D01*
X190742857Y-114356667D01*
X190704761Y-114280477D01*
X190704761Y-114204286D01*
X190742857Y-114128096D01*
X190780952Y-114090001D01*
X190857142Y-114051905D01*
X191047619Y-114051905D01*
X191161904Y-114090001D01*
X191428571Y-114051905D02*
X191619047Y-114851905D01*
X191771428Y-114280477D01*
X191923809Y-114851905D01*
X192114285Y-114051905D01*
X192419047Y-114851905D02*
X192419047Y-114051905D01*
X192609523Y-114051905D01*
X192723809Y-114090001D01*
X192800000Y-114166191D01*
X192838095Y-114242381D01*
X192876190Y-114394762D01*
X192876190Y-114509048D01*
X192838095Y-114661429D01*
X192800000Y-114737620D01*
X192723809Y-114813810D01*
X192609523Y-114851905D01*
X192419047Y-114851905D01*
X193219047Y-114851905D02*
X193219047Y-114051905D01*
X193752380Y-114051905D02*
X193904761Y-114051905D01*
X193980952Y-114090001D01*
X194057142Y-114166191D01*
X194095238Y-114318572D01*
X194095238Y-114585239D01*
X194057142Y-114737620D01*
X193980952Y-114813810D01*
X193904761Y-114851905D01*
X193752380Y-114851905D01*
X193676190Y-114813810D01*
X193600000Y-114737620D01*
X193561904Y-114585239D01*
X193561904Y-114318572D01*
X193600000Y-114166191D01*
X193676190Y-114090001D01*
X193752380Y-114051905D01*
%TO.C,D1*%
X186254404Y-76448180D02*
X186254404Y-75448180D01*
X186492500Y-75448180D01*
X186635357Y-75495800D01*
X186730595Y-75591038D01*
X186778214Y-75686276D01*
X186825833Y-75876752D01*
X186825833Y-76019609D01*
X186778214Y-76210085D01*
X186730595Y-76305323D01*
X186635357Y-76400561D01*
X186492500Y-76448180D01*
X186254404Y-76448180D01*
X187778214Y-76448180D02*
X187206785Y-76448180D01*
X187492500Y-76448180D02*
X187492500Y-75448180D01*
X187397261Y-75591038D01*
X187302023Y-75686276D01*
X187206785Y-75733895D01*
%TO.C,D2*%
X186279804Y-78988180D02*
X186279804Y-77988180D01*
X186517900Y-77988180D01*
X186660757Y-78035800D01*
X186755995Y-78131038D01*
X186803614Y-78226276D01*
X186851233Y-78416752D01*
X186851233Y-78559609D01*
X186803614Y-78750085D01*
X186755995Y-78845323D01*
X186660757Y-78940561D01*
X186517900Y-78988180D01*
X186279804Y-78988180D01*
X187232185Y-78083419D02*
X187279804Y-78035800D01*
X187375042Y-77988180D01*
X187613138Y-77988180D01*
X187708376Y-78035800D01*
X187755995Y-78083419D01*
X187803614Y-78178657D01*
X187803614Y-78273895D01*
X187755995Y-78416752D01*
X187184566Y-78988180D01*
X187803614Y-78988180D01*
%TO.C,D3*%
X186284404Y-81528180D02*
X186284404Y-80528180D01*
X186522500Y-80528180D01*
X186665357Y-80575800D01*
X186760595Y-80671038D01*
X186808214Y-80766276D01*
X186855833Y-80956752D01*
X186855833Y-81099609D01*
X186808214Y-81290085D01*
X186760595Y-81385323D01*
X186665357Y-81480561D01*
X186522500Y-81528180D01*
X186284404Y-81528180D01*
X187189166Y-80528180D02*
X187808214Y-80528180D01*
X187474880Y-80909133D01*
X187617738Y-80909133D01*
X187712976Y-80956752D01*
X187760595Y-81004371D01*
X187808214Y-81099609D01*
X187808214Y-81337704D01*
X187760595Y-81432942D01*
X187712976Y-81480561D01*
X187617738Y-81528180D01*
X187332023Y-81528180D01*
X187236785Y-81480561D01*
X187189166Y-81432942D01*
%TO.C,D4*%
X186279804Y-84068180D02*
X186279804Y-83068180D01*
X186517900Y-83068180D01*
X186660757Y-83115800D01*
X186755995Y-83211038D01*
X186803614Y-83306276D01*
X186851233Y-83496752D01*
X186851233Y-83639609D01*
X186803614Y-83830085D01*
X186755995Y-83925323D01*
X186660757Y-84020561D01*
X186517900Y-84068180D01*
X186279804Y-84068180D01*
X187708376Y-83401514D02*
X187708376Y-84068180D01*
X187470280Y-83020561D02*
X187232185Y-83734847D01*
X187851233Y-83734847D01*
%TO.C,D5*%
X186282104Y-86608180D02*
X186282104Y-85608180D01*
X186520200Y-85608180D01*
X186663057Y-85655800D01*
X186758295Y-85751038D01*
X186805914Y-85846276D01*
X186853533Y-86036752D01*
X186853533Y-86179609D01*
X186805914Y-86370085D01*
X186758295Y-86465323D01*
X186663057Y-86560561D01*
X186520200Y-86608180D01*
X186282104Y-86608180D01*
X187758295Y-85608180D02*
X187282104Y-85608180D01*
X187234485Y-86084371D01*
X187282104Y-86036752D01*
X187377342Y-85989133D01*
X187615438Y-85989133D01*
X187710676Y-86036752D01*
X187758295Y-86084371D01*
X187805914Y-86179609D01*
X187805914Y-86417704D01*
X187758295Y-86512942D01*
X187710676Y-86560561D01*
X187615438Y-86608180D01*
X187377342Y-86608180D01*
X187282104Y-86560561D01*
X187234485Y-86512942D01*
%TO.C,SW1*%
X195012961Y-95820133D02*
X195060580Y-95677276D01*
X195060580Y-95439180D01*
X195012961Y-95343942D01*
X194965342Y-95296323D01*
X194870104Y-95248704D01*
X194774866Y-95248704D01*
X194679628Y-95296323D01*
X194632009Y-95343942D01*
X194584390Y-95439180D01*
X194536771Y-95629657D01*
X194489152Y-95724895D01*
X194441533Y-95772514D01*
X194346295Y-95820133D01*
X194251057Y-95820133D01*
X194155819Y-95772514D01*
X194108200Y-95724895D01*
X194060580Y-95629657D01*
X194060580Y-95391561D01*
X194108200Y-95248704D01*
X194060580Y-94915371D02*
X195060580Y-94677276D01*
X194346295Y-94486800D01*
X195060580Y-94296323D01*
X194060580Y-94058228D01*
X195060580Y-93153466D02*
X195060580Y-93724895D01*
X195060580Y-93439180D02*
X194060580Y-93439180D01*
X194203438Y-93534419D01*
X194298676Y-93629657D01*
X194346295Y-93724895D01*
%TO.C,SW2*%
X180017161Y-95846733D02*
X180064780Y-95703876D01*
X180064780Y-95465780D01*
X180017161Y-95370542D01*
X179969542Y-95322923D01*
X179874304Y-95275304D01*
X179779066Y-95275304D01*
X179683828Y-95322923D01*
X179636209Y-95370542D01*
X179588590Y-95465780D01*
X179540971Y-95656257D01*
X179493352Y-95751495D01*
X179445733Y-95799114D01*
X179350495Y-95846733D01*
X179255257Y-95846733D01*
X179160019Y-95799114D01*
X179112400Y-95751495D01*
X179064780Y-95656257D01*
X179064780Y-95418161D01*
X179112400Y-95275304D01*
X179064780Y-94941971D02*
X180064780Y-94703876D01*
X179350495Y-94513400D01*
X180064780Y-94322923D01*
X179064780Y-94084828D01*
X179160019Y-93751495D02*
X179112400Y-93703876D01*
X179064780Y-93608638D01*
X179064780Y-93370542D01*
X179112400Y-93275304D01*
X179160019Y-93227685D01*
X179255257Y-93180066D01*
X179350495Y-93180066D01*
X179493352Y-93227685D01*
X180064780Y-93799114D01*
X180064780Y-93180066D01*
%TO.C,R1*%
X182076433Y-73148180D02*
X181743100Y-72671990D01*
X181505004Y-73148180D02*
X181505004Y-72148180D01*
X181885957Y-72148180D01*
X181981195Y-72195800D01*
X182028814Y-72243419D01*
X182076433Y-72338657D01*
X182076433Y-72481514D01*
X182028814Y-72576752D01*
X181981195Y-72624371D01*
X181885957Y-72671990D01*
X181505004Y-72671990D01*
X183028814Y-73148180D02*
X182457385Y-73148180D01*
X182743100Y-73148180D02*
X182743100Y-72148180D01*
X182647861Y-72291038D01*
X182552623Y-72386276D01*
X182457385Y-72433895D01*
%TO.C,R2*%
X182076433Y-75688180D02*
X181743100Y-75211990D01*
X181505004Y-75688180D02*
X181505004Y-74688180D01*
X181885957Y-74688180D01*
X181981195Y-74735800D01*
X182028814Y-74783419D01*
X182076433Y-74878657D01*
X182076433Y-75021514D01*
X182028814Y-75116752D01*
X181981195Y-75164371D01*
X181885957Y-75211990D01*
X181505004Y-75211990D01*
X182457385Y-74783419D02*
X182505004Y-74735800D01*
X182600242Y-74688180D01*
X182838338Y-74688180D01*
X182933576Y-74735800D01*
X182981195Y-74783419D01*
X183028814Y-74878657D01*
X183028814Y-74973895D01*
X182981195Y-75116752D01*
X182409766Y-75688180D01*
X183028814Y-75688180D01*
%TO.C,R3*%
X182076433Y-78228180D02*
X181743100Y-77751990D01*
X181505004Y-78228180D02*
X181505004Y-77228180D01*
X181885957Y-77228180D01*
X181981195Y-77275800D01*
X182028814Y-77323419D01*
X182076433Y-77418657D01*
X182076433Y-77561514D01*
X182028814Y-77656752D01*
X181981195Y-77704371D01*
X181885957Y-77751990D01*
X181505004Y-77751990D01*
X182409766Y-77228180D02*
X183028814Y-77228180D01*
X182695480Y-77609133D01*
X182838338Y-77609133D01*
X182933576Y-77656752D01*
X182981195Y-77704371D01*
X183028814Y-77799609D01*
X183028814Y-78037704D01*
X182981195Y-78132942D01*
X182933576Y-78180561D01*
X182838338Y-78228180D01*
X182552623Y-78228180D01*
X182457385Y-78180561D01*
X182409766Y-78132942D01*
%TO.C,R4*%
X182051033Y-80768180D02*
X181717700Y-80291990D01*
X181479604Y-80768180D02*
X181479604Y-79768180D01*
X181860557Y-79768180D01*
X181955795Y-79815800D01*
X182003414Y-79863419D01*
X182051033Y-79958657D01*
X182051033Y-80101514D01*
X182003414Y-80196752D01*
X181955795Y-80244371D01*
X181860557Y-80291990D01*
X181479604Y-80291990D01*
X182908176Y-80101514D02*
X182908176Y-80768180D01*
X182670080Y-79720561D02*
X182431985Y-80434847D01*
X183051033Y-80434847D01*
%TO.C,R5*%
X182076433Y-83308180D02*
X181743100Y-82831990D01*
X181505004Y-83308180D02*
X181505004Y-82308180D01*
X181885957Y-82308180D01*
X181981195Y-82355800D01*
X182028814Y-82403419D01*
X182076433Y-82498657D01*
X182076433Y-82641514D01*
X182028814Y-82736752D01*
X181981195Y-82784371D01*
X181885957Y-82831990D01*
X181505004Y-82831990D01*
X182981195Y-82308180D02*
X182505004Y-82308180D01*
X182457385Y-82784371D01*
X182505004Y-82736752D01*
X182600242Y-82689133D01*
X182838338Y-82689133D01*
X182933576Y-82736752D01*
X182981195Y-82784371D01*
X183028814Y-82879609D01*
X183028814Y-83117704D01*
X182981195Y-83212942D01*
X182933576Y-83260561D01*
X182838338Y-83308180D01*
X182600242Y-83308180D01*
X182505004Y-83260561D01*
X182457385Y-83212942D01*
%TO.C,R6*%
X190280633Y-90011780D02*
X189947300Y-89535590D01*
X189709204Y-90011780D02*
X189709204Y-89011780D01*
X190090157Y-89011780D01*
X190185395Y-89059400D01*
X190233014Y-89107019D01*
X190280633Y-89202257D01*
X190280633Y-89345114D01*
X190233014Y-89440352D01*
X190185395Y-89487971D01*
X190090157Y-89535590D01*
X189709204Y-89535590D01*
X191137776Y-89011780D02*
X190947300Y-89011780D01*
X190852061Y-89059400D01*
X190804442Y-89107019D01*
X190709204Y-89249876D01*
X190661585Y-89440352D01*
X190661585Y-89821304D01*
X190709204Y-89916542D01*
X190756823Y-89964161D01*
X190852061Y-90011780D01*
X191042538Y-90011780D01*
X191137776Y-89964161D01*
X191185395Y-89916542D01*
X191233014Y-89821304D01*
X191233014Y-89583209D01*
X191185395Y-89487971D01*
X191137776Y-89440352D01*
X191042538Y-89392733D01*
X190852061Y-89392733D01*
X190756823Y-89440352D01*
X190709204Y-89487971D01*
X190661585Y-89583209D01*
%TO.C,R7*%
X182588233Y-90011780D02*
X182254900Y-89535590D01*
X182016804Y-90011780D02*
X182016804Y-89011780D01*
X182397757Y-89011780D01*
X182492995Y-89059400D01*
X182540614Y-89107019D01*
X182588233Y-89202257D01*
X182588233Y-89345114D01*
X182540614Y-89440352D01*
X182492995Y-89487971D01*
X182397757Y-89535590D01*
X182016804Y-89535590D01*
X182921566Y-89011780D02*
X183588233Y-89011780D01*
X183159661Y-90011780D01*
%TO.C,J1*%
X192249466Y-86067780D02*
X192249466Y-86782066D01*
X192201847Y-86924923D01*
X192106609Y-87020161D01*
X191963752Y-87067780D01*
X191868514Y-87067780D01*
X193249466Y-87067780D02*
X192678038Y-87067780D01*
X192963752Y-87067780D02*
X192963752Y-86067780D01*
X192868514Y-86210638D01*
X192773276Y-86305876D01*
X192678038Y-86353495D01*
%TD*%
M02*
