%TF.GenerationSoftware,KiCad,Pcbnew,(5.1.9)-1*%
%TF.CreationDate,2021-04-21T20:58:21+02:00*%
%TF.ProjectId,Air-Quality,4169722d-5175-4616-9c69-74792e6b6963,rev?*%
%TF.SameCoordinates,Original*%
%TF.FileFunction,Paste,Top*%
%TF.FilePolarity,Positive*%
%FSLAX46Y46*%
G04 Gerber Fmt 4.6, Leading zero omitted, Abs format (unit mm)*
G04 Created by KiCad (PCBNEW (5.1.9)-1) date 2021-04-21 20:58:21*
%MOMM*%
%LPD*%
G01*
G04 APERTURE LIST*
%ADD10R,2.000000X2.000000*%
G04 APERTURE END LIST*
D10*
%TO.C,BZ1*%
X183119000Y-101813600D03*
X183119000Y-108813600D03*
X190119000Y-108813600D03*
X190119000Y-101813600D03*
%TD*%
%TO.C,D1*%
G36*
G01*
X186542500Y-73889550D02*
X186542500Y-74802050D01*
G75*
G02*
X186298750Y-75045800I-243750J0D01*
G01*
X185811250Y-75045800D01*
G75*
G02*
X185567500Y-74802050I0J243750D01*
G01*
X185567500Y-73889550D01*
G75*
G02*
X185811250Y-73645800I243750J0D01*
G01*
X186298750Y-73645800D01*
G75*
G02*
X186542500Y-73889550I0J-243750D01*
G01*
G37*
G36*
G01*
X188417500Y-73889550D02*
X188417500Y-74802050D01*
G75*
G02*
X188173750Y-75045800I-243750J0D01*
G01*
X187686250Y-75045800D01*
G75*
G02*
X187442500Y-74802050I0J243750D01*
G01*
X187442500Y-73889550D01*
G75*
G02*
X187686250Y-73645800I243750J0D01*
G01*
X188173750Y-73645800D01*
G75*
G02*
X188417500Y-73889550I0J-243750D01*
G01*
G37*
%TD*%
%TO.C,D2*%
G36*
G01*
X188442900Y-76429550D02*
X188442900Y-77342050D01*
G75*
G02*
X188199150Y-77585800I-243750J0D01*
G01*
X187711650Y-77585800D01*
G75*
G02*
X187467900Y-77342050I0J243750D01*
G01*
X187467900Y-76429550D01*
G75*
G02*
X187711650Y-76185800I243750J0D01*
G01*
X188199150Y-76185800D01*
G75*
G02*
X188442900Y-76429550I0J-243750D01*
G01*
G37*
G36*
G01*
X186567900Y-76429550D02*
X186567900Y-77342050D01*
G75*
G02*
X186324150Y-77585800I-243750J0D01*
G01*
X185836650Y-77585800D01*
G75*
G02*
X185592900Y-77342050I0J243750D01*
G01*
X185592900Y-76429550D01*
G75*
G02*
X185836650Y-76185800I243750J0D01*
G01*
X186324150Y-76185800D01*
G75*
G02*
X186567900Y-76429550I0J-243750D01*
G01*
G37*
%TD*%
%TO.C,D3*%
G36*
G01*
X186572500Y-78969550D02*
X186572500Y-79882050D01*
G75*
G02*
X186328750Y-80125800I-243750J0D01*
G01*
X185841250Y-80125800D01*
G75*
G02*
X185597500Y-79882050I0J243750D01*
G01*
X185597500Y-78969550D01*
G75*
G02*
X185841250Y-78725800I243750J0D01*
G01*
X186328750Y-78725800D01*
G75*
G02*
X186572500Y-78969550I0J-243750D01*
G01*
G37*
G36*
G01*
X188447500Y-78969550D02*
X188447500Y-79882050D01*
G75*
G02*
X188203750Y-80125800I-243750J0D01*
G01*
X187716250Y-80125800D01*
G75*
G02*
X187472500Y-79882050I0J243750D01*
G01*
X187472500Y-78969550D01*
G75*
G02*
X187716250Y-78725800I243750J0D01*
G01*
X188203750Y-78725800D01*
G75*
G02*
X188447500Y-78969550I0J-243750D01*
G01*
G37*
%TD*%
%TO.C,D4*%
G36*
G01*
X188442900Y-81509550D02*
X188442900Y-82422050D01*
G75*
G02*
X188199150Y-82665800I-243750J0D01*
G01*
X187711650Y-82665800D01*
G75*
G02*
X187467900Y-82422050I0J243750D01*
G01*
X187467900Y-81509550D01*
G75*
G02*
X187711650Y-81265800I243750J0D01*
G01*
X188199150Y-81265800D01*
G75*
G02*
X188442900Y-81509550I0J-243750D01*
G01*
G37*
G36*
G01*
X186567900Y-81509550D02*
X186567900Y-82422050D01*
G75*
G02*
X186324150Y-82665800I-243750J0D01*
G01*
X185836650Y-82665800D01*
G75*
G02*
X185592900Y-82422050I0J243750D01*
G01*
X185592900Y-81509550D01*
G75*
G02*
X185836650Y-81265800I243750J0D01*
G01*
X186324150Y-81265800D01*
G75*
G02*
X186567900Y-81509550I0J-243750D01*
G01*
G37*
%TD*%
%TO.C,D5*%
G36*
G01*
X188445200Y-84049550D02*
X188445200Y-84962050D01*
G75*
G02*
X188201450Y-85205800I-243750J0D01*
G01*
X187713950Y-85205800D01*
G75*
G02*
X187470200Y-84962050I0J243750D01*
G01*
X187470200Y-84049550D01*
G75*
G02*
X187713950Y-83805800I243750J0D01*
G01*
X188201450Y-83805800D01*
G75*
G02*
X188445200Y-84049550I0J-243750D01*
G01*
G37*
G36*
G01*
X186570200Y-84049550D02*
X186570200Y-84962050D01*
G75*
G02*
X186326450Y-85205800I-243750J0D01*
G01*
X185838950Y-85205800D01*
G75*
G02*
X185595200Y-84962050I0J243750D01*
G01*
X185595200Y-84049550D01*
G75*
G02*
X185838950Y-83805800I243750J0D01*
G01*
X186326450Y-83805800D01*
G75*
G02*
X186570200Y-84049550I0J-243750D01*
G01*
G37*
%TD*%
%TO.C,R1*%
G36*
G01*
X180818100Y-74795801D02*
X180818100Y-73895799D01*
G75*
G02*
X181068099Y-73645800I249999J0D01*
G01*
X181593101Y-73645800D01*
G75*
G02*
X181843100Y-73895799I0J-249999D01*
G01*
X181843100Y-74795801D01*
G75*
G02*
X181593101Y-75045800I-249999J0D01*
G01*
X181068099Y-75045800D01*
G75*
G02*
X180818100Y-74795801I0J249999D01*
G01*
G37*
G36*
G01*
X182643100Y-74795801D02*
X182643100Y-73895799D01*
G75*
G02*
X182893099Y-73645800I249999J0D01*
G01*
X183418101Y-73645800D01*
G75*
G02*
X183668100Y-73895799I0J-249999D01*
G01*
X183668100Y-74795801D01*
G75*
G02*
X183418101Y-75045800I-249999J0D01*
G01*
X182893099Y-75045800D01*
G75*
G02*
X182643100Y-74795801I0J249999D01*
G01*
G37*
%TD*%
%TO.C,R2*%
G36*
G01*
X182643100Y-77335801D02*
X182643100Y-76435799D01*
G75*
G02*
X182893099Y-76185800I249999J0D01*
G01*
X183418101Y-76185800D01*
G75*
G02*
X183668100Y-76435799I0J-249999D01*
G01*
X183668100Y-77335801D01*
G75*
G02*
X183418101Y-77585800I-249999J0D01*
G01*
X182893099Y-77585800D01*
G75*
G02*
X182643100Y-77335801I0J249999D01*
G01*
G37*
G36*
G01*
X180818100Y-77335801D02*
X180818100Y-76435799D01*
G75*
G02*
X181068099Y-76185800I249999J0D01*
G01*
X181593101Y-76185800D01*
G75*
G02*
X181843100Y-76435799I0J-249999D01*
G01*
X181843100Y-77335801D01*
G75*
G02*
X181593101Y-77585800I-249999J0D01*
G01*
X181068099Y-77585800D01*
G75*
G02*
X180818100Y-77335801I0J249999D01*
G01*
G37*
%TD*%
%TO.C,R3*%
G36*
G01*
X180818100Y-79875801D02*
X180818100Y-78975799D01*
G75*
G02*
X181068099Y-78725800I249999J0D01*
G01*
X181593101Y-78725800D01*
G75*
G02*
X181843100Y-78975799I0J-249999D01*
G01*
X181843100Y-79875801D01*
G75*
G02*
X181593101Y-80125800I-249999J0D01*
G01*
X181068099Y-80125800D01*
G75*
G02*
X180818100Y-79875801I0J249999D01*
G01*
G37*
G36*
G01*
X182643100Y-79875801D02*
X182643100Y-78975799D01*
G75*
G02*
X182893099Y-78725800I249999J0D01*
G01*
X183418101Y-78725800D01*
G75*
G02*
X183668100Y-78975799I0J-249999D01*
G01*
X183668100Y-79875801D01*
G75*
G02*
X183418101Y-80125800I-249999J0D01*
G01*
X182893099Y-80125800D01*
G75*
G02*
X182643100Y-79875801I0J249999D01*
G01*
G37*
%TD*%
%TO.C,R4*%
G36*
G01*
X182617700Y-82415801D02*
X182617700Y-81515799D01*
G75*
G02*
X182867699Y-81265800I249999J0D01*
G01*
X183392701Y-81265800D01*
G75*
G02*
X183642700Y-81515799I0J-249999D01*
G01*
X183642700Y-82415801D01*
G75*
G02*
X183392701Y-82665800I-249999J0D01*
G01*
X182867699Y-82665800D01*
G75*
G02*
X182617700Y-82415801I0J249999D01*
G01*
G37*
G36*
G01*
X180792700Y-82415801D02*
X180792700Y-81515799D01*
G75*
G02*
X181042699Y-81265800I249999J0D01*
G01*
X181567701Y-81265800D01*
G75*
G02*
X181817700Y-81515799I0J-249999D01*
G01*
X181817700Y-82415801D01*
G75*
G02*
X181567701Y-82665800I-249999J0D01*
G01*
X181042699Y-82665800D01*
G75*
G02*
X180792700Y-82415801I0J249999D01*
G01*
G37*
%TD*%
%TO.C,R5*%
G36*
G01*
X182643100Y-84955801D02*
X182643100Y-84055799D01*
G75*
G02*
X182893099Y-83805800I249999J0D01*
G01*
X183418101Y-83805800D01*
G75*
G02*
X183668100Y-84055799I0J-249999D01*
G01*
X183668100Y-84955801D01*
G75*
G02*
X183418101Y-85205800I-249999J0D01*
G01*
X182893099Y-85205800D01*
G75*
G02*
X182643100Y-84955801I0J249999D01*
G01*
G37*
G36*
G01*
X180818100Y-84955801D02*
X180818100Y-84055799D01*
G75*
G02*
X181068099Y-83805800I249999J0D01*
G01*
X181593101Y-83805800D01*
G75*
G02*
X181843100Y-84055799I0J-249999D01*
G01*
X181843100Y-84955801D01*
G75*
G02*
X181593101Y-85205800I-249999J0D01*
G01*
X181068099Y-85205800D01*
G75*
G02*
X180818100Y-84955801I0J249999D01*
G01*
G37*
%TD*%
%TO.C,R6*%
G36*
G01*
X191872300Y-87459399D02*
X191872300Y-88359401D01*
G75*
G02*
X191622301Y-88609400I-249999J0D01*
G01*
X191097299Y-88609400D01*
G75*
G02*
X190847300Y-88359401I0J249999D01*
G01*
X190847300Y-87459399D01*
G75*
G02*
X191097299Y-87209400I249999J0D01*
G01*
X191622301Y-87209400D01*
G75*
G02*
X191872300Y-87459399I0J-249999D01*
G01*
G37*
G36*
G01*
X190047300Y-87459399D02*
X190047300Y-88359401D01*
G75*
G02*
X189797301Y-88609400I-249999J0D01*
G01*
X189272299Y-88609400D01*
G75*
G02*
X189022300Y-88359401I0J249999D01*
G01*
X189022300Y-87459399D01*
G75*
G02*
X189272299Y-87209400I249999J0D01*
G01*
X189797301Y-87209400D01*
G75*
G02*
X190047300Y-87459399I0J-249999D01*
G01*
G37*
%TD*%
%TO.C,R7*%
G36*
G01*
X184179900Y-87459399D02*
X184179900Y-88359401D01*
G75*
G02*
X183929901Y-88609400I-249999J0D01*
G01*
X183404899Y-88609400D01*
G75*
G02*
X183154900Y-88359401I0J249999D01*
G01*
X183154900Y-87459399D01*
G75*
G02*
X183404899Y-87209400I249999J0D01*
G01*
X183929901Y-87209400D01*
G75*
G02*
X184179900Y-87459399I0J-249999D01*
G01*
G37*
G36*
G01*
X182354900Y-87459399D02*
X182354900Y-88359401D01*
G75*
G02*
X182104901Y-88609400I-249999J0D01*
G01*
X181579899Y-88609400D01*
G75*
G02*
X181329900Y-88359401I0J249999D01*
G01*
X181329900Y-87459399D01*
G75*
G02*
X181579899Y-87209400I249999J0D01*
G01*
X182104901Y-87209400D01*
G75*
G02*
X182354900Y-87459399I0J-249999D01*
G01*
G37*
%TD*%
M02*
