%TF.GenerationSoftware,KiCad,Pcbnew,(5.1.9)-1*%
%TF.CreationDate,2021-06-20T17:52:24+02:00*%
%TF.ProjectId,Air-Quality,4169722d-5175-4616-9c69-74792e6b6963,rev?*%
%TF.SameCoordinates,Original*%
%TF.FileFunction,Copper,L1,Top*%
%TF.FilePolarity,Positive*%
%FSLAX46Y46*%
G04 Gerber Fmt 4.6, Leading zero omitted, Abs format (unit mm)*
G04 Created by KiCad (PCBNEW (5.1.9)-1) date 2021-06-20 17:52:24*
%MOMM*%
%LPD*%
G01*
G04 APERTURE LIST*
%TA.AperFunction,ComponentPad*%
%ADD10R,1.600000X1.600000*%
%TD*%
%TA.AperFunction,ComponentPad*%
%ADD11O,1.600000X1.600000*%
%TD*%
%TA.AperFunction,SMDPad,CuDef*%
%ADD12C,1.143000*%
%TD*%
%TA.AperFunction,SMDPad,CuDef*%
%ADD13O,2.032000X1.016000*%
%TD*%
%TA.AperFunction,SMDPad,CuDef*%
%ADD14O,1.998980X2.748280*%
%TD*%
%TA.AperFunction,SMDPad,CuDef*%
%ADD15R,2.000000X2.000000*%
%TD*%
%TA.AperFunction,ComponentPad*%
%ADD16R,1.700000X1.700000*%
%TD*%
%TA.AperFunction,ComponentPad*%
%ADD17O,1.700000X1.700000*%
%TD*%
%TA.AperFunction,Conductor*%
%ADD18C,0.250000*%
%TD*%
%TA.AperFunction,Conductor*%
%ADD19C,0.254000*%
%TD*%
%TA.AperFunction,Conductor*%
%ADD20C,0.100000*%
%TD*%
G04 APERTURE END LIST*
D10*
%TO.P,SW2,1*%
%TO.N,Net-(BZ1-Pad1)*%
X158153100Y-49949100D03*
D11*
%TO.P,SW2,2*%
%TO.N,Net-(R7-Pad2)*%
X158153100Y-42329100D03*
%TD*%
D12*
%TO.P,U1,20*%
%TO.N,GND*%
X117365213Y-45285597D03*
%TO.P,U1,19*%
%TO.N,Net-(U1-Pad19)*%
X117365213Y-47825597D03*
%TO.P,U1,18*%
%TO.N,Net-(U1-Pad18)*%
X114825213Y-45285597D03*
%TO.P,U1,17*%
%TO.N,Net-(U1-Pad17)*%
X114825213Y-47825597D03*
D13*
%TO.P,U1,16*%
%TO.N,GND*%
X131829400Y-45274400D03*
%TO.P,U1,15*%
%TO.N,Net-(U1-Pad15)*%
X131829400Y-47824400D03*
D14*
%TO.P,U1,1*%
%TO.N,Net-(R7-Pad1)*%
X115511580Y-54691280D03*
%TO.P,U1,2*%
%TO.N,Net-(U1-Pad2)*%
X118051580Y-54691280D03*
%TO.P,U1,3*%
%TO.N,Net-(U1-Pad3)*%
X120591580Y-54691280D03*
%TO.P,U1,4*%
%TO.N,Net-(U1-Pad4)*%
X123131580Y-54691280D03*
%TO.P,U1,5*%
%TO.N,/SDA*%
X125671580Y-54691280D03*
%TO.P,U1,6*%
%TO.N,/SCL*%
X128211580Y-54691280D03*
%TO.P,U1,7*%
%TO.N,Net-(U1-Pad7)*%
X130751580Y-54691280D03*
%TO.P,U1,8*%
%TO.N,Net-(U1-Pad8)*%
X130751580Y-38526720D03*
%TO.P,U1,9*%
%TO.N,Net-(U1-Pad9)*%
X128211580Y-38526720D03*
%TO.P,U1,10*%
%TO.N,Net-(U1-Pad10)*%
X125671580Y-38526720D03*
%TO.P,U1,11*%
%TO.N,Net-(U1-Pad11)*%
X123131580Y-38526720D03*
%TO.P,U1,12*%
%TO.N,+3V3*%
X120591580Y-38526720D03*
%TO.P,U1,13*%
%TO.N,GND*%
X118051580Y-38526720D03*
%TO.P,U1,14*%
%TO.N,Net-(U1-Pad14)*%
X115511580Y-38526720D03*
%TD*%
D15*
%TO.P,BZ1,4*%
%TO.N,N/C*%
X148572100Y-56954300D03*
%TO.P,BZ1,3*%
X141572100Y-56954300D03*
%TO.P,BZ1,2*%
%TO.N,GND*%
X141572100Y-49954300D03*
%TO.P,BZ1,1*%
%TO.N,Net-(BZ1-Pad1)*%
X148572100Y-49954300D03*
%TD*%
D16*
%TO.P,J1,1*%
%TO.N,GND*%
X137325100Y-38633400D03*
D17*
%TO.P,J1,2*%
%TO.N,Net-(J1-Pad2)*%
X139865100Y-38633400D03*
%TO.P,J1,3*%
%TO.N,+3V3*%
X142405100Y-38633400D03*
%TO.P,J1,4*%
%TO.N,/SCL*%
X144945100Y-38633400D03*
%TO.P,J1,5*%
%TO.N,/SDA*%
X147485100Y-38633400D03*
%TO.P,J1,6*%
%TO.N,Net-(J1-Pad6)*%
X150025100Y-38633400D03*
%TO.P,J1,7*%
%TO.N,Net-(J1-Pad7)*%
X152565100Y-38633400D03*
%TD*%
%TO.P,R7,1*%
%TO.N,Net-(R7-Pad1)*%
%TA.AperFunction,SMDPad,CuDef*%
G36*
G01*
X150505100Y-42804501D02*
X150505100Y-41904499D01*
G75*
G02*
X150755099Y-41654500I249999J0D01*
G01*
X151280101Y-41654500D01*
G75*
G02*
X151530100Y-41904499I0J-249999D01*
G01*
X151530100Y-42804501D01*
G75*
G02*
X151280101Y-43054500I-249999J0D01*
G01*
X150755099Y-43054500D01*
G75*
G02*
X150505100Y-42804501I0J249999D01*
G01*
G37*
%TD.AperFunction*%
%TO.P,R7,2*%
%TO.N,Net-(R7-Pad2)*%
%TA.AperFunction,SMDPad,CuDef*%
G36*
G01*
X152330100Y-42804501D02*
X152330100Y-41904499D01*
G75*
G02*
X152580099Y-41654500I249999J0D01*
G01*
X153105101Y-41654500D01*
G75*
G02*
X153355100Y-41904499I0J-249999D01*
G01*
X153355100Y-42804501D01*
G75*
G02*
X153105101Y-43054500I-249999J0D01*
G01*
X152580099Y-43054500D01*
G75*
G02*
X152330100Y-42804501I0J249999D01*
G01*
G37*
%TD.AperFunction*%
%TD*%
D18*
%TO.N,Net-(BZ1-Pad1)*%
X158147900Y-49954300D02*
X158153100Y-49949100D01*
X148572100Y-49954300D02*
X158147900Y-49954300D01*
%TO.N,GND*%
X118051580Y-38526720D02*
X118051580Y-37434520D01*
X118051580Y-37434520D02*
X119735600Y-35750500D01*
X134442200Y-35750500D02*
X137325100Y-38633400D01*
X119735600Y-35750500D02*
X134442200Y-35750500D01*
%TO.N,+3V3*%
X120591580Y-38526720D02*
X120591580Y-39857680D01*
X120591580Y-39857680D02*
X122135900Y-41402000D01*
X139636500Y-41402000D02*
X142405100Y-38633400D01*
X122135900Y-41402000D02*
X139636500Y-41402000D01*
%TO.N,/SCL*%
X143094459Y-39808401D02*
X128211580Y-54691280D01*
X143770099Y-39808401D02*
X143094459Y-39808401D01*
X144945100Y-38633400D02*
X143770099Y-39808401D01*
%TO.N,/SDA*%
X131300205Y-56390430D02*
X134886700Y-52803935D01*
X127370730Y-56390430D02*
X131300205Y-56390430D01*
X125671580Y-54691280D02*
X127370730Y-56390430D01*
X134886700Y-52803935D02*
X134886700Y-49771300D01*
X134886700Y-49771300D02*
X143713200Y-40944800D01*
X145173700Y-40944800D02*
X147485100Y-38633400D01*
X143713200Y-40944800D02*
X145173700Y-40944800D01*
%TO.N,Net-(R7-Pad1)*%
X115511580Y-54691280D02*
X118681500Y-57861200D01*
X118681500Y-57861200D02*
X132257800Y-57861200D01*
X132257800Y-57861200D02*
X136486900Y-53632100D01*
X136486900Y-53632100D02*
X136486900Y-50139600D01*
X144272000Y-42354500D02*
X151017600Y-42354500D01*
X136486900Y-50139600D02*
X144272000Y-42354500D01*
%TO.N,Net-(R7-Pad2)*%
X158127700Y-42354500D02*
X158153100Y-42329100D01*
X152842600Y-42354500D02*
X158127700Y-42354500D01*
%TD*%
D19*
%TO.N,GND*%
X160376000Y-62624100D02*
X113220100Y-62624100D01*
X113220100Y-60053295D01*
X114562900Y-60053295D01*
X114562900Y-60444305D01*
X114639182Y-60827803D01*
X114788815Y-61189050D01*
X115006049Y-61514164D01*
X115282536Y-61790651D01*
X115607650Y-62007885D01*
X115968897Y-62157518D01*
X116352395Y-62233800D01*
X116743405Y-62233800D01*
X117126903Y-62157518D01*
X117488150Y-62007885D01*
X117813264Y-61790651D01*
X118089751Y-61514164D01*
X118306985Y-61189050D01*
X118456618Y-60827803D01*
X118532900Y-60444305D01*
X118532900Y-60053295D01*
X118505113Y-59913595D01*
X155710900Y-59913595D01*
X155710900Y-60304605D01*
X155787182Y-60688103D01*
X155936815Y-61049350D01*
X156154049Y-61374464D01*
X156430536Y-61650951D01*
X156755650Y-61868185D01*
X157116897Y-62017818D01*
X157500395Y-62094100D01*
X157891405Y-62094100D01*
X158274903Y-62017818D01*
X158636150Y-61868185D01*
X158961264Y-61650951D01*
X159237751Y-61374464D01*
X159454985Y-61049350D01*
X159604618Y-60688103D01*
X159680900Y-60304605D01*
X159680900Y-59913595D01*
X159604618Y-59530097D01*
X159454985Y-59168850D01*
X159237751Y-58843736D01*
X158961264Y-58567249D01*
X158636150Y-58350015D01*
X158274903Y-58200382D01*
X157891405Y-58124100D01*
X157500395Y-58124100D01*
X157116897Y-58200382D01*
X156755650Y-58350015D01*
X156430536Y-58567249D01*
X156154049Y-58843736D01*
X155936815Y-59168850D01*
X155787182Y-59530097D01*
X155710900Y-59913595D01*
X118505113Y-59913595D01*
X118456618Y-59669797D01*
X118306985Y-59308550D01*
X118089751Y-58983436D01*
X117813264Y-58706949D01*
X117488150Y-58489715D01*
X117126903Y-58340082D01*
X116743405Y-58263800D01*
X116352395Y-58263800D01*
X115968897Y-58340082D01*
X115607650Y-58489715D01*
X115282536Y-58706949D01*
X115006049Y-58983436D01*
X114788815Y-59308550D01*
X114639182Y-59669797D01*
X114562900Y-60053295D01*
X113220100Y-60053295D01*
X113220100Y-54236339D01*
X113877090Y-54236339D01*
X113877090Y-55146222D01*
X113900740Y-55386346D01*
X113994202Y-55694449D01*
X114145976Y-55978397D01*
X114350230Y-56227281D01*
X114599114Y-56431534D01*
X114883062Y-56583308D01*
X115191165Y-56676770D01*
X115511580Y-56708328D01*
X115831996Y-56676770D01*
X116140099Y-56583308D01*
X116263075Y-56517576D01*
X118117701Y-58372203D01*
X118141499Y-58401201D01*
X118257224Y-58496174D01*
X118389253Y-58566746D01*
X118532514Y-58610203D01*
X118644167Y-58621200D01*
X118644177Y-58621200D01*
X118681500Y-58624876D01*
X118718823Y-58621200D01*
X132220478Y-58621200D01*
X132257800Y-58624876D01*
X132295122Y-58621200D01*
X132295133Y-58621200D01*
X132406786Y-58610203D01*
X132550047Y-58566746D01*
X132682076Y-58496174D01*
X132797801Y-58401201D01*
X132821604Y-58372197D01*
X135239501Y-55954300D01*
X139934028Y-55954300D01*
X139934028Y-57954300D01*
X139946288Y-58078782D01*
X139982598Y-58198480D01*
X140041563Y-58308794D01*
X140120915Y-58405485D01*
X140217606Y-58484837D01*
X140327920Y-58543802D01*
X140447618Y-58580112D01*
X140572100Y-58592372D01*
X142572100Y-58592372D01*
X142696582Y-58580112D01*
X142816280Y-58543802D01*
X142926594Y-58484837D01*
X143023285Y-58405485D01*
X143102637Y-58308794D01*
X143161602Y-58198480D01*
X143197912Y-58078782D01*
X143210172Y-57954300D01*
X143210172Y-55954300D01*
X146934028Y-55954300D01*
X146934028Y-57954300D01*
X146946288Y-58078782D01*
X146982598Y-58198480D01*
X147041563Y-58308794D01*
X147120915Y-58405485D01*
X147217606Y-58484837D01*
X147327920Y-58543802D01*
X147447618Y-58580112D01*
X147572100Y-58592372D01*
X149572100Y-58592372D01*
X149696582Y-58580112D01*
X149816280Y-58543802D01*
X149926594Y-58484837D01*
X150023285Y-58405485D01*
X150102637Y-58308794D01*
X150161602Y-58198480D01*
X150197912Y-58078782D01*
X150210172Y-57954300D01*
X150210172Y-55954300D01*
X150197912Y-55829818D01*
X150161602Y-55710120D01*
X150102637Y-55599806D01*
X150023285Y-55503115D01*
X149926594Y-55423763D01*
X149816280Y-55364798D01*
X149696582Y-55328488D01*
X149572100Y-55316228D01*
X147572100Y-55316228D01*
X147447618Y-55328488D01*
X147327920Y-55364798D01*
X147217606Y-55423763D01*
X147120915Y-55503115D01*
X147041563Y-55599806D01*
X146982598Y-55710120D01*
X146946288Y-55829818D01*
X146934028Y-55954300D01*
X143210172Y-55954300D01*
X143197912Y-55829818D01*
X143161602Y-55710120D01*
X143102637Y-55599806D01*
X143023285Y-55503115D01*
X142926594Y-55423763D01*
X142816280Y-55364798D01*
X142696582Y-55328488D01*
X142572100Y-55316228D01*
X140572100Y-55316228D01*
X140447618Y-55328488D01*
X140327920Y-55364798D01*
X140217606Y-55423763D01*
X140120915Y-55503115D01*
X140041563Y-55599806D01*
X139982598Y-55710120D01*
X139946288Y-55829818D01*
X139934028Y-55954300D01*
X135239501Y-55954300D01*
X136997904Y-54195898D01*
X137026901Y-54172101D01*
X137121874Y-54056376D01*
X137192446Y-53924347D01*
X137235903Y-53781086D01*
X137246900Y-53669433D01*
X137246900Y-53669432D01*
X137250577Y-53632100D01*
X137246900Y-53594767D01*
X137246900Y-50954300D01*
X139934028Y-50954300D01*
X139946288Y-51078782D01*
X139982598Y-51198480D01*
X140041563Y-51308794D01*
X140120915Y-51405485D01*
X140217606Y-51484837D01*
X140327920Y-51543802D01*
X140447618Y-51580112D01*
X140572100Y-51592372D01*
X141286350Y-51589300D01*
X141445100Y-51430550D01*
X141445100Y-50081300D01*
X141699100Y-50081300D01*
X141699100Y-51430550D01*
X141857850Y-51589300D01*
X142572100Y-51592372D01*
X142696582Y-51580112D01*
X142816280Y-51543802D01*
X142926594Y-51484837D01*
X143023285Y-51405485D01*
X143102637Y-51308794D01*
X143161602Y-51198480D01*
X143197912Y-51078782D01*
X143210172Y-50954300D01*
X143207100Y-50240050D01*
X143048350Y-50081300D01*
X141699100Y-50081300D01*
X141445100Y-50081300D01*
X140095850Y-50081300D01*
X139937100Y-50240050D01*
X139934028Y-50954300D01*
X137246900Y-50954300D01*
X137246900Y-50454401D01*
X138747001Y-48954300D01*
X139934028Y-48954300D01*
X139937100Y-49668550D01*
X140095850Y-49827300D01*
X141445100Y-49827300D01*
X141445100Y-48478050D01*
X141699100Y-48478050D01*
X141699100Y-49827300D01*
X143048350Y-49827300D01*
X143207100Y-49668550D01*
X143210172Y-48954300D01*
X146934028Y-48954300D01*
X146934028Y-50954300D01*
X146946288Y-51078782D01*
X146982598Y-51198480D01*
X147041563Y-51308794D01*
X147120915Y-51405485D01*
X147217606Y-51484837D01*
X147327920Y-51543802D01*
X147447618Y-51580112D01*
X147572100Y-51592372D01*
X149572100Y-51592372D01*
X149696582Y-51580112D01*
X149816280Y-51543802D01*
X149926594Y-51484837D01*
X150023285Y-51405485D01*
X150102637Y-51308794D01*
X150161602Y-51198480D01*
X150197912Y-51078782D01*
X150210172Y-50954300D01*
X150210172Y-50714300D01*
X156715028Y-50714300D01*
X156715028Y-50749100D01*
X156727288Y-50873582D01*
X156763598Y-50993280D01*
X156822563Y-51103594D01*
X156901915Y-51200285D01*
X156998606Y-51279637D01*
X157108920Y-51338602D01*
X157228618Y-51374912D01*
X157353100Y-51387172D01*
X158953100Y-51387172D01*
X159077582Y-51374912D01*
X159197280Y-51338602D01*
X159307594Y-51279637D01*
X159404285Y-51200285D01*
X159483637Y-51103594D01*
X159542602Y-50993280D01*
X159578912Y-50873582D01*
X159591172Y-50749100D01*
X159591172Y-49149100D01*
X159578912Y-49024618D01*
X159542602Y-48904920D01*
X159483637Y-48794606D01*
X159404285Y-48697915D01*
X159307594Y-48618563D01*
X159197280Y-48559598D01*
X159077582Y-48523288D01*
X158953100Y-48511028D01*
X157353100Y-48511028D01*
X157228618Y-48523288D01*
X157108920Y-48559598D01*
X156998606Y-48618563D01*
X156901915Y-48697915D01*
X156822563Y-48794606D01*
X156763598Y-48904920D01*
X156727288Y-49024618D01*
X156715028Y-49149100D01*
X156715028Y-49194300D01*
X150210172Y-49194300D01*
X150210172Y-48954300D01*
X150197912Y-48829818D01*
X150161602Y-48710120D01*
X150102637Y-48599806D01*
X150023285Y-48503115D01*
X149926594Y-48423763D01*
X149816280Y-48364798D01*
X149696582Y-48328488D01*
X149572100Y-48316228D01*
X147572100Y-48316228D01*
X147447618Y-48328488D01*
X147327920Y-48364798D01*
X147217606Y-48423763D01*
X147120915Y-48503115D01*
X147041563Y-48599806D01*
X146982598Y-48710120D01*
X146946288Y-48829818D01*
X146934028Y-48954300D01*
X143210172Y-48954300D01*
X143197912Y-48829818D01*
X143161602Y-48710120D01*
X143102637Y-48599806D01*
X143023285Y-48503115D01*
X142926594Y-48423763D01*
X142816280Y-48364798D01*
X142696582Y-48328488D01*
X142572100Y-48316228D01*
X141857850Y-48319300D01*
X141699100Y-48478050D01*
X141445100Y-48478050D01*
X141286350Y-48319300D01*
X140572100Y-48316228D01*
X140447618Y-48328488D01*
X140327920Y-48364798D01*
X140217606Y-48423763D01*
X140120915Y-48503115D01*
X140041563Y-48599806D01*
X139982598Y-48710120D01*
X139946288Y-48829818D01*
X139934028Y-48954300D01*
X138747001Y-48954300D01*
X144586802Y-43114500D01*
X149925573Y-43114500D01*
X149934628Y-43144351D01*
X150016695Y-43297887D01*
X150127138Y-43432462D01*
X150261713Y-43542905D01*
X150415249Y-43624972D01*
X150581845Y-43675508D01*
X150755099Y-43692572D01*
X151280101Y-43692572D01*
X151453355Y-43675508D01*
X151619951Y-43624972D01*
X151773487Y-43542905D01*
X151908062Y-43432462D01*
X151930100Y-43405609D01*
X151952138Y-43432462D01*
X152086713Y-43542905D01*
X152240249Y-43624972D01*
X152406845Y-43675508D01*
X152580099Y-43692572D01*
X153105101Y-43692572D01*
X153278355Y-43675508D01*
X153444951Y-43624972D01*
X153598487Y-43542905D01*
X153733062Y-43432462D01*
X153843505Y-43297887D01*
X153925572Y-43144351D01*
X153934627Y-43114500D01*
X156952028Y-43114500D01*
X157038463Y-43243859D01*
X157238341Y-43443737D01*
X157473373Y-43600780D01*
X157734526Y-43708953D01*
X158011765Y-43764100D01*
X158294435Y-43764100D01*
X158571674Y-43708953D01*
X158832827Y-43600780D01*
X159067859Y-43443737D01*
X159267737Y-43243859D01*
X159424780Y-43008827D01*
X159532953Y-42747674D01*
X159588100Y-42470435D01*
X159588100Y-42187765D01*
X159532953Y-41910526D01*
X159424780Y-41649373D01*
X159267737Y-41414341D01*
X159067859Y-41214463D01*
X158832827Y-41057420D01*
X158571674Y-40949247D01*
X158294435Y-40894100D01*
X158011765Y-40894100D01*
X157734526Y-40949247D01*
X157473373Y-41057420D01*
X157238341Y-41214463D01*
X157038463Y-41414341D01*
X156918085Y-41594500D01*
X153934627Y-41594500D01*
X153925572Y-41564649D01*
X153843505Y-41411113D01*
X153733062Y-41276538D01*
X153598487Y-41166095D01*
X153444951Y-41084028D01*
X153278355Y-41033492D01*
X153105101Y-41016428D01*
X152580099Y-41016428D01*
X152406845Y-41033492D01*
X152240249Y-41084028D01*
X152086713Y-41166095D01*
X151952138Y-41276538D01*
X151930100Y-41303391D01*
X151908062Y-41276538D01*
X151773487Y-41166095D01*
X151619951Y-41084028D01*
X151453355Y-41033492D01*
X151280101Y-41016428D01*
X150755099Y-41016428D01*
X150581845Y-41033492D01*
X150415249Y-41084028D01*
X150261713Y-41166095D01*
X150127138Y-41276538D01*
X150016695Y-41411113D01*
X149934628Y-41564649D01*
X149925573Y-41594500D01*
X145570426Y-41594500D01*
X145597976Y-41579774D01*
X145713701Y-41484801D01*
X145737504Y-41455797D01*
X147118692Y-40074610D01*
X147338840Y-40118400D01*
X147631360Y-40118400D01*
X147918258Y-40061332D01*
X148188511Y-39949390D01*
X148431732Y-39786875D01*
X148638575Y-39580032D01*
X148755100Y-39405640D01*
X148871625Y-39580032D01*
X149078468Y-39786875D01*
X149321689Y-39949390D01*
X149591942Y-40061332D01*
X149878840Y-40118400D01*
X150171360Y-40118400D01*
X150458258Y-40061332D01*
X150728511Y-39949390D01*
X150971732Y-39786875D01*
X151178575Y-39580032D01*
X151295100Y-39405640D01*
X151411625Y-39580032D01*
X151618468Y-39786875D01*
X151861689Y-39949390D01*
X152131942Y-40061332D01*
X152418840Y-40118400D01*
X152711360Y-40118400D01*
X152998258Y-40061332D01*
X153268511Y-39949390D01*
X153511732Y-39786875D01*
X153718575Y-39580032D01*
X153881090Y-39336811D01*
X153993032Y-39066558D01*
X154050100Y-38779660D01*
X154050100Y-38487140D01*
X153993032Y-38200242D01*
X153881090Y-37929989D01*
X153718575Y-37686768D01*
X153511732Y-37479925D01*
X153268511Y-37317410D01*
X152998258Y-37205468D01*
X152711360Y-37148400D01*
X152418840Y-37148400D01*
X152131942Y-37205468D01*
X151861689Y-37317410D01*
X151618468Y-37479925D01*
X151411625Y-37686768D01*
X151295100Y-37861160D01*
X151178575Y-37686768D01*
X150971732Y-37479925D01*
X150728511Y-37317410D01*
X150458258Y-37205468D01*
X150171360Y-37148400D01*
X149878840Y-37148400D01*
X149591942Y-37205468D01*
X149321689Y-37317410D01*
X149078468Y-37479925D01*
X148871625Y-37686768D01*
X148755100Y-37861160D01*
X148638575Y-37686768D01*
X148431732Y-37479925D01*
X148188511Y-37317410D01*
X147918258Y-37205468D01*
X147631360Y-37148400D01*
X147338840Y-37148400D01*
X147051942Y-37205468D01*
X146781689Y-37317410D01*
X146538468Y-37479925D01*
X146331625Y-37686768D01*
X146215100Y-37861160D01*
X146098575Y-37686768D01*
X145891732Y-37479925D01*
X145648511Y-37317410D01*
X145378258Y-37205468D01*
X145091360Y-37148400D01*
X144798840Y-37148400D01*
X144511942Y-37205468D01*
X144241689Y-37317410D01*
X143998468Y-37479925D01*
X143791625Y-37686768D01*
X143675100Y-37861160D01*
X143558575Y-37686768D01*
X143351732Y-37479925D01*
X143108511Y-37317410D01*
X142838258Y-37205468D01*
X142551360Y-37148400D01*
X142258840Y-37148400D01*
X141971942Y-37205468D01*
X141701689Y-37317410D01*
X141458468Y-37479925D01*
X141251625Y-37686768D01*
X141135100Y-37861160D01*
X141018575Y-37686768D01*
X140811732Y-37479925D01*
X140568511Y-37317410D01*
X140298258Y-37205468D01*
X140011360Y-37148400D01*
X139718840Y-37148400D01*
X139431942Y-37205468D01*
X139161689Y-37317410D01*
X138918468Y-37479925D01*
X138786613Y-37611780D01*
X138764602Y-37539220D01*
X138705637Y-37428906D01*
X138626285Y-37332215D01*
X138529594Y-37252863D01*
X138419280Y-37193898D01*
X138299582Y-37157588D01*
X138175100Y-37145328D01*
X137610850Y-37148400D01*
X137452100Y-37307150D01*
X137452100Y-38506400D01*
X137472100Y-38506400D01*
X137472100Y-38760400D01*
X137452100Y-38760400D01*
X137452100Y-39959650D01*
X137610850Y-40118400D01*
X138175100Y-40121472D01*
X138299582Y-40109212D01*
X138419280Y-40072902D01*
X138529594Y-40013937D01*
X138626285Y-39934585D01*
X138705637Y-39837894D01*
X138764602Y-39727580D01*
X138786613Y-39655020D01*
X138918468Y-39786875D01*
X139161689Y-39949390D01*
X139431942Y-40061332D01*
X139718840Y-40118400D01*
X139845299Y-40118400D01*
X139321699Y-40642000D01*
X122450702Y-40642000D01*
X121806341Y-39997640D01*
X121861580Y-39930331D01*
X121970230Y-40062721D01*
X122219114Y-40266974D01*
X122503062Y-40418748D01*
X122811165Y-40512210D01*
X123131580Y-40543768D01*
X123451996Y-40512210D01*
X123760099Y-40418748D01*
X124044047Y-40266974D01*
X124292931Y-40062721D01*
X124401580Y-39930331D01*
X124510230Y-40062721D01*
X124759114Y-40266974D01*
X125043062Y-40418748D01*
X125351165Y-40512210D01*
X125671580Y-40543768D01*
X125991996Y-40512210D01*
X126300099Y-40418748D01*
X126584047Y-40266974D01*
X126832931Y-40062721D01*
X126941580Y-39930331D01*
X127050230Y-40062721D01*
X127299114Y-40266974D01*
X127583062Y-40418748D01*
X127891165Y-40512210D01*
X128211580Y-40543768D01*
X128531996Y-40512210D01*
X128840099Y-40418748D01*
X129124047Y-40266974D01*
X129372931Y-40062721D01*
X129481580Y-39930331D01*
X129590230Y-40062721D01*
X129839114Y-40266974D01*
X130123062Y-40418748D01*
X130431165Y-40512210D01*
X130751580Y-40543768D01*
X131071996Y-40512210D01*
X131380099Y-40418748D01*
X131664047Y-40266974D01*
X131912931Y-40062721D01*
X132117184Y-39813837D01*
X132268958Y-39529889D01*
X132283060Y-39483400D01*
X135837028Y-39483400D01*
X135849288Y-39607882D01*
X135885598Y-39727580D01*
X135944563Y-39837894D01*
X136023915Y-39934585D01*
X136120606Y-40013937D01*
X136230920Y-40072902D01*
X136350618Y-40109212D01*
X136475100Y-40121472D01*
X137039350Y-40118400D01*
X137198100Y-39959650D01*
X137198100Y-38760400D01*
X135998850Y-38760400D01*
X135840100Y-38919150D01*
X135837028Y-39483400D01*
X132283060Y-39483400D01*
X132362420Y-39221786D01*
X132386070Y-38981661D01*
X132386070Y-38071778D01*
X132362420Y-37831654D01*
X132347783Y-37783400D01*
X135837028Y-37783400D01*
X135840100Y-38347650D01*
X135998850Y-38506400D01*
X137198100Y-38506400D01*
X137198100Y-37307150D01*
X137039350Y-37148400D01*
X136475100Y-37145328D01*
X136350618Y-37157588D01*
X136230920Y-37193898D01*
X136120606Y-37252863D01*
X136023915Y-37332215D01*
X135944563Y-37428906D01*
X135885598Y-37539220D01*
X135849288Y-37658918D01*
X135837028Y-37783400D01*
X132347783Y-37783400D01*
X132268958Y-37523551D01*
X132117184Y-37239603D01*
X131912931Y-36990719D01*
X131664046Y-36786466D01*
X131380098Y-36634692D01*
X131071995Y-36541230D01*
X130751580Y-36509672D01*
X130431164Y-36541230D01*
X130123061Y-36634692D01*
X129839113Y-36786466D01*
X129590229Y-36990719D01*
X129481580Y-37123109D01*
X129372931Y-36990719D01*
X129124046Y-36786466D01*
X128840098Y-36634692D01*
X128531995Y-36541230D01*
X128211580Y-36509672D01*
X127891164Y-36541230D01*
X127583061Y-36634692D01*
X127299113Y-36786466D01*
X127050229Y-36990719D01*
X126941580Y-37123109D01*
X126832931Y-36990719D01*
X126584046Y-36786466D01*
X126300098Y-36634692D01*
X125991995Y-36541230D01*
X125671580Y-36509672D01*
X125351164Y-36541230D01*
X125043061Y-36634692D01*
X124759113Y-36786466D01*
X124510229Y-36990719D01*
X124401580Y-37123109D01*
X124292931Y-36990719D01*
X124044046Y-36786466D01*
X123760098Y-36634692D01*
X123451995Y-36541230D01*
X123131580Y-36509672D01*
X122811164Y-36541230D01*
X122503061Y-36634692D01*
X122219113Y-36786466D01*
X121970229Y-36990719D01*
X121861580Y-37123109D01*
X121752931Y-36990719D01*
X121504046Y-36786466D01*
X121220098Y-36634692D01*
X120911995Y-36541230D01*
X120591580Y-36509672D01*
X120271164Y-36541230D01*
X119963061Y-36634692D01*
X119679113Y-36786466D01*
X119430229Y-36990719D01*
X119323332Y-37120975D01*
X119117536Y-36906508D01*
X118854057Y-36722483D01*
X118559739Y-36593397D01*
X118431934Y-36562451D01*
X118178580Y-36681805D01*
X118178580Y-38399720D01*
X118198580Y-38399720D01*
X118198580Y-38653720D01*
X118178580Y-38653720D01*
X118178580Y-40371635D01*
X118431934Y-40490989D01*
X118559739Y-40460043D01*
X118854057Y-40330957D01*
X119117536Y-40146932D01*
X119323332Y-39932465D01*
X119430230Y-40062721D01*
X119679114Y-40266974D01*
X119963062Y-40418748D01*
X120127828Y-40468729D01*
X121572101Y-41913003D01*
X121595899Y-41942001D01*
X121711624Y-42036974D01*
X121843653Y-42107546D01*
X121986914Y-42151003D01*
X122098567Y-42162000D01*
X122098576Y-42162000D01*
X122135899Y-42165676D01*
X122173222Y-42162000D01*
X139599178Y-42162000D01*
X139636500Y-42165676D01*
X139665210Y-42162848D01*
X128963074Y-52864985D01*
X128840098Y-52799252D01*
X128531995Y-52705790D01*
X128211580Y-52674232D01*
X127891164Y-52705790D01*
X127583061Y-52799252D01*
X127299113Y-52951026D01*
X127050229Y-53155279D01*
X126941580Y-53287669D01*
X126832931Y-53155279D01*
X126584046Y-52951026D01*
X126300098Y-52799252D01*
X125991995Y-52705790D01*
X125671580Y-52674232D01*
X125351164Y-52705790D01*
X125043061Y-52799252D01*
X124759113Y-52951026D01*
X124510229Y-53155279D01*
X124401580Y-53287669D01*
X124292931Y-53155279D01*
X124044046Y-52951026D01*
X123760098Y-52799252D01*
X123451995Y-52705790D01*
X123131580Y-52674232D01*
X122811164Y-52705790D01*
X122503061Y-52799252D01*
X122219113Y-52951026D01*
X121970229Y-53155279D01*
X121861580Y-53287669D01*
X121752931Y-53155279D01*
X121504046Y-52951026D01*
X121220098Y-52799252D01*
X120911995Y-52705790D01*
X120591580Y-52674232D01*
X120271164Y-52705790D01*
X119963061Y-52799252D01*
X119679113Y-52951026D01*
X119430229Y-53155279D01*
X119321580Y-53287669D01*
X119212931Y-53155279D01*
X118964046Y-52951026D01*
X118680098Y-52799252D01*
X118371995Y-52705790D01*
X118051580Y-52674232D01*
X117731164Y-52705790D01*
X117423061Y-52799252D01*
X117139113Y-52951026D01*
X116890229Y-53155279D01*
X116781580Y-53287669D01*
X116672931Y-53155279D01*
X116424046Y-52951026D01*
X116140098Y-52799252D01*
X115831995Y-52705790D01*
X115511580Y-52674232D01*
X115191164Y-52705790D01*
X114883061Y-52799252D01*
X114599113Y-52951026D01*
X114350229Y-53155279D01*
X114145976Y-53404164D01*
X113994202Y-53688112D01*
X113900740Y-53996215D01*
X113877090Y-54236339D01*
X113220100Y-54236339D01*
X113220100Y-47706767D01*
X113618713Y-47706767D01*
X113618713Y-47944427D01*
X113665078Y-48177520D01*
X113756026Y-48397089D01*
X113888063Y-48594696D01*
X114056114Y-48762747D01*
X114253721Y-48894784D01*
X114473290Y-48985732D01*
X114706383Y-49032097D01*
X114944043Y-49032097D01*
X115177136Y-48985732D01*
X115396705Y-48894784D01*
X115594312Y-48762747D01*
X115762363Y-48594696D01*
X115894400Y-48397089D01*
X115985348Y-48177520D01*
X116031713Y-47944427D01*
X116031713Y-47706767D01*
X116158713Y-47706767D01*
X116158713Y-47944427D01*
X116205078Y-48177520D01*
X116296026Y-48397089D01*
X116428063Y-48594696D01*
X116596114Y-48762747D01*
X116793721Y-48894784D01*
X117013290Y-48985732D01*
X117246383Y-49032097D01*
X117484043Y-49032097D01*
X117717136Y-48985732D01*
X117936705Y-48894784D01*
X118134312Y-48762747D01*
X118302363Y-48594696D01*
X118434400Y-48397089D01*
X118525348Y-48177520D01*
X118571713Y-47944427D01*
X118571713Y-47824400D01*
X130172870Y-47824400D01*
X130194939Y-48048467D01*
X130260297Y-48263923D01*
X130366432Y-48462489D01*
X130509267Y-48636533D01*
X130683311Y-48779368D01*
X130881877Y-48885503D01*
X131097333Y-48950861D01*
X131265254Y-48967400D01*
X132393546Y-48967400D01*
X132561467Y-48950861D01*
X132776923Y-48885503D01*
X132975489Y-48779368D01*
X133149533Y-48636533D01*
X133292368Y-48462489D01*
X133398503Y-48263923D01*
X133463861Y-48048467D01*
X133485930Y-47824400D01*
X133463861Y-47600333D01*
X133398503Y-47384877D01*
X133292368Y-47186311D01*
X133149533Y-47012267D01*
X132975489Y-46869432D01*
X132776923Y-46763297D01*
X132561467Y-46697939D01*
X132393546Y-46681400D01*
X131265254Y-46681400D01*
X131097333Y-46697939D01*
X130881877Y-46763297D01*
X130683311Y-46869432D01*
X130509267Y-47012267D01*
X130366432Y-47186311D01*
X130260297Y-47384877D01*
X130194939Y-47600333D01*
X130172870Y-47824400D01*
X118571713Y-47824400D01*
X118571713Y-47706767D01*
X118525348Y-47473674D01*
X118434400Y-47254105D01*
X118302363Y-47056498D01*
X118134312Y-46888447D01*
X117936705Y-46756410D01*
X117717136Y-46665462D01*
X117484043Y-46619097D01*
X117246383Y-46619097D01*
X117013290Y-46665462D01*
X116793721Y-46756410D01*
X116596114Y-46888447D01*
X116428063Y-47056498D01*
X116296026Y-47254105D01*
X116205078Y-47473674D01*
X116158713Y-47706767D01*
X116031713Y-47706767D01*
X115985348Y-47473674D01*
X115894400Y-47254105D01*
X115762363Y-47056498D01*
X115594312Y-46888447D01*
X115396705Y-46756410D01*
X115177136Y-46665462D01*
X114944043Y-46619097D01*
X114706383Y-46619097D01*
X114473290Y-46665462D01*
X114253721Y-46756410D01*
X114056114Y-46888447D01*
X113888063Y-47056498D01*
X113756026Y-47254105D01*
X113665078Y-47473674D01*
X113618713Y-47706767D01*
X113220100Y-47706767D01*
X113220100Y-45166767D01*
X113618713Y-45166767D01*
X113618713Y-45404427D01*
X113665078Y-45637520D01*
X113756026Y-45857089D01*
X113888063Y-46054696D01*
X114056114Y-46222747D01*
X114253721Y-46354784D01*
X114473290Y-46445732D01*
X114706383Y-46492097D01*
X114944043Y-46492097D01*
X115177136Y-46445732D01*
X115396705Y-46354784D01*
X115594312Y-46222747D01*
X115702092Y-46114967D01*
X116715448Y-46114967D01*
X116759284Y-46335651D01*
X116975782Y-46433685D01*
X117207246Y-46487599D01*
X117444780Y-46495320D01*
X117679256Y-46456553D01*
X117901664Y-46372786D01*
X117971142Y-46335651D01*
X118014978Y-46114967D01*
X117365213Y-45465202D01*
X116715448Y-46114967D01*
X115702092Y-46114967D01*
X115762363Y-46054696D01*
X115894400Y-45857089D01*
X115985348Y-45637520D01*
X116031713Y-45404427D01*
X116031713Y-45365164D01*
X116155490Y-45365164D01*
X116194257Y-45599640D01*
X116278024Y-45822048D01*
X116315159Y-45891526D01*
X116535843Y-45935362D01*
X117185608Y-45285597D01*
X117544818Y-45285597D01*
X118194583Y-45935362D01*
X118415267Y-45891526D01*
X118513301Y-45675028D01*
X118536009Y-45577534D01*
X130219329Y-45577534D01*
X130300474Y-45803820D01*
X130423375Y-45992820D01*
X130580787Y-46154212D01*
X130766660Y-46281793D01*
X130973852Y-46370661D01*
X131194400Y-46417400D01*
X131702400Y-46417400D01*
X131702400Y-45401400D01*
X131956400Y-45401400D01*
X131956400Y-46417400D01*
X132464400Y-46417400D01*
X132684948Y-46370661D01*
X132892140Y-46281793D01*
X133078013Y-46154212D01*
X133235425Y-45992820D01*
X133358326Y-45803820D01*
X133439471Y-45577534D01*
X133313422Y-45401400D01*
X131956400Y-45401400D01*
X131702400Y-45401400D01*
X130345378Y-45401400D01*
X130219329Y-45577534D01*
X118536009Y-45577534D01*
X118567215Y-45443564D01*
X118574936Y-45206030D01*
X118536169Y-44971554D01*
X118536061Y-44971266D01*
X130219329Y-44971266D01*
X130345378Y-45147400D01*
X131702400Y-45147400D01*
X131702400Y-44131400D01*
X131956400Y-44131400D01*
X131956400Y-45147400D01*
X133313422Y-45147400D01*
X133439471Y-44971266D01*
X133358326Y-44744980D01*
X133235425Y-44555980D01*
X133078013Y-44394588D01*
X132892140Y-44267007D01*
X132684948Y-44178139D01*
X132464400Y-44131400D01*
X131956400Y-44131400D01*
X131702400Y-44131400D01*
X131194400Y-44131400D01*
X130973852Y-44178139D01*
X130766660Y-44267007D01*
X130580787Y-44394588D01*
X130423375Y-44555980D01*
X130300474Y-44744980D01*
X130219329Y-44971266D01*
X118536061Y-44971266D01*
X118452402Y-44749146D01*
X118415267Y-44679668D01*
X118194583Y-44635832D01*
X117544818Y-45285597D01*
X117185608Y-45285597D01*
X116535843Y-44635832D01*
X116315159Y-44679668D01*
X116217125Y-44896166D01*
X116163211Y-45127630D01*
X116155490Y-45365164D01*
X116031713Y-45365164D01*
X116031713Y-45166767D01*
X115985348Y-44933674D01*
X115894400Y-44714105D01*
X115762363Y-44516498D01*
X115702092Y-44456227D01*
X116715448Y-44456227D01*
X117365213Y-45105992D01*
X118014978Y-44456227D01*
X117971142Y-44235543D01*
X117754644Y-44137509D01*
X117523180Y-44083595D01*
X117285646Y-44075874D01*
X117051170Y-44114641D01*
X116828762Y-44198408D01*
X116759284Y-44235543D01*
X116715448Y-44456227D01*
X115702092Y-44456227D01*
X115594312Y-44348447D01*
X115396705Y-44216410D01*
X115177136Y-44125462D01*
X114944043Y-44079097D01*
X114706383Y-44079097D01*
X114473290Y-44125462D01*
X114253721Y-44216410D01*
X114056114Y-44348447D01*
X113888063Y-44516498D01*
X113756026Y-44714105D01*
X113665078Y-44933674D01*
X113618713Y-45166767D01*
X113220100Y-45166767D01*
X113220100Y-38071779D01*
X113877090Y-38071779D01*
X113877090Y-38981662D01*
X113900740Y-39221786D01*
X113994202Y-39529889D01*
X114145976Y-39813837D01*
X114350230Y-40062721D01*
X114599114Y-40266974D01*
X114883062Y-40418748D01*
X115191165Y-40512210D01*
X115511580Y-40543768D01*
X115831996Y-40512210D01*
X116140099Y-40418748D01*
X116424047Y-40266974D01*
X116672931Y-40062721D01*
X116779829Y-39932465D01*
X116985624Y-40146932D01*
X117249103Y-40330957D01*
X117543421Y-40460043D01*
X117671226Y-40490989D01*
X117924580Y-40371635D01*
X117924580Y-38653720D01*
X117904580Y-38653720D01*
X117904580Y-38399720D01*
X117924580Y-38399720D01*
X117924580Y-36681805D01*
X117671226Y-36562451D01*
X117543421Y-36593397D01*
X117249103Y-36722483D01*
X116985624Y-36906508D01*
X116779829Y-37120975D01*
X116672931Y-36990719D01*
X116424046Y-36786466D01*
X116140098Y-36634692D01*
X115831995Y-36541230D01*
X115511580Y-36509672D01*
X115191164Y-36541230D01*
X114883061Y-36634692D01*
X114599113Y-36786466D01*
X114350229Y-36990719D01*
X114145976Y-37239604D01*
X113994202Y-37523552D01*
X113900740Y-37831655D01*
X113877090Y-38071779D01*
X113220100Y-38071779D01*
X113220100Y-32913395D01*
X114778800Y-32913395D01*
X114778800Y-33304405D01*
X114855082Y-33687903D01*
X115004715Y-34049150D01*
X115221949Y-34374264D01*
X115498436Y-34650751D01*
X115823550Y-34867985D01*
X116184797Y-35017618D01*
X116568295Y-35093900D01*
X116959305Y-35093900D01*
X117342803Y-35017618D01*
X117704050Y-34867985D01*
X118029164Y-34650751D01*
X118305651Y-34374264D01*
X118522885Y-34049150D01*
X118672518Y-33687903D01*
X118748800Y-33304405D01*
X118748800Y-32913395D01*
X155710900Y-32913395D01*
X155710900Y-33304405D01*
X155787182Y-33687903D01*
X155936815Y-34049150D01*
X156154049Y-34374264D01*
X156430536Y-34650751D01*
X156755650Y-34867985D01*
X157116897Y-35017618D01*
X157500395Y-35093900D01*
X157891405Y-35093900D01*
X158274903Y-35017618D01*
X158636150Y-34867985D01*
X158961264Y-34650751D01*
X159237751Y-34374264D01*
X159454985Y-34049150D01*
X159604618Y-33687903D01*
X159680900Y-33304405D01*
X159680900Y-32913395D01*
X159604618Y-32529897D01*
X159454985Y-32168650D01*
X159237751Y-31843536D01*
X158961264Y-31567049D01*
X158636150Y-31349815D01*
X158274903Y-31200182D01*
X157891405Y-31123900D01*
X157500395Y-31123900D01*
X157116897Y-31200182D01*
X156755650Y-31349815D01*
X156430536Y-31567049D01*
X156154049Y-31843536D01*
X155936815Y-32168650D01*
X155787182Y-32529897D01*
X155710900Y-32913395D01*
X118748800Y-32913395D01*
X118672518Y-32529897D01*
X118522885Y-32168650D01*
X118305651Y-31843536D01*
X118029164Y-31567049D01*
X117704050Y-31349815D01*
X117342803Y-31200182D01*
X116959305Y-31123900D01*
X116568295Y-31123900D01*
X116184797Y-31200182D01*
X115823550Y-31349815D01*
X115498436Y-31567049D01*
X115221949Y-31843536D01*
X115004715Y-32168650D01*
X114855082Y-32529897D01*
X114778800Y-32913395D01*
X113220100Y-32913395D01*
X113220100Y-30797100D01*
X160376001Y-30797100D01*
X160376000Y-62624100D01*
%TA.AperFunction,Conductor*%
D20*
G36*
X160376000Y-62624100D02*
G01*
X113220100Y-62624100D01*
X113220100Y-60053295D01*
X114562900Y-60053295D01*
X114562900Y-60444305D01*
X114639182Y-60827803D01*
X114788815Y-61189050D01*
X115006049Y-61514164D01*
X115282536Y-61790651D01*
X115607650Y-62007885D01*
X115968897Y-62157518D01*
X116352395Y-62233800D01*
X116743405Y-62233800D01*
X117126903Y-62157518D01*
X117488150Y-62007885D01*
X117813264Y-61790651D01*
X118089751Y-61514164D01*
X118306985Y-61189050D01*
X118456618Y-60827803D01*
X118532900Y-60444305D01*
X118532900Y-60053295D01*
X118505113Y-59913595D01*
X155710900Y-59913595D01*
X155710900Y-60304605D01*
X155787182Y-60688103D01*
X155936815Y-61049350D01*
X156154049Y-61374464D01*
X156430536Y-61650951D01*
X156755650Y-61868185D01*
X157116897Y-62017818D01*
X157500395Y-62094100D01*
X157891405Y-62094100D01*
X158274903Y-62017818D01*
X158636150Y-61868185D01*
X158961264Y-61650951D01*
X159237751Y-61374464D01*
X159454985Y-61049350D01*
X159604618Y-60688103D01*
X159680900Y-60304605D01*
X159680900Y-59913595D01*
X159604618Y-59530097D01*
X159454985Y-59168850D01*
X159237751Y-58843736D01*
X158961264Y-58567249D01*
X158636150Y-58350015D01*
X158274903Y-58200382D01*
X157891405Y-58124100D01*
X157500395Y-58124100D01*
X157116897Y-58200382D01*
X156755650Y-58350015D01*
X156430536Y-58567249D01*
X156154049Y-58843736D01*
X155936815Y-59168850D01*
X155787182Y-59530097D01*
X155710900Y-59913595D01*
X118505113Y-59913595D01*
X118456618Y-59669797D01*
X118306985Y-59308550D01*
X118089751Y-58983436D01*
X117813264Y-58706949D01*
X117488150Y-58489715D01*
X117126903Y-58340082D01*
X116743405Y-58263800D01*
X116352395Y-58263800D01*
X115968897Y-58340082D01*
X115607650Y-58489715D01*
X115282536Y-58706949D01*
X115006049Y-58983436D01*
X114788815Y-59308550D01*
X114639182Y-59669797D01*
X114562900Y-60053295D01*
X113220100Y-60053295D01*
X113220100Y-54236339D01*
X113877090Y-54236339D01*
X113877090Y-55146222D01*
X113900740Y-55386346D01*
X113994202Y-55694449D01*
X114145976Y-55978397D01*
X114350230Y-56227281D01*
X114599114Y-56431534D01*
X114883062Y-56583308D01*
X115191165Y-56676770D01*
X115511580Y-56708328D01*
X115831996Y-56676770D01*
X116140099Y-56583308D01*
X116263075Y-56517576D01*
X118117701Y-58372203D01*
X118141499Y-58401201D01*
X118257224Y-58496174D01*
X118389253Y-58566746D01*
X118532514Y-58610203D01*
X118644167Y-58621200D01*
X118644177Y-58621200D01*
X118681500Y-58624876D01*
X118718823Y-58621200D01*
X132220478Y-58621200D01*
X132257800Y-58624876D01*
X132295122Y-58621200D01*
X132295133Y-58621200D01*
X132406786Y-58610203D01*
X132550047Y-58566746D01*
X132682076Y-58496174D01*
X132797801Y-58401201D01*
X132821604Y-58372197D01*
X135239501Y-55954300D01*
X139934028Y-55954300D01*
X139934028Y-57954300D01*
X139946288Y-58078782D01*
X139982598Y-58198480D01*
X140041563Y-58308794D01*
X140120915Y-58405485D01*
X140217606Y-58484837D01*
X140327920Y-58543802D01*
X140447618Y-58580112D01*
X140572100Y-58592372D01*
X142572100Y-58592372D01*
X142696582Y-58580112D01*
X142816280Y-58543802D01*
X142926594Y-58484837D01*
X143023285Y-58405485D01*
X143102637Y-58308794D01*
X143161602Y-58198480D01*
X143197912Y-58078782D01*
X143210172Y-57954300D01*
X143210172Y-55954300D01*
X146934028Y-55954300D01*
X146934028Y-57954300D01*
X146946288Y-58078782D01*
X146982598Y-58198480D01*
X147041563Y-58308794D01*
X147120915Y-58405485D01*
X147217606Y-58484837D01*
X147327920Y-58543802D01*
X147447618Y-58580112D01*
X147572100Y-58592372D01*
X149572100Y-58592372D01*
X149696582Y-58580112D01*
X149816280Y-58543802D01*
X149926594Y-58484837D01*
X150023285Y-58405485D01*
X150102637Y-58308794D01*
X150161602Y-58198480D01*
X150197912Y-58078782D01*
X150210172Y-57954300D01*
X150210172Y-55954300D01*
X150197912Y-55829818D01*
X150161602Y-55710120D01*
X150102637Y-55599806D01*
X150023285Y-55503115D01*
X149926594Y-55423763D01*
X149816280Y-55364798D01*
X149696582Y-55328488D01*
X149572100Y-55316228D01*
X147572100Y-55316228D01*
X147447618Y-55328488D01*
X147327920Y-55364798D01*
X147217606Y-55423763D01*
X147120915Y-55503115D01*
X147041563Y-55599806D01*
X146982598Y-55710120D01*
X146946288Y-55829818D01*
X146934028Y-55954300D01*
X143210172Y-55954300D01*
X143197912Y-55829818D01*
X143161602Y-55710120D01*
X143102637Y-55599806D01*
X143023285Y-55503115D01*
X142926594Y-55423763D01*
X142816280Y-55364798D01*
X142696582Y-55328488D01*
X142572100Y-55316228D01*
X140572100Y-55316228D01*
X140447618Y-55328488D01*
X140327920Y-55364798D01*
X140217606Y-55423763D01*
X140120915Y-55503115D01*
X140041563Y-55599806D01*
X139982598Y-55710120D01*
X139946288Y-55829818D01*
X139934028Y-55954300D01*
X135239501Y-55954300D01*
X136997904Y-54195898D01*
X137026901Y-54172101D01*
X137121874Y-54056376D01*
X137192446Y-53924347D01*
X137235903Y-53781086D01*
X137246900Y-53669433D01*
X137246900Y-53669432D01*
X137250577Y-53632100D01*
X137246900Y-53594767D01*
X137246900Y-50954300D01*
X139934028Y-50954300D01*
X139946288Y-51078782D01*
X139982598Y-51198480D01*
X140041563Y-51308794D01*
X140120915Y-51405485D01*
X140217606Y-51484837D01*
X140327920Y-51543802D01*
X140447618Y-51580112D01*
X140572100Y-51592372D01*
X141286350Y-51589300D01*
X141445100Y-51430550D01*
X141445100Y-50081300D01*
X141699100Y-50081300D01*
X141699100Y-51430550D01*
X141857850Y-51589300D01*
X142572100Y-51592372D01*
X142696582Y-51580112D01*
X142816280Y-51543802D01*
X142926594Y-51484837D01*
X143023285Y-51405485D01*
X143102637Y-51308794D01*
X143161602Y-51198480D01*
X143197912Y-51078782D01*
X143210172Y-50954300D01*
X143207100Y-50240050D01*
X143048350Y-50081300D01*
X141699100Y-50081300D01*
X141445100Y-50081300D01*
X140095850Y-50081300D01*
X139937100Y-50240050D01*
X139934028Y-50954300D01*
X137246900Y-50954300D01*
X137246900Y-50454401D01*
X138747001Y-48954300D01*
X139934028Y-48954300D01*
X139937100Y-49668550D01*
X140095850Y-49827300D01*
X141445100Y-49827300D01*
X141445100Y-48478050D01*
X141699100Y-48478050D01*
X141699100Y-49827300D01*
X143048350Y-49827300D01*
X143207100Y-49668550D01*
X143210172Y-48954300D01*
X146934028Y-48954300D01*
X146934028Y-50954300D01*
X146946288Y-51078782D01*
X146982598Y-51198480D01*
X147041563Y-51308794D01*
X147120915Y-51405485D01*
X147217606Y-51484837D01*
X147327920Y-51543802D01*
X147447618Y-51580112D01*
X147572100Y-51592372D01*
X149572100Y-51592372D01*
X149696582Y-51580112D01*
X149816280Y-51543802D01*
X149926594Y-51484837D01*
X150023285Y-51405485D01*
X150102637Y-51308794D01*
X150161602Y-51198480D01*
X150197912Y-51078782D01*
X150210172Y-50954300D01*
X150210172Y-50714300D01*
X156715028Y-50714300D01*
X156715028Y-50749100D01*
X156727288Y-50873582D01*
X156763598Y-50993280D01*
X156822563Y-51103594D01*
X156901915Y-51200285D01*
X156998606Y-51279637D01*
X157108920Y-51338602D01*
X157228618Y-51374912D01*
X157353100Y-51387172D01*
X158953100Y-51387172D01*
X159077582Y-51374912D01*
X159197280Y-51338602D01*
X159307594Y-51279637D01*
X159404285Y-51200285D01*
X159483637Y-51103594D01*
X159542602Y-50993280D01*
X159578912Y-50873582D01*
X159591172Y-50749100D01*
X159591172Y-49149100D01*
X159578912Y-49024618D01*
X159542602Y-48904920D01*
X159483637Y-48794606D01*
X159404285Y-48697915D01*
X159307594Y-48618563D01*
X159197280Y-48559598D01*
X159077582Y-48523288D01*
X158953100Y-48511028D01*
X157353100Y-48511028D01*
X157228618Y-48523288D01*
X157108920Y-48559598D01*
X156998606Y-48618563D01*
X156901915Y-48697915D01*
X156822563Y-48794606D01*
X156763598Y-48904920D01*
X156727288Y-49024618D01*
X156715028Y-49149100D01*
X156715028Y-49194300D01*
X150210172Y-49194300D01*
X150210172Y-48954300D01*
X150197912Y-48829818D01*
X150161602Y-48710120D01*
X150102637Y-48599806D01*
X150023285Y-48503115D01*
X149926594Y-48423763D01*
X149816280Y-48364798D01*
X149696582Y-48328488D01*
X149572100Y-48316228D01*
X147572100Y-48316228D01*
X147447618Y-48328488D01*
X147327920Y-48364798D01*
X147217606Y-48423763D01*
X147120915Y-48503115D01*
X147041563Y-48599806D01*
X146982598Y-48710120D01*
X146946288Y-48829818D01*
X146934028Y-48954300D01*
X143210172Y-48954300D01*
X143197912Y-48829818D01*
X143161602Y-48710120D01*
X143102637Y-48599806D01*
X143023285Y-48503115D01*
X142926594Y-48423763D01*
X142816280Y-48364798D01*
X142696582Y-48328488D01*
X142572100Y-48316228D01*
X141857850Y-48319300D01*
X141699100Y-48478050D01*
X141445100Y-48478050D01*
X141286350Y-48319300D01*
X140572100Y-48316228D01*
X140447618Y-48328488D01*
X140327920Y-48364798D01*
X140217606Y-48423763D01*
X140120915Y-48503115D01*
X140041563Y-48599806D01*
X139982598Y-48710120D01*
X139946288Y-48829818D01*
X139934028Y-48954300D01*
X138747001Y-48954300D01*
X144586802Y-43114500D01*
X149925573Y-43114500D01*
X149934628Y-43144351D01*
X150016695Y-43297887D01*
X150127138Y-43432462D01*
X150261713Y-43542905D01*
X150415249Y-43624972D01*
X150581845Y-43675508D01*
X150755099Y-43692572D01*
X151280101Y-43692572D01*
X151453355Y-43675508D01*
X151619951Y-43624972D01*
X151773487Y-43542905D01*
X151908062Y-43432462D01*
X151930100Y-43405609D01*
X151952138Y-43432462D01*
X152086713Y-43542905D01*
X152240249Y-43624972D01*
X152406845Y-43675508D01*
X152580099Y-43692572D01*
X153105101Y-43692572D01*
X153278355Y-43675508D01*
X153444951Y-43624972D01*
X153598487Y-43542905D01*
X153733062Y-43432462D01*
X153843505Y-43297887D01*
X153925572Y-43144351D01*
X153934627Y-43114500D01*
X156952028Y-43114500D01*
X157038463Y-43243859D01*
X157238341Y-43443737D01*
X157473373Y-43600780D01*
X157734526Y-43708953D01*
X158011765Y-43764100D01*
X158294435Y-43764100D01*
X158571674Y-43708953D01*
X158832827Y-43600780D01*
X159067859Y-43443737D01*
X159267737Y-43243859D01*
X159424780Y-43008827D01*
X159532953Y-42747674D01*
X159588100Y-42470435D01*
X159588100Y-42187765D01*
X159532953Y-41910526D01*
X159424780Y-41649373D01*
X159267737Y-41414341D01*
X159067859Y-41214463D01*
X158832827Y-41057420D01*
X158571674Y-40949247D01*
X158294435Y-40894100D01*
X158011765Y-40894100D01*
X157734526Y-40949247D01*
X157473373Y-41057420D01*
X157238341Y-41214463D01*
X157038463Y-41414341D01*
X156918085Y-41594500D01*
X153934627Y-41594500D01*
X153925572Y-41564649D01*
X153843505Y-41411113D01*
X153733062Y-41276538D01*
X153598487Y-41166095D01*
X153444951Y-41084028D01*
X153278355Y-41033492D01*
X153105101Y-41016428D01*
X152580099Y-41016428D01*
X152406845Y-41033492D01*
X152240249Y-41084028D01*
X152086713Y-41166095D01*
X151952138Y-41276538D01*
X151930100Y-41303391D01*
X151908062Y-41276538D01*
X151773487Y-41166095D01*
X151619951Y-41084028D01*
X151453355Y-41033492D01*
X151280101Y-41016428D01*
X150755099Y-41016428D01*
X150581845Y-41033492D01*
X150415249Y-41084028D01*
X150261713Y-41166095D01*
X150127138Y-41276538D01*
X150016695Y-41411113D01*
X149934628Y-41564649D01*
X149925573Y-41594500D01*
X145570426Y-41594500D01*
X145597976Y-41579774D01*
X145713701Y-41484801D01*
X145737504Y-41455797D01*
X147118692Y-40074610D01*
X147338840Y-40118400D01*
X147631360Y-40118400D01*
X147918258Y-40061332D01*
X148188511Y-39949390D01*
X148431732Y-39786875D01*
X148638575Y-39580032D01*
X148755100Y-39405640D01*
X148871625Y-39580032D01*
X149078468Y-39786875D01*
X149321689Y-39949390D01*
X149591942Y-40061332D01*
X149878840Y-40118400D01*
X150171360Y-40118400D01*
X150458258Y-40061332D01*
X150728511Y-39949390D01*
X150971732Y-39786875D01*
X151178575Y-39580032D01*
X151295100Y-39405640D01*
X151411625Y-39580032D01*
X151618468Y-39786875D01*
X151861689Y-39949390D01*
X152131942Y-40061332D01*
X152418840Y-40118400D01*
X152711360Y-40118400D01*
X152998258Y-40061332D01*
X153268511Y-39949390D01*
X153511732Y-39786875D01*
X153718575Y-39580032D01*
X153881090Y-39336811D01*
X153993032Y-39066558D01*
X154050100Y-38779660D01*
X154050100Y-38487140D01*
X153993032Y-38200242D01*
X153881090Y-37929989D01*
X153718575Y-37686768D01*
X153511732Y-37479925D01*
X153268511Y-37317410D01*
X152998258Y-37205468D01*
X152711360Y-37148400D01*
X152418840Y-37148400D01*
X152131942Y-37205468D01*
X151861689Y-37317410D01*
X151618468Y-37479925D01*
X151411625Y-37686768D01*
X151295100Y-37861160D01*
X151178575Y-37686768D01*
X150971732Y-37479925D01*
X150728511Y-37317410D01*
X150458258Y-37205468D01*
X150171360Y-37148400D01*
X149878840Y-37148400D01*
X149591942Y-37205468D01*
X149321689Y-37317410D01*
X149078468Y-37479925D01*
X148871625Y-37686768D01*
X148755100Y-37861160D01*
X148638575Y-37686768D01*
X148431732Y-37479925D01*
X148188511Y-37317410D01*
X147918258Y-37205468D01*
X147631360Y-37148400D01*
X147338840Y-37148400D01*
X147051942Y-37205468D01*
X146781689Y-37317410D01*
X146538468Y-37479925D01*
X146331625Y-37686768D01*
X146215100Y-37861160D01*
X146098575Y-37686768D01*
X145891732Y-37479925D01*
X145648511Y-37317410D01*
X145378258Y-37205468D01*
X145091360Y-37148400D01*
X144798840Y-37148400D01*
X144511942Y-37205468D01*
X144241689Y-37317410D01*
X143998468Y-37479925D01*
X143791625Y-37686768D01*
X143675100Y-37861160D01*
X143558575Y-37686768D01*
X143351732Y-37479925D01*
X143108511Y-37317410D01*
X142838258Y-37205468D01*
X142551360Y-37148400D01*
X142258840Y-37148400D01*
X141971942Y-37205468D01*
X141701689Y-37317410D01*
X141458468Y-37479925D01*
X141251625Y-37686768D01*
X141135100Y-37861160D01*
X141018575Y-37686768D01*
X140811732Y-37479925D01*
X140568511Y-37317410D01*
X140298258Y-37205468D01*
X140011360Y-37148400D01*
X139718840Y-37148400D01*
X139431942Y-37205468D01*
X139161689Y-37317410D01*
X138918468Y-37479925D01*
X138786613Y-37611780D01*
X138764602Y-37539220D01*
X138705637Y-37428906D01*
X138626285Y-37332215D01*
X138529594Y-37252863D01*
X138419280Y-37193898D01*
X138299582Y-37157588D01*
X138175100Y-37145328D01*
X137610850Y-37148400D01*
X137452100Y-37307150D01*
X137452100Y-38506400D01*
X137472100Y-38506400D01*
X137472100Y-38760400D01*
X137452100Y-38760400D01*
X137452100Y-39959650D01*
X137610850Y-40118400D01*
X138175100Y-40121472D01*
X138299582Y-40109212D01*
X138419280Y-40072902D01*
X138529594Y-40013937D01*
X138626285Y-39934585D01*
X138705637Y-39837894D01*
X138764602Y-39727580D01*
X138786613Y-39655020D01*
X138918468Y-39786875D01*
X139161689Y-39949390D01*
X139431942Y-40061332D01*
X139718840Y-40118400D01*
X139845299Y-40118400D01*
X139321699Y-40642000D01*
X122450702Y-40642000D01*
X121806341Y-39997640D01*
X121861580Y-39930331D01*
X121970230Y-40062721D01*
X122219114Y-40266974D01*
X122503062Y-40418748D01*
X122811165Y-40512210D01*
X123131580Y-40543768D01*
X123451996Y-40512210D01*
X123760099Y-40418748D01*
X124044047Y-40266974D01*
X124292931Y-40062721D01*
X124401580Y-39930331D01*
X124510230Y-40062721D01*
X124759114Y-40266974D01*
X125043062Y-40418748D01*
X125351165Y-40512210D01*
X125671580Y-40543768D01*
X125991996Y-40512210D01*
X126300099Y-40418748D01*
X126584047Y-40266974D01*
X126832931Y-40062721D01*
X126941580Y-39930331D01*
X127050230Y-40062721D01*
X127299114Y-40266974D01*
X127583062Y-40418748D01*
X127891165Y-40512210D01*
X128211580Y-40543768D01*
X128531996Y-40512210D01*
X128840099Y-40418748D01*
X129124047Y-40266974D01*
X129372931Y-40062721D01*
X129481580Y-39930331D01*
X129590230Y-40062721D01*
X129839114Y-40266974D01*
X130123062Y-40418748D01*
X130431165Y-40512210D01*
X130751580Y-40543768D01*
X131071996Y-40512210D01*
X131380099Y-40418748D01*
X131664047Y-40266974D01*
X131912931Y-40062721D01*
X132117184Y-39813837D01*
X132268958Y-39529889D01*
X132283060Y-39483400D01*
X135837028Y-39483400D01*
X135849288Y-39607882D01*
X135885598Y-39727580D01*
X135944563Y-39837894D01*
X136023915Y-39934585D01*
X136120606Y-40013937D01*
X136230920Y-40072902D01*
X136350618Y-40109212D01*
X136475100Y-40121472D01*
X137039350Y-40118400D01*
X137198100Y-39959650D01*
X137198100Y-38760400D01*
X135998850Y-38760400D01*
X135840100Y-38919150D01*
X135837028Y-39483400D01*
X132283060Y-39483400D01*
X132362420Y-39221786D01*
X132386070Y-38981661D01*
X132386070Y-38071778D01*
X132362420Y-37831654D01*
X132347783Y-37783400D01*
X135837028Y-37783400D01*
X135840100Y-38347650D01*
X135998850Y-38506400D01*
X137198100Y-38506400D01*
X137198100Y-37307150D01*
X137039350Y-37148400D01*
X136475100Y-37145328D01*
X136350618Y-37157588D01*
X136230920Y-37193898D01*
X136120606Y-37252863D01*
X136023915Y-37332215D01*
X135944563Y-37428906D01*
X135885598Y-37539220D01*
X135849288Y-37658918D01*
X135837028Y-37783400D01*
X132347783Y-37783400D01*
X132268958Y-37523551D01*
X132117184Y-37239603D01*
X131912931Y-36990719D01*
X131664046Y-36786466D01*
X131380098Y-36634692D01*
X131071995Y-36541230D01*
X130751580Y-36509672D01*
X130431164Y-36541230D01*
X130123061Y-36634692D01*
X129839113Y-36786466D01*
X129590229Y-36990719D01*
X129481580Y-37123109D01*
X129372931Y-36990719D01*
X129124046Y-36786466D01*
X128840098Y-36634692D01*
X128531995Y-36541230D01*
X128211580Y-36509672D01*
X127891164Y-36541230D01*
X127583061Y-36634692D01*
X127299113Y-36786466D01*
X127050229Y-36990719D01*
X126941580Y-37123109D01*
X126832931Y-36990719D01*
X126584046Y-36786466D01*
X126300098Y-36634692D01*
X125991995Y-36541230D01*
X125671580Y-36509672D01*
X125351164Y-36541230D01*
X125043061Y-36634692D01*
X124759113Y-36786466D01*
X124510229Y-36990719D01*
X124401580Y-37123109D01*
X124292931Y-36990719D01*
X124044046Y-36786466D01*
X123760098Y-36634692D01*
X123451995Y-36541230D01*
X123131580Y-36509672D01*
X122811164Y-36541230D01*
X122503061Y-36634692D01*
X122219113Y-36786466D01*
X121970229Y-36990719D01*
X121861580Y-37123109D01*
X121752931Y-36990719D01*
X121504046Y-36786466D01*
X121220098Y-36634692D01*
X120911995Y-36541230D01*
X120591580Y-36509672D01*
X120271164Y-36541230D01*
X119963061Y-36634692D01*
X119679113Y-36786466D01*
X119430229Y-36990719D01*
X119323332Y-37120975D01*
X119117536Y-36906508D01*
X118854057Y-36722483D01*
X118559739Y-36593397D01*
X118431934Y-36562451D01*
X118178580Y-36681805D01*
X118178580Y-38399720D01*
X118198580Y-38399720D01*
X118198580Y-38653720D01*
X118178580Y-38653720D01*
X118178580Y-40371635D01*
X118431934Y-40490989D01*
X118559739Y-40460043D01*
X118854057Y-40330957D01*
X119117536Y-40146932D01*
X119323332Y-39932465D01*
X119430230Y-40062721D01*
X119679114Y-40266974D01*
X119963062Y-40418748D01*
X120127828Y-40468729D01*
X121572101Y-41913003D01*
X121595899Y-41942001D01*
X121711624Y-42036974D01*
X121843653Y-42107546D01*
X121986914Y-42151003D01*
X122098567Y-42162000D01*
X122098576Y-42162000D01*
X122135899Y-42165676D01*
X122173222Y-42162000D01*
X139599178Y-42162000D01*
X139636500Y-42165676D01*
X139665210Y-42162848D01*
X128963074Y-52864985D01*
X128840098Y-52799252D01*
X128531995Y-52705790D01*
X128211580Y-52674232D01*
X127891164Y-52705790D01*
X127583061Y-52799252D01*
X127299113Y-52951026D01*
X127050229Y-53155279D01*
X126941580Y-53287669D01*
X126832931Y-53155279D01*
X126584046Y-52951026D01*
X126300098Y-52799252D01*
X125991995Y-52705790D01*
X125671580Y-52674232D01*
X125351164Y-52705790D01*
X125043061Y-52799252D01*
X124759113Y-52951026D01*
X124510229Y-53155279D01*
X124401580Y-53287669D01*
X124292931Y-53155279D01*
X124044046Y-52951026D01*
X123760098Y-52799252D01*
X123451995Y-52705790D01*
X123131580Y-52674232D01*
X122811164Y-52705790D01*
X122503061Y-52799252D01*
X122219113Y-52951026D01*
X121970229Y-53155279D01*
X121861580Y-53287669D01*
X121752931Y-53155279D01*
X121504046Y-52951026D01*
X121220098Y-52799252D01*
X120911995Y-52705790D01*
X120591580Y-52674232D01*
X120271164Y-52705790D01*
X119963061Y-52799252D01*
X119679113Y-52951026D01*
X119430229Y-53155279D01*
X119321580Y-53287669D01*
X119212931Y-53155279D01*
X118964046Y-52951026D01*
X118680098Y-52799252D01*
X118371995Y-52705790D01*
X118051580Y-52674232D01*
X117731164Y-52705790D01*
X117423061Y-52799252D01*
X117139113Y-52951026D01*
X116890229Y-53155279D01*
X116781580Y-53287669D01*
X116672931Y-53155279D01*
X116424046Y-52951026D01*
X116140098Y-52799252D01*
X115831995Y-52705790D01*
X115511580Y-52674232D01*
X115191164Y-52705790D01*
X114883061Y-52799252D01*
X114599113Y-52951026D01*
X114350229Y-53155279D01*
X114145976Y-53404164D01*
X113994202Y-53688112D01*
X113900740Y-53996215D01*
X113877090Y-54236339D01*
X113220100Y-54236339D01*
X113220100Y-47706767D01*
X113618713Y-47706767D01*
X113618713Y-47944427D01*
X113665078Y-48177520D01*
X113756026Y-48397089D01*
X113888063Y-48594696D01*
X114056114Y-48762747D01*
X114253721Y-48894784D01*
X114473290Y-48985732D01*
X114706383Y-49032097D01*
X114944043Y-49032097D01*
X115177136Y-48985732D01*
X115396705Y-48894784D01*
X115594312Y-48762747D01*
X115762363Y-48594696D01*
X115894400Y-48397089D01*
X115985348Y-48177520D01*
X116031713Y-47944427D01*
X116031713Y-47706767D01*
X116158713Y-47706767D01*
X116158713Y-47944427D01*
X116205078Y-48177520D01*
X116296026Y-48397089D01*
X116428063Y-48594696D01*
X116596114Y-48762747D01*
X116793721Y-48894784D01*
X117013290Y-48985732D01*
X117246383Y-49032097D01*
X117484043Y-49032097D01*
X117717136Y-48985732D01*
X117936705Y-48894784D01*
X118134312Y-48762747D01*
X118302363Y-48594696D01*
X118434400Y-48397089D01*
X118525348Y-48177520D01*
X118571713Y-47944427D01*
X118571713Y-47824400D01*
X130172870Y-47824400D01*
X130194939Y-48048467D01*
X130260297Y-48263923D01*
X130366432Y-48462489D01*
X130509267Y-48636533D01*
X130683311Y-48779368D01*
X130881877Y-48885503D01*
X131097333Y-48950861D01*
X131265254Y-48967400D01*
X132393546Y-48967400D01*
X132561467Y-48950861D01*
X132776923Y-48885503D01*
X132975489Y-48779368D01*
X133149533Y-48636533D01*
X133292368Y-48462489D01*
X133398503Y-48263923D01*
X133463861Y-48048467D01*
X133485930Y-47824400D01*
X133463861Y-47600333D01*
X133398503Y-47384877D01*
X133292368Y-47186311D01*
X133149533Y-47012267D01*
X132975489Y-46869432D01*
X132776923Y-46763297D01*
X132561467Y-46697939D01*
X132393546Y-46681400D01*
X131265254Y-46681400D01*
X131097333Y-46697939D01*
X130881877Y-46763297D01*
X130683311Y-46869432D01*
X130509267Y-47012267D01*
X130366432Y-47186311D01*
X130260297Y-47384877D01*
X130194939Y-47600333D01*
X130172870Y-47824400D01*
X118571713Y-47824400D01*
X118571713Y-47706767D01*
X118525348Y-47473674D01*
X118434400Y-47254105D01*
X118302363Y-47056498D01*
X118134312Y-46888447D01*
X117936705Y-46756410D01*
X117717136Y-46665462D01*
X117484043Y-46619097D01*
X117246383Y-46619097D01*
X117013290Y-46665462D01*
X116793721Y-46756410D01*
X116596114Y-46888447D01*
X116428063Y-47056498D01*
X116296026Y-47254105D01*
X116205078Y-47473674D01*
X116158713Y-47706767D01*
X116031713Y-47706767D01*
X115985348Y-47473674D01*
X115894400Y-47254105D01*
X115762363Y-47056498D01*
X115594312Y-46888447D01*
X115396705Y-46756410D01*
X115177136Y-46665462D01*
X114944043Y-46619097D01*
X114706383Y-46619097D01*
X114473290Y-46665462D01*
X114253721Y-46756410D01*
X114056114Y-46888447D01*
X113888063Y-47056498D01*
X113756026Y-47254105D01*
X113665078Y-47473674D01*
X113618713Y-47706767D01*
X113220100Y-47706767D01*
X113220100Y-45166767D01*
X113618713Y-45166767D01*
X113618713Y-45404427D01*
X113665078Y-45637520D01*
X113756026Y-45857089D01*
X113888063Y-46054696D01*
X114056114Y-46222747D01*
X114253721Y-46354784D01*
X114473290Y-46445732D01*
X114706383Y-46492097D01*
X114944043Y-46492097D01*
X115177136Y-46445732D01*
X115396705Y-46354784D01*
X115594312Y-46222747D01*
X115702092Y-46114967D01*
X116715448Y-46114967D01*
X116759284Y-46335651D01*
X116975782Y-46433685D01*
X117207246Y-46487599D01*
X117444780Y-46495320D01*
X117679256Y-46456553D01*
X117901664Y-46372786D01*
X117971142Y-46335651D01*
X118014978Y-46114967D01*
X117365213Y-45465202D01*
X116715448Y-46114967D01*
X115702092Y-46114967D01*
X115762363Y-46054696D01*
X115894400Y-45857089D01*
X115985348Y-45637520D01*
X116031713Y-45404427D01*
X116031713Y-45365164D01*
X116155490Y-45365164D01*
X116194257Y-45599640D01*
X116278024Y-45822048D01*
X116315159Y-45891526D01*
X116535843Y-45935362D01*
X117185608Y-45285597D01*
X117544818Y-45285597D01*
X118194583Y-45935362D01*
X118415267Y-45891526D01*
X118513301Y-45675028D01*
X118536009Y-45577534D01*
X130219329Y-45577534D01*
X130300474Y-45803820D01*
X130423375Y-45992820D01*
X130580787Y-46154212D01*
X130766660Y-46281793D01*
X130973852Y-46370661D01*
X131194400Y-46417400D01*
X131702400Y-46417400D01*
X131702400Y-45401400D01*
X131956400Y-45401400D01*
X131956400Y-46417400D01*
X132464400Y-46417400D01*
X132684948Y-46370661D01*
X132892140Y-46281793D01*
X133078013Y-46154212D01*
X133235425Y-45992820D01*
X133358326Y-45803820D01*
X133439471Y-45577534D01*
X133313422Y-45401400D01*
X131956400Y-45401400D01*
X131702400Y-45401400D01*
X130345378Y-45401400D01*
X130219329Y-45577534D01*
X118536009Y-45577534D01*
X118567215Y-45443564D01*
X118574936Y-45206030D01*
X118536169Y-44971554D01*
X118536061Y-44971266D01*
X130219329Y-44971266D01*
X130345378Y-45147400D01*
X131702400Y-45147400D01*
X131702400Y-44131400D01*
X131956400Y-44131400D01*
X131956400Y-45147400D01*
X133313422Y-45147400D01*
X133439471Y-44971266D01*
X133358326Y-44744980D01*
X133235425Y-44555980D01*
X133078013Y-44394588D01*
X132892140Y-44267007D01*
X132684948Y-44178139D01*
X132464400Y-44131400D01*
X131956400Y-44131400D01*
X131702400Y-44131400D01*
X131194400Y-44131400D01*
X130973852Y-44178139D01*
X130766660Y-44267007D01*
X130580787Y-44394588D01*
X130423375Y-44555980D01*
X130300474Y-44744980D01*
X130219329Y-44971266D01*
X118536061Y-44971266D01*
X118452402Y-44749146D01*
X118415267Y-44679668D01*
X118194583Y-44635832D01*
X117544818Y-45285597D01*
X117185608Y-45285597D01*
X116535843Y-44635832D01*
X116315159Y-44679668D01*
X116217125Y-44896166D01*
X116163211Y-45127630D01*
X116155490Y-45365164D01*
X116031713Y-45365164D01*
X116031713Y-45166767D01*
X115985348Y-44933674D01*
X115894400Y-44714105D01*
X115762363Y-44516498D01*
X115702092Y-44456227D01*
X116715448Y-44456227D01*
X117365213Y-45105992D01*
X118014978Y-44456227D01*
X117971142Y-44235543D01*
X117754644Y-44137509D01*
X117523180Y-44083595D01*
X117285646Y-44075874D01*
X117051170Y-44114641D01*
X116828762Y-44198408D01*
X116759284Y-44235543D01*
X116715448Y-44456227D01*
X115702092Y-44456227D01*
X115594312Y-44348447D01*
X115396705Y-44216410D01*
X115177136Y-44125462D01*
X114944043Y-44079097D01*
X114706383Y-44079097D01*
X114473290Y-44125462D01*
X114253721Y-44216410D01*
X114056114Y-44348447D01*
X113888063Y-44516498D01*
X113756026Y-44714105D01*
X113665078Y-44933674D01*
X113618713Y-45166767D01*
X113220100Y-45166767D01*
X113220100Y-38071779D01*
X113877090Y-38071779D01*
X113877090Y-38981662D01*
X113900740Y-39221786D01*
X113994202Y-39529889D01*
X114145976Y-39813837D01*
X114350230Y-40062721D01*
X114599114Y-40266974D01*
X114883062Y-40418748D01*
X115191165Y-40512210D01*
X115511580Y-40543768D01*
X115831996Y-40512210D01*
X116140099Y-40418748D01*
X116424047Y-40266974D01*
X116672931Y-40062721D01*
X116779829Y-39932465D01*
X116985624Y-40146932D01*
X117249103Y-40330957D01*
X117543421Y-40460043D01*
X117671226Y-40490989D01*
X117924580Y-40371635D01*
X117924580Y-38653720D01*
X117904580Y-38653720D01*
X117904580Y-38399720D01*
X117924580Y-38399720D01*
X117924580Y-36681805D01*
X117671226Y-36562451D01*
X117543421Y-36593397D01*
X117249103Y-36722483D01*
X116985624Y-36906508D01*
X116779829Y-37120975D01*
X116672931Y-36990719D01*
X116424046Y-36786466D01*
X116140098Y-36634692D01*
X115831995Y-36541230D01*
X115511580Y-36509672D01*
X115191164Y-36541230D01*
X114883061Y-36634692D01*
X114599113Y-36786466D01*
X114350229Y-36990719D01*
X114145976Y-37239604D01*
X113994202Y-37523552D01*
X113900740Y-37831655D01*
X113877090Y-38071779D01*
X113220100Y-38071779D01*
X113220100Y-32913395D01*
X114778800Y-32913395D01*
X114778800Y-33304405D01*
X114855082Y-33687903D01*
X115004715Y-34049150D01*
X115221949Y-34374264D01*
X115498436Y-34650751D01*
X115823550Y-34867985D01*
X116184797Y-35017618D01*
X116568295Y-35093900D01*
X116959305Y-35093900D01*
X117342803Y-35017618D01*
X117704050Y-34867985D01*
X118029164Y-34650751D01*
X118305651Y-34374264D01*
X118522885Y-34049150D01*
X118672518Y-33687903D01*
X118748800Y-33304405D01*
X118748800Y-32913395D01*
X155710900Y-32913395D01*
X155710900Y-33304405D01*
X155787182Y-33687903D01*
X155936815Y-34049150D01*
X156154049Y-34374264D01*
X156430536Y-34650751D01*
X156755650Y-34867985D01*
X157116897Y-35017618D01*
X157500395Y-35093900D01*
X157891405Y-35093900D01*
X158274903Y-35017618D01*
X158636150Y-34867985D01*
X158961264Y-34650751D01*
X159237751Y-34374264D01*
X159454985Y-34049150D01*
X159604618Y-33687903D01*
X159680900Y-33304405D01*
X159680900Y-32913395D01*
X159604618Y-32529897D01*
X159454985Y-32168650D01*
X159237751Y-31843536D01*
X158961264Y-31567049D01*
X158636150Y-31349815D01*
X158274903Y-31200182D01*
X157891405Y-31123900D01*
X157500395Y-31123900D01*
X157116897Y-31200182D01*
X156755650Y-31349815D01*
X156430536Y-31567049D01*
X156154049Y-31843536D01*
X155936815Y-32168650D01*
X155787182Y-32529897D01*
X155710900Y-32913395D01*
X118748800Y-32913395D01*
X118672518Y-32529897D01*
X118522885Y-32168650D01*
X118305651Y-31843536D01*
X118029164Y-31567049D01*
X117704050Y-31349815D01*
X117342803Y-31200182D01*
X116959305Y-31123900D01*
X116568295Y-31123900D01*
X116184797Y-31200182D01*
X115823550Y-31349815D01*
X115498436Y-31567049D01*
X115221949Y-31843536D01*
X115004715Y-32168650D01*
X114855082Y-32529897D01*
X114778800Y-32913395D01*
X113220100Y-32913395D01*
X113220100Y-30797100D01*
X160376001Y-30797100D01*
X160376000Y-62624100D01*
G37*
%TD.AperFunction*%
%TD*%
M02*
