%TF.GenerationSoftware,KiCad,Pcbnew,(5.1.9)-1*%
%TF.CreationDate,2021-04-21T20:58:21+02:00*%
%TF.ProjectId,Air-Quality,4169722d-5175-4616-9c69-74792e6b6963,rev?*%
%TF.SameCoordinates,Original*%
%TF.FileFunction,Copper,L1,Top*%
%TF.FilePolarity,Positive*%
%FSLAX46Y46*%
G04 Gerber Fmt 4.6, Leading zero omitted, Abs format (unit mm)*
G04 Created by KiCad (PCBNEW (5.1.9)-1) date 2021-04-21 20:58:21*
%MOMM*%
%LPD*%
G01*
G04 APERTURE LIST*
%TA.AperFunction,SMDPad,CuDef*%
%ADD10R,2.000000X2.000000*%
%TD*%
%TA.AperFunction,ComponentPad*%
%ADD11O,1.700000X1.700000*%
%TD*%
%TA.AperFunction,ComponentPad*%
%ADD12R,1.700000X1.700000*%
%TD*%
%TA.AperFunction,SMDPad,CuDef*%
%ADD13R,3.500000X1.700000*%
%TD*%
%TA.AperFunction,SMDPad,CuDef*%
%ADD14R,1.700000X3.500000*%
%TD*%
%TA.AperFunction,ComponentPad*%
%ADD15C,2.000000*%
%TD*%
%TA.AperFunction,ComponentPad*%
%ADD16R,1.600000X1.600000*%
%TD*%
%TA.AperFunction,ComponentPad*%
%ADD17O,1.600000X1.600000*%
%TD*%
%TA.AperFunction,ViaPad*%
%ADD18C,0.800000*%
%TD*%
%TA.AperFunction,Conductor*%
%ADD19C,0.250000*%
%TD*%
%TA.AperFunction,Conductor*%
%ADD20C,0.254000*%
%TD*%
%TA.AperFunction,Conductor*%
%ADD21C,0.100000*%
%TD*%
G04 APERTURE END LIST*
D10*
%TO.P,BZ1,1*%
%TO.N,Net-(BZ1-Pad1)*%
X183119000Y-101813600D03*
%TO.P,BZ1,2*%
%TO.N,GND*%
X183119000Y-108813600D03*
%TO.P,BZ1,3*%
%TO.N,N/C*%
X190119000Y-108813600D03*
%TO.P,BZ1,4*%
X190119000Y-101813600D03*
%TD*%
D11*
%TO.P,U1,1*%
%TO.N,/SDA*%
X177910000Y-64160001D03*
%TO.P,U1,2*%
%TO.N,/SCL*%
X177910000Y-66700001D03*
D12*
%TO.P,U1,3*%
%TO.N,GND*%
X177910000Y-69240001D03*
D11*
%TO.P,U1,4*%
%TO.N,Net-(R1-Pad1)*%
X177910000Y-71780001D03*
%TO.P,U1,5*%
%TO.N,Net-(R2-Pad1)*%
X177910000Y-74320001D03*
%TO.P,U1,6*%
%TO.N,Net-(R3-Pad1)*%
X177910000Y-76860001D03*
%TO.P,U1,7*%
%TO.N,Net-(R4-Pad1)*%
X177910000Y-79400001D03*
D12*
%TO.P,U1,8*%
%TO.N,GND*%
X177910000Y-81940001D03*
D11*
%TO.P,U1,9*%
%TO.N,Net-(R5-Pad1)*%
X177910000Y-84480001D03*
%TO.P,U1,10*%
%TO.N,Net-(U1-Pad10)*%
X177910000Y-87020001D03*
%TO.P,U1,11*%
%TO.N,Net-(U1-Pad11)*%
X177910000Y-89560001D03*
%TO.P,U1,12*%
%TO.N,Net-(U1-Pad12)*%
X177910000Y-92100001D03*
D12*
%TO.P,U1,13*%
%TO.N,GND*%
X177910000Y-94640001D03*
D11*
%TO.P,U1,14*%
%TO.N,Net-(U1-Pad14)*%
X177910000Y-97180001D03*
%TO.P,U1,15*%
%TO.N,Net-(U1-Pad15)*%
X177910000Y-99720001D03*
%TO.P,U1,16*%
%TO.N,Net-(U1-Pad16)*%
X177910000Y-102260001D03*
%TO.P,U1,17*%
%TO.N,Net-(U1-Pad17)*%
X177910000Y-104800001D03*
D12*
%TO.P,U1,18*%
%TO.N,GND*%
X177910000Y-107340001D03*
D11*
%TO.P,U1,19*%
%TO.N,Net-(U1-Pad19)*%
X177910000Y-109880001D03*
%TO.P,U1,20*%
%TO.N,Net-(U1-Pad20)*%
X177910000Y-112420001D03*
%TO.P,U1,21*%
%TO.N,Net-(R6-Pad1)*%
X195690000Y-112420001D03*
%TO.P,U1,22*%
%TO.N,Net-(U1-Pad22)*%
X195690000Y-109880001D03*
D12*
%TO.P,U1,23*%
%TO.N,GND*%
X195690000Y-107340001D03*
D11*
%TO.P,U1,24*%
%TO.N,Net-(U1-Pad24)*%
X195690000Y-104800001D03*
%TO.P,U1,25*%
%TO.N,Net-(U1-Pad25)*%
X195690000Y-102260001D03*
%TO.P,U1,26*%
%TO.N,Net-(U1-Pad26)*%
X195690000Y-99720001D03*
%TO.P,U1,27*%
%TO.N,Net-(U1-Pad27)*%
X195690000Y-97180001D03*
D12*
%TO.P,U1,28*%
%TO.N,GND*%
X195690000Y-94640001D03*
D11*
%TO.P,U1,29*%
%TO.N,Net-(R7-Pad1)*%
X195690000Y-92100001D03*
%TO.P,U1,30*%
%TO.N,Net-(U1-Pad30)*%
X195690000Y-89560001D03*
%TO.P,U1,31*%
%TO.N,Net-(U1-Pad31)*%
X195690000Y-87020001D03*
%TO.P,U1,32*%
%TO.N,Net-(U1-Pad32)*%
X195690000Y-84480001D03*
D12*
%TO.P,U1,33*%
%TO.N,GND*%
X195690000Y-81940001D03*
D11*
%TO.P,U1,34*%
%TO.N,Net-(U1-Pad34)*%
X195690000Y-79400001D03*
%TO.P,U1,35*%
%TO.N,Net-(U1-Pad35)*%
X195690000Y-76860001D03*
%TO.P,U1,36*%
%TO.N,+3V3*%
X195690000Y-74320001D03*
%TO.P,U1,37*%
%TO.N,Net-(U1-Pad37)*%
X195690000Y-71780001D03*
D12*
%TO.P,U1,38*%
%TO.N,GND*%
X195690000Y-69240001D03*
D11*
%TO.P,U1,39*%
%TO.N,Net-(U1-Pad39)*%
X195690000Y-66700001D03*
%TO.P,U1,40*%
%TO.N,Net-(U1-Pad40)*%
X195690000Y-64160001D03*
D13*
%TO.P,U1,1*%
%TO.N,/SDA*%
X177010000Y-64160001D03*
%TO.P,U1,2*%
%TO.N,/SCL*%
X177010000Y-66700001D03*
%TO.P,U1,3*%
%TO.N,GND*%
X177010000Y-69240001D03*
%TO.P,U1,4*%
%TO.N,Net-(R1-Pad1)*%
X177010000Y-71780001D03*
%TO.P,U1,5*%
%TO.N,Net-(R2-Pad1)*%
X177010000Y-74320001D03*
%TO.P,U1,6*%
%TO.N,Net-(R3-Pad1)*%
X177010000Y-76860001D03*
%TO.P,U1,7*%
%TO.N,Net-(R4-Pad1)*%
X177010000Y-79400001D03*
%TO.P,U1,8*%
%TO.N,GND*%
X177010000Y-81940001D03*
%TO.P,U1,9*%
%TO.N,Net-(R5-Pad1)*%
X177010000Y-84480001D03*
%TO.P,U1,10*%
%TO.N,Net-(U1-Pad10)*%
X177010000Y-87020001D03*
%TO.P,U1,11*%
%TO.N,Net-(U1-Pad11)*%
X177010000Y-89560001D03*
%TO.P,U1,12*%
%TO.N,Net-(U1-Pad12)*%
X177010000Y-92100001D03*
%TO.P,U1,13*%
%TO.N,GND*%
X177010000Y-94640001D03*
%TO.P,U1,14*%
%TO.N,Net-(U1-Pad14)*%
X177010000Y-97180001D03*
%TO.P,U1,15*%
%TO.N,Net-(U1-Pad15)*%
X177010000Y-99720001D03*
%TO.P,U1,16*%
%TO.N,Net-(U1-Pad16)*%
X177010000Y-102260001D03*
%TO.P,U1,17*%
%TO.N,Net-(U1-Pad17)*%
X177010000Y-104800001D03*
%TO.P,U1,18*%
%TO.N,GND*%
X177010000Y-107340001D03*
%TO.P,U1,19*%
%TO.N,Net-(U1-Pad19)*%
X177010000Y-109880001D03*
%TO.P,U1,20*%
%TO.N,Net-(U1-Pad20)*%
X177010000Y-112420001D03*
%TO.P,U1,40*%
%TO.N,Net-(U1-Pad40)*%
X196590000Y-64160001D03*
%TO.P,U1,39*%
%TO.N,Net-(U1-Pad39)*%
X196590000Y-66700001D03*
%TO.P,U1,38*%
%TO.N,GND*%
X196590000Y-69240001D03*
%TO.P,U1,37*%
%TO.N,Net-(U1-Pad37)*%
X196590000Y-71780001D03*
%TO.P,U1,36*%
%TO.N,+3V3*%
X196590000Y-74320001D03*
%TO.P,U1,35*%
%TO.N,Net-(U1-Pad35)*%
X196590000Y-76860001D03*
%TO.P,U1,34*%
%TO.N,Net-(U1-Pad34)*%
X196590000Y-79400001D03*
%TO.P,U1,33*%
%TO.N,GND*%
X196590000Y-81940001D03*
%TO.P,U1,32*%
%TO.N,Net-(U1-Pad32)*%
X196590000Y-84480001D03*
%TO.P,U1,31*%
%TO.N,Net-(U1-Pad31)*%
X196590000Y-87020001D03*
%TO.P,U1,30*%
%TO.N,Net-(U1-Pad30)*%
X196590000Y-89560001D03*
%TO.P,U1,29*%
%TO.N,Net-(R7-Pad1)*%
X196590000Y-92100001D03*
%TO.P,U1,28*%
%TO.N,GND*%
X196590000Y-94640001D03*
%TO.P,U1,27*%
%TO.N,Net-(U1-Pad27)*%
X196590000Y-97180001D03*
%TO.P,U1,26*%
%TO.N,Net-(U1-Pad26)*%
X196590000Y-99720001D03*
%TO.P,U1,25*%
%TO.N,Net-(U1-Pad25)*%
X196590000Y-102260001D03*
%TO.P,U1,24*%
%TO.N,Net-(U1-Pad24)*%
X196590000Y-104800001D03*
%TO.P,U1,23*%
%TO.N,GND*%
X196590000Y-107340001D03*
%TO.P,U1,22*%
%TO.N,Net-(U1-Pad22)*%
X196590000Y-109880001D03*
%TO.P,U1,21*%
%TO.N,Net-(R6-Pad1)*%
X196590000Y-112420001D03*
D14*
%TO.P,U1,41*%
%TO.N,Net-(U1-Pad41)*%
X184260000Y-113090001D03*
D11*
X184260000Y-112190001D03*
D14*
%TO.P,U1,42*%
%TO.N,GND*%
X186800000Y-113090001D03*
D12*
X186800000Y-112190001D03*
D14*
%TO.P,U1,43*%
%TO.N,Net-(U1-Pad43)*%
X189340000Y-113090001D03*
D11*
X189340000Y-112190001D03*
%TD*%
%TO.P,D1,2*%
%TO.N,Net-(D1-Pad2)*%
%TA.AperFunction,SMDPad,CuDef*%
G36*
G01*
X186542500Y-73889550D02*
X186542500Y-74802050D01*
G75*
G02*
X186298750Y-75045800I-243750J0D01*
G01*
X185811250Y-75045800D01*
G75*
G02*
X185567500Y-74802050I0J243750D01*
G01*
X185567500Y-73889550D01*
G75*
G02*
X185811250Y-73645800I243750J0D01*
G01*
X186298750Y-73645800D01*
G75*
G02*
X186542500Y-73889550I0J-243750D01*
G01*
G37*
%TD.AperFunction*%
%TO.P,D1,1*%
%TO.N,GND*%
%TA.AperFunction,SMDPad,CuDef*%
G36*
G01*
X188417500Y-73889550D02*
X188417500Y-74802050D01*
G75*
G02*
X188173750Y-75045800I-243750J0D01*
G01*
X187686250Y-75045800D01*
G75*
G02*
X187442500Y-74802050I0J243750D01*
G01*
X187442500Y-73889550D01*
G75*
G02*
X187686250Y-73645800I243750J0D01*
G01*
X188173750Y-73645800D01*
G75*
G02*
X188417500Y-73889550I0J-243750D01*
G01*
G37*
%TD.AperFunction*%
%TD*%
%TO.P,D2,1*%
%TO.N,GND*%
%TA.AperFunction,SMDPad,CuDef*%
G36*
G01*
X188442900Y-76429550D02*
X188442900Y-77342050D01*
G75*
G02*
X188199150Y-77585800I-243750J0D01*
G01*
X187711650Y-77585800D01*
G75*
G02*
X187467900Y-77342050I0J243750D01*
G01*
X187467900Y-76429550D01*
G75*
G02*
X187711650Y-76185800I243750J0D01*
G01*
X188199150Y-76185800D01*
G75*
G02*
X188442900Y-76429550I0J-243750D01*
G01*
G37*
%TD.AperFunction*%
%TO.P,D2,2*%
%TO.N,Net-(D2-Pad2)*%
%TA.AperFunction,SMDPad,CuDef*%
G36*
G01*
X186567900Y-76429550D02*
X186567900Y-77342050D01*
G75*
G02*
X186324150Y-77585800I-243750J0D01*
G01*
X185836650Y-77585800D01*
G75*
G02*
X185592900Y-77342050I0J243750D01*
G01*
X185592900Y-76429550D01*
G75*
G02*
X185836650Y-76185800I243750J0D01*
G01*
X186324150Y-76185800D01*
G75*
G02*
X186567900Y-76429550I0J-243750D01*
G01*
G37*
%TD.AperFunction*%
%TD*%
%TO.P,D3,2*%
%TO.N,Net-(D3-Pad2)*%
%TA.AperFunction,SMDPad,CuDef*%
G36*
G01*
X186572500Y-78969550D02*
X186572500Y-79882050D01*
G75*
G02*
X186328750Y-80125800I-243750J0D01*
G01*
X185841250Y-80125800D01*
G75*
G02*
X185597500Y-79882050I0J243750D01*
G01*
X185597500Y-78969550D01*
G75*
G02*
X185841250Y-78725800I243750J0D01*
G01*
X186328750Y-78725800D01*
G75*
G02*
X186572500Y-78969550I0J-243750D01*
G01*
G37*
%TD.AperFunction*%
%TO.P,D3,1*%
%TO.N,GND*%
%TA.AperFunction,SMDPad,CuDef*%
G36*
G01*
X188447500Y-78969550D02*
X188447500Y-79882050D01*
G75*
G02*
X188203750Y-80125800I-243750J0D01*
G01*
X187716250Y-80125800D01*
G75*
G02*
X187472500Y-79882050I0J243750D01*
G01*
X187472500Y-78969550D01*
G75*
G02*
X187716250Y-78725800I243750J0D01*
G01*
X188203750Y-78725800D01*
G75*
G02*
X188447500Y-78969550I0J-243750D01*
G01*
G37*
%TD.AperFunction*%
%TD*%
%TO.P,D4,1*%
%TO.N,GND*%
%TA.AperFunction,SMDPad,CuDef*%
G36*
G01*
X188442900Y-81509550D02*
X188442900Y-82422050D01*
G75*
G02*
X188199150Y-82665800I-243750J0D01*
G01*
X187711650Y-82665800D01*
G75*
G02*
X187467900Y-82422050I0J243750D01*
G01*
X187467900Y-81509550D01*
G75*
G02*
X187711650Y-81265800I243750J0D01*
G01*
X188199150Y-81265800D01*
G75*
G02*
X188442900Y-81509550I0J-243750D01*
G01*
G37*
%TD.AperFunction*%
%TO.P,D4,2*%
%TO.N,Net-(D4-Pad2)*%
%TA.AperFunction,SMDPad,CuDef*%
G36*
G01*
X186567900Y-81509550D02*
X186567900Y-82422050D01*
G75*
G02*
X186324150Y-82665800I-243750J0D01*
G01*
X185836650Y-82665800D01*
G75*
G02*
X185592900Y-82422050I0J243750D01*
G01*
X185592900Y-81509550D01*
G75*
G02*
X185836650Y-81265800I243750J0D01*
G01*
X186324150Y-81265800D01*
G75*
G02*
X186567900Y-81509550I0J-243750D01*
G01*
G37*
%TD.AperFunction*%
%TD*%
%TO.P,D5,1*%
%TO.N,GND*%
%TA.AperFunction,SMDPad,CuDef*%
G36*
G01*
X188445200Y-84049550D02*
X188445200Y-84962050D01*
G75*
G02*
X188201450Y-85205800I-243750J0D01*
G01*
X187713950Y-85205800D01*
G75*
G02*
X187470200Y-84962050I0J243750D01*
G01*
X187470200Y-84049550D01*
G75*
G02*
X187713950Y-83805800I243750J0D01*
G01*
X188201450Y-83805800D01*
G75*
G02*
X188445200Y-84049550I0J-243750D01*
G01*
G37*
%TD.AperFunction*%
%TO.P,D5,2*%
%TO.N,Net-(D5-Pad2)*%
%TA.AperFunction,SMDPad,CuDef*%
G36*
G01*
X186570200Y-84049550D02*
X186570200Y-84962050D01*
G75*
G02*
X186326450Y-85205800I-243750J0D01*
G01*
X185838950Y-85205800D01*
G75*
G02*
X185595200Y-84962050I0J243750D01*
G01*
X185595200Y-84049550D01*
G75*
G02*
X185838950Y-83805800I243750J0D01*
G01*
X186326450Y-83805800D01*
G75*
G02*
X186570200Y-84049550I0J-243750D01*
G01*
G37*
%TD.AperFunction*%
%TD*%
D15*
%TO.P,SW1,2*%
%TO.N,GND*%
X188108200Y-91236800D03*
%TO.P,SW1,1*%
%TO.N,Net-(R6-Pad1)*%
X192608200Y-91236800D03*
%TO.P,SW1,2*%
%TO.N,GND*%
X188108200Y-97736800D03*
%TO.P,SW1,1*%
%TO.N,Net-(R6-Pad1)*%
X192608200Y-97736800D03*
%TD*%
D16*
%TO.P,SW2,1*%
%TO.N,Net-(BZ1-Pad1)*%
X183032400Y-98323400D03*
D17*
%TO.P,SW2,2*%
%TO.N,Net-(R7-Pad2)*%
X183032400Y-90703400D03*
%TD*%
%TO.P,R1,1*%
%TO.N,Net-(R1-Pad1)*%
%TA.AperFunction,SMDPad,CuDef*%
G36*
G01*
X180818100Y-74795801D02*
X180818100Y-73895799D01*
G75*
G02*
X181068099Y-73645800I249999J0D01*
G01*
X181593101Y-73645800D01*
G75*
G02*
X181843100Y-73895799I0J-249999D01*
G01*
X181843100Y-74795801D01*
G75*
G02*
X181593101Y-75045800I-249999J0D01*
G01*
X181068099Y-75045800D01*
G75*
G02*
X180818100Y-74795801I0J249999D01*
G01*
G37*
%TD.AperFunction*%
%TO.P,R1,2*%
%TO.N,Net-(D1-Pad2)*%
%TA.AperFunction,SMDPad,CuDef*%
G36*
G01*
X182643100Y-74795801D02*
X182643100Y-73895799D01*
G75*
G02*
X182893099Y-73645800I249999J0D01*
G01*
X183418101Y-73645800D01*
G75*
G02*
X183668100Y-73895799I0J-249999D01*
G01*
X183668100Y-74795801D01*
G75*
G02*
X183418101Y-75045800I-249999J0D01*
G01*
X182893099Y-75045800D01*
G75*
G02*
X182643100Y-74795801I0J249999D01*
G01*
G37*
%TD.AperFunction*%
%TD*%
%TO.P,R2,2*%
%TO.N,Net-(D2-Pad2)*%
%TA.AperFunction,SMDPad,CuDef*%
G36*
G01*
X182643100Y-77335801D02*
X182643100Y-76435799D01*
G75*
G02*
X182893099Y-76185800I249999J0D01*
G01*
X183418101Y-76185800D01*
G75*
G02*
X183668100Y-76435799I0J-249999D01*
G01*
X183668100Y-77335801D01*
G75*
G02*
X183418101Y-77585800I-249999J0D01*
G01*
X182893099Y-77585800D01*
G75*
G02*
X182643100Y-77335801I0J249999D01*
G01*
G37*
%TD.AperFunction*%
%TO.P,R2,1*%
%TO.N,Net-(R2-Pad1)*%
%TA.AperFunction,SMDPad,CuDef*%
G36*
G01*
X180818100Y-77335801D02*
X180818100Y-76435799D01*
G75*
G02*
X181068099Y-76185800I249999J0D01*
G01*
X181593101Y-76185800D01*
G75*
G02*
X181843100Y-76435799I0J-249999D01*
G01*
X181843100Y-77335801D01*
G75*
G02*
X181593101Y-77585800I-249999J0D01*
G01*
X181068099Y-77585800D01*
G75*
G02*
X180818100Y-77335801I0J249999D01*
G01*
G37*
%TD.AperFunction*%
%TD*%
%TO.P,R3,1*%
%TO.N,Net-(R3-Pad1)*%
%TA.AperFunction,SMDPad,CuDef*%
G36*
G01*
X180818100Y-79875801D02*
X180818100Y-78975799D01*
G75*
G02*
X181068099Y-78725800I249999J0D01*
G01*
X181593101Y-78725800D01*
G75*
G02*
X181843100Y-78975799I0J-249999D01*
G01*
X181843100Y-79875801D01*
G75*
G02*
X181593101Y-80125800I-249999J0D01*
G01*
X181068099Y-80125800D01*
G75*
G02*
X180818100Y-79875801I0J249999D01*
G01*
G37*
%TD.AperFunction*%
%TO.P,R3,2*%
%TO.N,Net-(D3-Pad2)*%
%TA.AperFunction,SMDPad,CuDef*%
G36*
G01*
X182643100Y-79875801D02*
X182643100Y-78975799D01*
G75*
G02*
X182893099Y-78725800I249999J0D01*
G01*
X183418101Y-78725800D01*
G75*
G02*
X183668100Y-78975799I0J-249999D01*
G01*
X183668100Y-79875801D01*
G75*
G02*
X183418101Y-80125800I-249999J0D01*
G01*
X182893099Y-80125800D01*
G75*
G02*
X182643100Y-79875801I0J249999D01*
G01*
G37*
%TD.AperFunction*%
%TD*%
%TO.P,R4,2*%
%TO.N,Net-(D4-Pad2)*%
%TA.AperFunction,SMDPad,CuDef*%
G36*
G01*
X182617700Y-82415801D02*
X182617700Y-81515799D01*
G75*
G02*
X182867699Y-81265800I249999J0D01*
G01*
X183392701Y-81265800D01*
G75*
G02*
X183642700Y-81515799I0J-249999D01*
G01*
X183642700Y-82415801D01*
G75*
G02*
X183392701Y-82665800I-249999J0D01*
G01*
X182867699Y-82665800D01*
G75*
G02*
X182617700Y-82415801I0J249999D01*
G01*
G37*
%TD.AperFunction*%
%TO.P,R4,1*%
%TO.N,Net-(R4-Pad1)*%
%TA.AperFunction,SMDPad,CuDef*%
G36*
G01*
X180792700Y-82415801D02*
X180792700Y-81515799D01*
G75*
G02*
X181042699Y-81265800I249999J0D01*
G01*
X181567701Y-81265800D01*
G75*
G02*
X181817700Y-81515799I0J-249999D01*
G01*
X181817700Y-82415801D01*
G75*
G02*
X181567701Y-82665800I-249999J0D01*
G01*
X181042699Y-82665800D01*
G75*
G02*
X180792700Y-82415801I0J249999D01*
G01*
G37*
%TD.AperFunction*%
%TD*%
%TO.P,R5,2*%
%TO.N,Net-(D5-Pad2)*%
%TA.AperFunction,SMDPad,CuDef*%
G36*
G01*
X182643100Y-84955801D02*
X182643100Y-84055799D01*
G75*
G02*
X182893099Y-83805800I249999J0D01*
G01*
X183418101Y-83805800D01*
G75*
G02*
X183668100Y-84055799I0J-249999D01*
G01*
X183668100Y-84955801D01*
G75*
G02*
X183418101Y-85205800I-249999J0D01*
G01*
X182893099Y-85205800D01*
G75*
G02*
X182643100Y-84955801I0J249999D01*
G01*
G37*
%TD.AperFunction*%
%TO.P,R5,1*%
%TO.N,Net-(R5-Pad1)*%
%TA.AperFunction,SMDPad,CuDef*%
G36*
G01*
X180818100Y-84955801D02*
X180818100Y-84055799D01*
G75*
G02*
X181068099Y-83805800I249999J0D01*
G01*
X181593101Y-83805800D01*
G75*
G02*
X181843100Y-84055799I0J-249999D01*
G01*
X181843100Y-84955801D01*
G75*
G02*
X181593101Y-85205800I-249999J0D01*
G01*
X181068099Y-85205800D01*
G75*
G02*
X180818100Y-84955801I0J249999D01*
G01*
G37*
%TD.AperFunction*%
%TD*%
%TO.P,R6,1*%
%TO.N,Net-(R6-Pad1)*%
%TA.AperFunction,SMDPad,CuDef*%
G36*
G01*
X191872300Y-87459399D02*
X191872300Y-88359401D01*
G75*
G02*
X191622301Y-88609400I-249999J0D01*
G01*
X191097299Y-88609400D01*
G75*
G02*
X190847300Y-88359401I0J249999D01*
G01*
X190847300Y-87459399D01*
G75*
G02*
X191097299Y-87209400I249999J0D01*
G01*
X191622301Y-87209400D01*
G75*
G02*
X191872300Y-87459399I0J-249999D01*
G01*
G37*
%TD.AperFunction*%
%TO.P,R6,2*%
%TO.N,+3V3*%
%TA.AperFunction,SMDPad,CuDef*%
G36*
G01*
X190047300Y-87459399D02*
X190047300Y-88359401D01*
G75*
G02*
X189797301Y-88609400I-249999J0D01*
G01*
X189272299Y-88609400D01*
G75*
G02*
X189022300Y-88359401I0J249999D01*
G01*
X189022300Y-87459399D01*
G75*
G02*
X189272299Y-87209400I249999J0D01*
G01*
X189797301Y-87209400D01*
G75*
G02*
X190047300Y-87459399I0J-249999D01*
G01*
G37*
%TD.AperFunction*%
%TD*%
%TO.P,R7,1*%
%TO.N,Net-(R7-Pad1)*%
%TA.AperFunction,SMDPad,CuDef*%
G36*
G01*
X184179900Y-87459399D02*
X184179900Y-88359401D01*
G75*
G02*
X183929901Y-88609400I-249999J0D01*
G01*
X183404899Y-88609400D01*
G75*
G02*
X183154900Y-88359401I0J249999D01*
G01*
X183154900Y-87459399D01*
G75*
G02*
X183404899Y-87209400I249999J0D01*
G01*
X183929901Y-87209400D01*
G75*
G02*
X184179900Y-87459399I0J-249999D01*
G01*
G37*
%TD.AperFunction*%
%TO.P,R7,2*%
%TO.N,Net-(R7-Pad2)*%
%TA.AperFunction,SMDPad,CuDef*%
G36*
G01*
X182354900Y-87459399D02*
X182354900Y-88359401D01*
G75*
G02*
X182104901Y-88609400I-249999J0D01*
G01*
X181579899Y-88609400D01*
G75*
G02*
X181329900Y-88359401I0J249999D01*
G01*
X181329900Y-87459399D01*
G75*
G02*
X181579899Y-87209400I249999J0D01*
G01*
X182104901Y-87209400D01*
G75*
G02*
X182354900Y-87459399I0J-249999D01*
G01*
G37*
%TD.AperFunction*%
%TD*%
D12*
%TO.P,J1,1*%
%TO.N,+3V3*%
X192582800Y-83845400D03*
D11*
%TO.P,J1,2*%
%TO.N,Net-(J1-Pad2)*%
X192582800Y-81305400D03*
%TO.P,J1,3*%
%TO.N,GND*%
X192582800Y-78765400D03*
%TO.P,J1,4*%
%TO.N,/SCL*%
X192582800Y-76225400D03*
%TO.P,J1,5*%
%TO.N,Net-(J1-Pad5)*%
X192582800Y-73685400D03*
%TO.P,J1,6*%
%TO.N,/SDA*%
X192582800Y-71145400D03*
%TO.P,J1,7*%
%TO.N,Net-(J1-Pad7)*%
X192582800Y-68605400D03*
%TD*%
D18*
%TO.N,GND*%
X189280800Y-74371200D03*
X189357000Y-76885800D03*
X189280800Y-79502000D03*
X189357000Y-81965800D03*
X189357000Y-84480400D03*
%TD*%
D19*
%TO.N,Net-(BZ1-Pad1)*%
X183134000Y-98704400D02*
X183057800Y-98628200D01*
X183032400Y-101727000D02*
X183119000Y-101813600D01*
X183032400Y-98323400D02*
X183032400Y-101727000D01*
%TO.N,Net-(D1-Pad2)*%
X183155600Y-74345800D02*
X186055000Y-74345800D01*
%TO.N,Net-(D2-Pad2)*%
X183155600Y-76885800D02*
X186080400Y-76885800D01*
%TO.N,Net-(D3-Pad2)*%
X183155600Y-79425800D02*
X186085000Y-79425800D01*
%TO.N,Net-(D4-Pad2)*%
X183130200Y-81965800D02*
X186080400Y-81965800D01*
%TO.N,Net-(D5-Pad2)*%
X183155600Y-84505800D02*
X186082700Y-84505800D01*
%TO.N,GND*%
X189255400Y-74345800D02*
X189280800Y-74371200D01*
X187930000Y-74345800D02*
X189255400Y-74345800D01*
X187955400Y-76885800D02*
X189357000Y-76885800D01*
X189204600Y-79425800D02*
X189280800Y-79502000D01*
X187960000Y-79425800D02*
X189204600Y-79425800D01*
X187955400Y-81965800D02*
X189357000Y-81965800D01*
X189331600Y-84505800D02*
X189357000Y-84480400D01*
X187957700Y-84505800D02*
X189331600Y-84505800D01*
X183119000Y-108813600D02*
X186080400Y-108813600D01*
X186800000Y-109533200D02*
X186800000Y-112190001D01*
X186080400Y-108813600D02*
X186800000Y-109533200D01*
%TO.N,/SCL*%
X192582800Y-76225400D02*
X189585600Y-73228200D01*
X189585600Y-73228200D02*
X189585600Y-71094600D01*
X182304599Y-71094600D02*
X177910000Y-66700001D01*
X189585600Y-71094600D02*
X182304599Y-71094600D01*
%TO.N,/SDA*%
X177910000Y-64160001D02*
X183388000Y-69638001D01*
X183388000Y-69638001D02*
X190364201Y-69638001D01*
X191871600Y-71145400D02*
X192582800Y-71145400D01*
X190364201Y-69638001D02*
X191871600Y-71145400D01*
%TO.N,Net-(R1-Pad1)*%
X180475799Y-74345800D02*
X177910000Y-71780001D01*
X181330600Y-74345800D02*
X180475799Y-74345800D01*
%TO.N,Net-(R2-Pad1)*%
X180475799Y-76885800D02*
X177910000Y-74320001D01*
X181330600Y-76885800D02*
X180475799Y-76885800D01*
%TO.N,Net-(R3-Pad1)*%
X180475799Y-79425800D02*
X177910000Y-76860001D01*
X181330600Y-79425800D02*
X180475799Y-79425800D01*
%TO.N,Net-(R4-Pad1)*%
X180475799Y-81965800D02*
X177910000Y-79400001D01*
X181305200Y-81965800D02*
X180475799Y-81965800D01*
%TO.N,Net-(R5-Pad1)*%
X177935799Y-84505800D02*
X177910000Y-84480001D01*
X181330600Y-84505800D02*
X177935799Y-84505800D01*
%TO.N,Net-(R7-Pad1)*%
X193933201Y-90343202D02*
X193933201Y-87964401D01*
X195690000Y-92100001D02*
X193933201Y-90343202D01*
X184692410Y-86884390D02*
X183667400Y-87909400D01*
X192853190Y-86884390D02*
X184692410Y-86884390D01*
X193933201Y-87964401D02*
X192853190Y-86884390D01*
%TO.N,Net-(R6-Pad1)*%
X192608200Y-109338201D02*
X192608200Y-97736800D01*
X195690000Y-112420001D02*
X192608200Y-109338201D01*
X192608200Y-91236800D02*
X192608200Y-97736800D01*
X192608200Y-89157800D02*
X191359800Y-87909400D01*
X192608200Y-91236800D02*
X192608200Y-89157800D01*
%TO.N,Net-(R7-Pad2)*%
X183036200Y-90986600D02*
X183057800Y-91008200D01*
X181842400Y-89513400D02*
X183032400Y-90703400D01*
X181842400Y-87909400D02*
X181842400Y-89513400D01*
%TD*%
D20*
%TO.N,+3V3*%
X194309463Y-62955507D02*
X194250498Y-63065821D01*
X194214188Y-63185519D01*
X194201928Y-63310001D01*
X194201928Y-65010001D01*
X194214188Y-65134483D01*
X194250498Y-65254181D01*
X194309463Y-65364495D01*
X194363222Y-65430001D01*
X194309463Y-65495507D01*
X194250498Y-65605821D01*
X194214188Y-65725519D01*
X194201928Y-65850001D01*
X194201928Y-67550001D01*
X194214188Y-67674483D01*
X194250498Y-67794181D01*
X194309463Y-67904495D01*
X194363222Y-67970001D01*
X194309463Y-68035507D01*
X194250498Y-68145821D01*
X194214188Y-68265519D01*
X194201928Y-68390001D01*
X194201928Y-70090001D01*
X194214188Y-70214483D01*
X194250498Y-70334181D01*
X194309463Y-70444495D01*
X194363222Y-70510001D01*
X194309463Y-70575507D01*
X194250498Y-70685821D01*
X194214188Y-70805519D01*
X194201928Y-70930001D01*
X194201928Y-72630001D01*
X194214188Y-72754483D01*
X194250498Y-72874181D01*
X194309463Y-72984495D01*
X194363222Y-73050001D01*
X194309463Y-73115507D01*
X194250498Y-73225821D01*
X194214188Y-73345519D01*
X194201928Y-73470001D01*
X194205000Y-74034251D01*
X194363750Y-74193001D01*
X195837000Y-74193001D01*
X195837000Y-74447001D01*
X194363750Y-74447001D01*
X194205000Y-74605751D01*
X194201928Y-75170001D01*
X194214188Y-75294483D01*
X194250498Y-75414181D01*
X194309463Y-75524495D01*
X194363222Y-75590001D01*
X194309463Y-75655507D01*
X194250498Y-75765821D01*
X194214188Y-75885519D01*
X194201928Y-76010001D01*
X194201928Y-77710001D01*
X194214188Y-77834483D01*
X194250498Y-77954181D01*
X194309463Y-78064495D01*
X194363222Y-78130001D01*
X194309463Y-78195507D01*
X194250498Y-78305821D01*
X194214188Y-78425519D01*
X194201928Y-78550001D01*
X194201928Y-80250001D01*
X194214188Y-80374483D01*
X194250498Y-80494181D01*
X194309463Y-80604495D01*
X194363222Y-80670001D01*
X194309463Y-80735507D01*
X194250498Y-80845821D01*
X194214188Y-80965519D01*
X194201928Y-81090001D01*
X194201928Y-82790001D01*
X194214188Y-82914483D01*
X194250498Y-83034181D01*
X194309463Y-83144495D01*
X194363222Y-83210001D01*
X194309463Y-83275507D01*
X194250498Y-83385821D01*
X194214188Y-83505519D01*
X194201928Y-83630001D01*
X194201928Y-85330001D01*
X194214188Y-85454483D01*
X194250498Y-85574181D01*
X194309463Y-85684495D01*
X194363222Y-85750001D01*
X194309463Y-85815507D01*
X194250498Y-85925821D01*
X194214188Y-86045519D01*
X194201928Y-86170001D01*
X194201928Y-87158326D01*
X193416994Y-86373392D01*
X193393191Y-86344389D01*
X193277466Y-86249416D01*
X193145437Y-86178844D01*
X193002176Y-86135387D01*
X192890523Y-86124390D01*
X192890512Y-86124390D01*
X192853190Y-86120714D01*
X192815868Y-86124390D01*
X184729732Y-86124390D01*
X184692409Y-86120714D01*
X184655086Y-86124390D01*
X184655077Y-86124390D01*
X184543424Y-86135387D01*
X184429315Y-86170001D01*
X184400163Y-86178844D01*
X184268133Y-86249416D01*
X184186282Y-86316590D01*
X184152409Y-86344389D01*
X184128611Y-86373387D01*
X183930601Y-86571397D01*
X183929901Y-86571328D01*
X183404899Y-86571328D01*
X183231645Y-86588392D01*
X183065049Y-86638928D01*
X182911513Y-86720995D01*
X182776938Y-86831438D01*
X182754900Y-86858291D01*
X182732862Y-86831438D01*
X182598287Y-86720995D01*
X182444751Y-86638928D01*
X182278155Y-86588392D01*
X182104901Y-86571328D01*
X181579899Y-86571328D01*
X181406645Y-86588392D01*
X181240049Y-86638928D01*
X181086513Y-86720995D01*
X180951938Y-86831438D01*
X180841495Y-86966013D01*
X180759428Y-87119549D01*
X180708892Y-87286145D01*
X180691828Y-87459399D01*
X180691828Y-88359401D01*
X180708892Y-88532655D01*
X180759428Y-88699251D01*
X180841495Y-88852787D01*
X180951938Y-88987362D01*
X181082401Y-89094430D01*
X181082401Y-89476068D01*
X181078724Y-89513400D01*
X181082401Y-89550733D01*
X181093398Y-89662386D01*
X181104141Y-89697801D01*
X181136854Y-89805646D01*
X181207426Y-89937676D01*
X181278003Y-90023673D01*
X181302400Y-90053401D01*
X181331398Y-90077199D01*
X181633712Y-90379514D01*
X181597400Y-90562065D01*
X181597400Y-90844735D01*
X181652547Y-91121974D01*
X181760720Y-91383127D01*
X181917763Y-91618159D01*
X182117641Y-91818037D01*
X182352673Y-91975080D01*
X182613826Y-92083253D01*
X182891065Y-92138400D01*
X183173735Y-92138400D01*
X183450974Y-92083253D01*
X183712127Y-91975080D01*
X183947159Y-91818037D01*
X184147037Y-91618159D01*
X184304080Y-91383127D01*
X184412253Y-91121974D01*
X184421444Y-91075767D01*
X186473200Y-91075767D01*
X186473200Y-91397833D01*
X186536032Y-91713712D01*
X186659282Y-92011263D01*
X186838213Y-92279052D01*
X187065948Y-92506787D01*
X187333737Y-92685718D01*
X187631288Y-92808968D01*
X187947167Y-92871800D01*
X188269233Y-92871800D01*
X188585112Y-92808968D01*
X188882663Y-92685718D01*
X189150452Y-92506787D01*
X189378187Y-92279052D01*
X189557118Y-92011263D01*
X189680368Y-91713712D01*
X189743200Y-91397833D01*
X189743200Y-91075767D01*
X189680368Y-90759888D01*
X189557118Y-90462337D01*
X189378187Y-90194548D01*
X189150452Y-89966813D01*
X188882663Y-89787882D01*
X188585112Y-89664632D01*
X188269233Y-89601800D01*
X187947167Y-89601800D01*
X187631288Y-89664632D01*
X187333737Y-89787882D01*
X187065948Y-89966813D01*
X186838213Y-90194548D01*
X186659282Y-90462337D01*
X186536032Y-90759888D01*
X186473200Y-91075767D01*
X184421444Y-91075767D01*
X184467400Y-90844735D01*
X184467400Y-90562065D01*
X184412253Y-90284826D01*
X184304080Y-90023673D01*
X184147037Y-89788641D01*
X183947159Y-89588763D01*
X183712127Y-89431720D01*
X183450974Y-89323547D01*
X183173735Y-89268400D01*
X182891065Y-89268400D01*
X182708514Y-89304712D01*
X182602400Y-89198599D01*
X182602400Y-89094430D01*
X182732862Y-88987362D01*
X182754900Y-88960509D01*
X182776938Y-88987362D01*
X182911513Y-89097805D01*
X183065049Y-89179872D01*
X183231645Y-89230408D01*
X183404899Y-89247472D01*
X183929901Y-89247472D01*
X184103155Y-89230408D01*
X184269751Y-89179872D01*
X184423287Y-89097805D01*
X184557862Y-88987362D01*
X184668305Y-88852787D01*
X184750372Y-88699251D01*
X184777627Y-88609400D01*
X188384228Y-88609400D01*
X188396488Y-88733882D01*
X188432798Y-88853580D01*
X188491763Y-88963894D01*
X188571115Y-89060585D01*
X188667806Y-89139937D01*
X188778120Y-89198902D01*
X188897818Y-89235212D01*
X189022300Y-89247472D01*
X189249050Y-89244400D01*
X189407800Y-89085650D01*
X189407800Y-88036400D01*
X188546050Y-88036400D01*
X188387300Y-88195150D01*
X188384228Y-88609400D01*
X184777627Y-88609400D01*
X184800908Y-88532655D01*
X184817972Y-88359401D01*
X184817972Y-87833630D01*
X185007212Y-87644390D01*
X188408040Y-87644390D01*
X188546050Y-87782400D01*
X189407800Y-87782400D01*
X189407800Y-87762400D01*
X189661800Y-87762400D01*
X189661800Y-87782400D01*
X189681800Y-87782400D01*
X189681800Y-88036400D01*
X189661800Y-88036400D01*
X189661800Y-89085650D01*
X189820550Y-89244400D01*
X190047300Y-89247472D01*
X190171782Y-89235212D01*
X190291480Y-89198902D01*
X190401794Y-89139937D01*
X190498485Y-89060585D01*
X190522663Y-89031124D01*
X190603913Y-89097805D01*
X190757449Y-89179872D01*
X190924045Y-89230408D01*
X191097299Y-89247472D01*
X191622301Y-89247472D01*
X191623001Y-89247403D01*
X191848201Y-89472603D01*
X191848201Y-89781891D01*
X191833737Y-89787882D01*
X191565948Y-89966813D01*
X191338213Y-90194548D01*
X191159282Y-90462337D01*
X191036032Y-90759888D01*
X190973200Y-91075767D01*
X190973200Y-91397833D01*
X191036032Y-91713712D01*
X191159282Y-92011263D01*
X191338213Y-92279052D01*
X191565948Y-92506787D01*
X191833737Y-92685718D01*
X191848200Y-92691709D01*
X191848201Y-96281891D01*
X191833737Y-96287882D01*
X191565948Y-96466813D01*
X191338213Y-96694548D01*
X191159282Y-96962337D01*
X191036032Y-97259888D01*
X190973200Y-97575767D01*
X190973200Y-97897833D01*
X191036032Y-98213712D01*
X191159282Y-98511263D01*
X191338213Y-98779052D01*
X191565948Y-99006787D01*
X191833737Y-99185718D01*
X191848201Y-99191709D01*
X191848200Y-109300879D01*
X191844524Y-109338201D01*
X191848200Y-109375523D01*
X191848200Y-109375533D01*
X191859197Y-109487186D01*
X191885410Y-109573600D01*
X191902654Y-109630447D01*
X191973226Y-109762477D01*
X192013071Y-109811027D01*
X192068199Y-109878202D01*
X192097203Y-109902005D01*
X192506094Y-110310896D01*
X192354802Y-110310896D01*
X192022349Y-110377025D01*
X191709186Y-110506742D01*
X191427346Y-110695061D01*
X191187661Y-110934746D01*
X190999342Y-111216586D01*
X190869625Y-111529749D01*
X190828072Y-111738650D01*
X190828072Y-111340001D01*
X190815812Y-111215519D01*
X190779502Y-111095821D01*
X190720537Y-110985507D01*
X190641185Y-110888816D01*
X190544494Y-110809464D01*
X190434180Y-110750499D01*
X190314482Y-110714189D01*
X190190000Y-110701929D01*
X188490000Y-110701929D01*
X188365518Y-110714189D01*
X188245820Y-110750499D01*
X188135506Y-110809464D01*
X188070000Y-110863223D01*
X188004494Y-110809464D01*
X187894180Y-110750499D01*
X187774482Y-110714189D01*
X187650000Y-110701929D01*
X187560000Y-110701929D01*
X187560000Y-109570522D01*
X187563676Y-109533199D01*
X187560000Y-109495876D01*
X187560000Y-109495867D01*
X187549003Y-109384214D01*
X187505546Y-109240953D01*
X187434975Y-109108925D01*
X187434974Y-109108923D01*
X187363799Y-109022197D01*
X187340001Y-108993199D01*
X187311004Y-108969402D01*
X186644203Y-108302602D01*
X186620401Y-108273599D01*
X186504676Y-108178626D01*
X186372647Y-108108054D01*
X186229386Y-108064597D01*
X186117733Y-108053600D01*
X186117722Y-108053600D01*
X186080400Y-108049924D01*
X186043078Y-108053600D01*
X184757072Y-108053600D01*
X184757072Y-107813600D01*
X188480928Y-107813600D01*
X188480928Y-109813600D01*
X188493188Y-109938082D01*
X188529498Y-110057780D01*
X188588463Y-110168094D01*
X188667815Y-110264785D01*
X188764506Y-110344137D01*
X188874820Y-110403102D01*
X188994518Y-110439412D01*
X189119000Y-110451672D01*
X191119000Y-110451672D01*
X191243482Y-110439412D01*
X191363180Y-110403102D01*
X191473494Y-110344137D01*
X191570185Y-110264785D01*
X191649537Y-110168094D01*
X191708502Y-110057780D01*
X191744812Y-109938082D01*
X191757072Y-109813600D01*
X191757072Y-107813600D01*
X191744812Y-107689118D01*
X191708502Y-107569420D01*
X191649537Y-107459106D01*
X191570185Y-107362415D01*
X191473494Y-107283063D01*
X191363180Y-107224098D01*
X191243482Y-107187788D01*
X191119000Y-107175528D01*
X189119000Y-107175528D01*
X188994518Y-107187788D01*
X188874820Y-107224098D01*
X188764506Y-107283063D01*
X188667815Y-107362415D01*
X188588463Y-107459106D01*
X188529498Y-107569420D01*
X188493188Y-107689118D01*
X188480928Y-107813600D01*
X184757072Y-107813600D01*
X184744812Y-107689118D01*
X184708502Y-107569420D01*
X184649537Y-107459106D01*
X184570185Y-107362415D01*
X184473494Y-107283063D01*
X184363180Y-107224098D01*
X184243482Y-107187788D01*
X184119000Y-107175528D01*
X182119000Y-107175528D01*
X181994518Y-107187788D01*
X181874820Y-107224098D01*
X181764506Y-107283063D01*
X181667815Y-107362415D01*
X181588463Y-107459106D01*
X181529498Y-107569420D01*
X181493188Y-107689118D01*
X181480928Y-107813600D01*
X181480928Y-109813600D01*
X181493188Y-109938082D01*
X181529498Y-110057780D01*
X181588463Y-110168094D01*
X181667815Y-110264785D01*
X181764506Y-110344137D01*
X181874820Y-110403102D01*
X181994518Y-110439412D01*
X182119000Y-110451672D01*
X184119000Y-110451672D01*
X184243482Y-110439412D01*
X184363180Y-110403102D01*
X184473494Y-110344137D01*
X184570185Y-110264785D01*
X184649537Y-110168094D01*
X184708502Y-110057780D01*
X184744812Y-109938082D01*
X184757072Y-109813600D01*
X184757072Y-109573600D01*
X185765599Y-109573600D01*
X186040000Y-109848002D01*
X186040000Y-110701929D01*
X185950000Y-110701929D01*
X185825518Y-110714189D01*
X185705820Y-110750499D01*
X185595506Y-110809464D01*
X185530000Y-110863223D01*
X185464494Y-110809464D01*
X185354180Y-110750499D01*
X185234482Y-110714189D01*
X185110000Y-110701929D01*
X183410000Y-110701929D01*
X183285518Y-110714189D01*
X183165820Y-110750499D01*
X183055506Y-110809464D01*
X182958815Y-110888816D01*
X182879463Y-110985507D01*
X182820498Y-111095821D01*
X182784188Y-111215519D01*
X182771928Y-111340001D01*
X182771928Y-111542321D01*
X182764375Y-111504349D01*
X182634658Y-111191186D01*
X182446339Y-110909346D01*
X182206654Y-110669661D01*
X181924814Y-110481342D01*
X181611651Y-110351625D01*
X181279198Y-110285496D01*
X180940232Y-110285496D01*
X180607779Y-110351625D01*
X180294616Y-110481342D01*
X180012776Y-110669661D01*
X179773091Y-110909346D01*
X179584772Y-111191186D01*
X179455055Y-111504349D01*
X179398072Y-111790822D01*
X179398072Y-111570001D01*
X179385812Y-111445519D01*
X179349502Y-111325821D01*
X179290537Y-111215507D01*
X179236778Y-111150001D01*
X179290537Y-111084495D01*
X179349502Y-110974181D01*
X179385812Y-110854483D01*
X179398072Y-110730001D01*
X179398072Y-109030001D01*
X179385812Y-108905519D01*
X179349502Y-108785821D01*
X179290537Y-108675507D01*
X179236778Y-108610001D01*
X179290537Y-108544495D01*
X179349502Y-108434181D01*
X179385812Y-108314483D01*
X179398072Y-108190001D01*
X179398072Y-106490001D01*
X179385812Y-106365519D01*
X179349502Y-106245821D01*
X179290537Y-106135507D01*
X179236778Y-106070001D01*
X179290537Y-106004495D01*
X179349502Y-105894181D01*
X179385812Y-105774483D01*
X179398072Y-105650001D01*
X179398072Y-103950001D01*
X179385812Y-103825519D01*
X179349502Y-103705821D01*
X179290537Y-103595507D01*
X179236778Y-103530001D01*
X179290537Y-103464495D01*
X179349502Y-103354181D01*
X179385812Y-103234483D01*
X179398072Y-103110001D01*
X179398072Y-101410001D01*
X179385812Y-101285519D01*
X179349502Y-101165821D01*
X179290537Y-101055507D01*
X179236778Y-100990001D01*
X179290537Y-100924495D01*
X179349502Y-100814181D01*
X179349678Y-100813600D01*
X181480928Y-100813600D01*
X181480928Y-102813600D01*
X181493188Y-102938082D01*
X181529498Y-103057780D01*
X181588463Y-103168094D01*
X181667815Y-103264785D01*
X181764506Y-103344137D01*
X181874820Y-103403102D01*
X181994518Y-103439412D01*
X182119000Y-103451672D01*
X184119000Y-103451672D01*
X184243482Y-103439412D01*
X184363180Y-103403102D01*
X184473494Y-103344137D01*
X184570185Y-103264785D01*
X184649537Y-103168094D01*
X184708502Y-103057780D01*
X184744812Y-102938082D01*
X184757072Y-102813600D01*
X184757072Y-100813600D01*
X188480928Y-100813600D01*
X188480928Y-102813600D01*
X188493188Y-102938082D01*
X188529498Y-103057780D01*
X188588463Y-103168094D01*
X188667815Y-103264785D01*
X188764506Y-103344137D01*
X188874820Y-103403102D01*
X188994518Y-103439412D01*
X189119000Y-103451672D01*
X191119000Y-103451672D01*
X191243482Y-103439412D01*
X191363180Y-103403102D01*
X191473494Y-103344137D01*
X191570185Y-103264785D01*
X191649537Y-103168094D01*
X191708502Y-103057780D01*
X191744812Y-102938082D01*
X191757072Y-102813600D01*
X191757072Y-100813600D01*
X191744812Y-100689118D01*
X191708502Y-100569420D01*
X191649537Y-100459106D01*
X191570185Y-100362415D01*
X191473494Y-100283063D01*
X191363180Y-100224098D01*
X191243482Y-100187788D01*
X191119000Y-100175528D01*
X189119000Y-100175528D01*
X188994518Y-100187788D01*
X188874820Y-100224098D01*
X188764506Y-100283063D01*
X188667815Y-100362415D01*
X188588463Y-100459106D01*
X188529498Y-100569420D01*
X188493188Y-100689118D01*
X188480928Y-100813600D01*
X184757072Y-100813600D01*
X184744812Y-100689118D01*
X184708502Y-100569420D01*
X184649537Y-100459106D01*
X184570185Y-100362415D01*
X184473494Y-100283063D01*
X184363180Y-100224098D01*
X184243482Y-100187788D01*
X184119000Y-100175528D01*
X183792400Y-100175528D01*
X183792400Y-99761472D01*
X183832400Y-99761472D01*
X183956882Y-99749212D01*
X184076580Y-99712902D01*
X184186894Y-99653937D01*
X184283585Y-99574585D01*
X184362937Y-99477894D01*
X184421902Y-99367580D01*
X184458212Y-99247882D01*
X184470472Y-99123400D01*
X184470472Y-97575767D01*
X186473200Y-97575767D01*
X186473200Y-97897833D01*
X186536032Y-98213712D01*
X186659282Y-98511263D01*
X186838213Y-98779052D01*
X187065948Y-99006787D01*
X187333737Y-99185718D01*
X187631288Y-99308968D01*
X187947167Y-99371800D01*
X188269233Y-99371800D01*
X188585112Y-99308968D01*
X188882663Y-99185718D01*
X189150452Y-99006787D01*
X189378187Y-98779052D01*
X189557118Y-98511263D01*
X189680368Y-98213712D01*
X189743200Y-97897833D01*
X189743200Y-97575767D01*
X189680368Y-97259888D01*
X189557118Y-96962337D01*
X189378187Y-96694548D01*
X189150452Y-96466813D01*
X188882663Y-96287882D01*
X188585112Y-96164632D01*
X188269233Y-96101800D01*
X187947167Y-96101800D01*
X187631288Y-96164632D01*
X187333737Y-96287882D01*
X187065948Y-96466813D01*
X186838213Y-96694548D01*
X186659282Y-96962337D01*
X186536032Y-97259888D01*
X186473200Y-97575767D01*
X184470472Y-97575767D01*
X184470472Y-97523400D01*
X184458212Y-97398918D01*
X184421902Y-97279220D01*
X184362937Y-97168906D01*
X184283585Y-97072215D01*
X184186894Y-96992863D01*
X184076580Y-96933898D01*
X183956882Y-96897588D01*
X183832400Y-96885328D01*
X182232400Y-96885328D01*
X182107918Y-96897588D01*
X181988220Y-96933898D01*
X181877906Y-96992863D01*
X181781215Y-97072215D01*
X181701863Y-97168906D01*
X181642898Y-97279220D01*
X181606588Y-97398918D01*
X181594328Y-97523400D01*
X181594328Y-99123400D01*
X181606588Y-99247882D01*
X181642898Y-99367580D01*
X181701863Y-99477894D01*
X181781215Y-99574585D01*
X181877906Y-99653937D01*
X181988220Y-99712902D01*
X182107918Y-99749212D01*
X182232400Y-99761472D01*
X182272400Y-99761472D01*
X182272401Y-100175528D01*
X182119000Y-100175528D01*
X181994518Y-100187788D01*
X181874820Y-100224098D01*
X181764506Y-100283063D01*
X181667815Y-100362415D01*
X181588463Y-100459106D01*
X181529498Y-100569420D01*
X181493188Y-100689118D01*
X181480928Y-100813600D01*
X179349678Y-100813600D01*
X179385812Y-100694483D01*
X179398072Y-100570001D01*
X179398072Y-98870001D01*
X179385812Y-98745519D01*
X179349502Y-98625821D01*
X179290537Y-98515507D01*
X179236778Y-98450001D01*
X179290537Y-98384495D01*
X179349502Y-98274181D01*
X179385812Y-98154483D01*
X179398072Y-98030001D01*
X179398072Y-96330001D01*
X179385812Y-96205519D01*
X179349502Y-96085821D01*
X179290537Y-95975507D01*
X179236778Y-95910001D01*
X179290537Y-95844495D01*
X179349502Y-95734181D01*
X179385812Y-95614483D01*
X179398072Y-95490001D01*
X179398072Y-93790001D01*
X179385812Y-93665519D01*
X179349502Y-93545821D01*
X179290537Y-93435507D01*
X179236778Y-93370001D01*
X179290537Y-93304495D01*
X179349502Y-93194181D01*
X179385812Y-93074483D01*
X179398072Y-92950001D01*
X179398072Y-91250001D01*
X179385812Y-91125519D01*
X179349502Y-91005821D01*
X179290537Y-90895507D01*
X179236778Y-90830001D01*
X179290537Y-90764495D01*
X179349502Y-90654181D01*
X179385812Y-90534483D01*
X179398072Y-90410001D01*
X179398072Y-88710001D01*
X179385812Y-88585519D01*
X179349502Y-88465821D01*
X179290537Y-88355507D01*
X179236778Y-88290001D01*
X179290537Y-88224495D01*
X179349502Y-88114181D01*
X179385812Y-87994483D01*
X179398072Y-87870001D01*
X179398072Y-86170001D01*
X179385812Y-86045519D01*
X179349502Y-85925821D01*
X179290537Y-85815507D01*
X179236778Y-85750001D01*
X179290537Y-85684495D01*
X179349502Y-85574181D01*
X179385812Y-85454483D01*
X179398072Y-85330001D01*
X179398072Y-85265800D01*
X180238573Y-85265800D01*
X180247628Y-85295651D01*
X180329695Y-85449187D01*
X180440138Y-85583762D01*
X180574713Y-85694205D01*
X180728249Y-85776272D01*
X180894845Y-85826808D01*
X181068099Y-85843872D01*
X181593101Y-85843872D01*
X181766355Y-85826808D01*
X181932951Y-85776272D01*
X182086487Y-85694205D01*
X182221062Y-85583762D01*
X182243100Y-85556909D01*
X182265138Y-85583762D01*
X182399713Y-85694205D01*
X182553249Y-85776272D01*
X182719845Y-85826808D01*
X182893099Y-85843872D01*
X183418101Y-85843872D01*
X183591355Y-85826808D01*
X183757951Y-85776272D01*
X183911487Y-85694205D01*
X184046062Y-85583762D01*
X184156505Y-85449187D01*
X184238572Y-85295651D01*
X184247627Y-85265800D01*
X185014027Y-85265800D01*
X185024253Y-85299509D01*
X185105742Y-85451964D01*
X185215408Y-85585592D01*
X185349036Y-85695258D01*
X185501491Y-85776747D01*
X185666915Y-85826928D01*
X185838950Y-85843872D01*
X186326450Y-85843872D01*
X186498485Y-85826928D01*
X186663909Y-85776747D01*
X186816364Y-85695258D01*
X186949992Y-85585592D01*
X187020200Y-85500044D01*
X187090408Y-85585592D01*
X187224036Y-85695258D01*
X187376491Y-85776747D01*
X187541915Y-85826928D01*
X187713950Y-85843872D01*
X188201450Y-85843872D01*
X188373485Y-85826928D01*
X188538909Y-85776747D01*
X188691364Y-85695258D01*
X188824992Y-85585592D01*
X188934658Y-85451964D01*
X188946136Y-85430490D01*
X189055102Y-85475626D01*
X189255061Y-85515400D01*
X189458939Y-85515400D01*
X189658898Y-85475626D01*
X189847256Y-85397605D01*
X190016774Y-85284337D01*
X190160937Y-85140174D01*
X190274205Y-84970656D01*
X190352226Y-84782298D01*
X190369510Y-84695400D01*
X191094728Y-84695400D01*
X191106988Y-84819882D01*
X191143298Y-84939580D01*
X191202263Y-85049894D01*
X191281615Y-85146585D01*
X191378306Y-85225937D01*
X191488620Y-85284902D01*
X191608318Y-85321212D01*
X191732800Y-85333472D01*
X192297050Y-85330400D01*
X192455800Y-85171650D01*
X192455800Y-83972400D01*
X192709800Y-83972400D01*
X192709800Y-85171650D01*
X192868550Y-85330400D01*
X193432800Y-85333472D01*
X193557282Y-85321212D01*
X193676980Y-85284902D01*
X193787294Y-85225937D01*
X193883985Y-85146585D01*
X193963337Y-85049894D01*
X194022302Y-84939580D01*
X194058612Y-84819882D01*
X194070872Y-84695400D01*
X194067800Y-84131150D01*
X193909050Y-83972400D01*
X192709800Y-83972400D01*
X192455800Y-83972400D01*
X191256550Y-83972400D01*
X191097800Y-84131150D01*
X191094728Y-84695400D01*
X190369510Y-84695400D01*
X190392000Y-84582339D01*
X190392000Y-84378461D01*
X190352226Y-84178502D01*
X190274205Y-83990144D01*
X190160937Y-83820626D01*
X190016774Y-83676463D01*
X189847256Y-83563195D01*
X189658898Y-83485174D01*
X189458939Y-83445400D01*
X189255061Y-83445400D01*
X189055102Y-83485174D01*
X188919608Y-83541298D01*
X188824992Y-83426008D01*
X188691364Y-83316342D01*
X188539531Y-83235185D01*
X188689064Y-83155258D01*
X188822692Y-83045592D01*
X188932358Y-82911964D01*
X188933137Y-82910506D01*
X189055102Y-82961026D01*
X189255061Y-83000800D01*
X189458939Y-83000800D01*
X189658898Y-82961026D01*
X189847256Y-82883005D01*
X190016774Y-82769737D01*
X190160937Y-82625574D01*
X190274205Y-82456056D01*
X190352226Y-82267698D01*
X190392000Y-82067739D01*
X190392000Y-81863861D01*
X190352226Y-81663902D01*
X190274205Y-81475544D01*
X190160937Y-81306026D01*
X190016774Y-81161863D01*
X189847256Y-81048595D01*
X189658898Y-80970574D01*
X189458939Y-80930800D01*
X189255061Y-80930800D01*
X189055102Y-80970574D01*
X188933137Y-81021094D01*
X188932358Y-81019636D01*
X188822692Y-80886008D01*
X188689064Y-80776342D01*
X188540535Y-80696951D01*
X188541209Y-80696747D01*
X188693664Y-80615258D01*
X188827292Y-80505592D01*
X188870879Y-80452481D01*
X188978902Y-80497226D01*
X189178861Y-80537000D01*
X189382739Y-80537000D01*
X189582698Y-80497226D01*
X189771056Y-80419205D01*
X189940574Y-80305937D01*
X190084737Y-80161774D01*
X190198005Y-79992256D01*
X190276026Y-79803898D01*
X190315800Y-79603939D01*
X190315800Y-79400061D01*
X190276026Y-79200102D01*
X190198005Y-79011744D01*
X190084737Y-78842226D01*
X189940574Y-78698063D01*
X189771056Y-78584795D01*
X189582698Y-78506774D01*
X189382739Y-78467000D01*
X189178861Y-78467000D01*
X188978902Y-78506774D01*
X188956437Y-78516079D01*
X188936958Y-78479636D01*
X188827292Y-78346008D01*
X188693664Y-78236342D01*
X188541209Y-78154853D01*
X188540535Y-78154649D01*
X188689064Y-78075258D01*
X188822692Y-77965592D01*
X188932358Y-77831964D01*
X188933137Y-77830506D01*
X189055102Y-77881026D01*
X189255061Y-77920800D01*
X189458939Y-77920800D01*
X189658898Y-77881026D01*
X189847256Y-77803005D01*
X190016774Y-77689737D01*
X190160937Y-77545574D01*
X190274205Y-77376056D01*
X190352226Y-77187698D01*
X190392000Y-76987739D01*
X190392000Y-76783861D01*
X190352226Y-76583902D01*
X190274205Y-76395544D01*
X190160937Y-76226026D01*
X190016774Y-76081863D01*
X189847256Y-75968595D01*
X189658898Y-75890574D01*
X189458939Y-75850800D01*
X189255061Y-75850800D01*
X189055102Y-75890574D01*
X188933137Y-75941094D01*
X188932358Y-75939636D01*
X188822692Y-75806008D01*
X188689064Y-75696342D01*
X188536609Y-75614853D01*
X188522666Y-75610623D01*
X188663664Y-75535258D01*
X188797292Y-75425592D01*
X188879604Y-75325295D01*
X188978902Y-75366426D01*
X189178861Y-75406200D01*
X189382739Y-75406200D01*
X189582698Y-75366426D01*
X189771056Y-75288405D01*
X189940574Y-75175137D01*
X190084737Y-75030974D01*
X190176396Y-74893797D01*
X191141590Y-75858992D01*
X191097800Y-76079140D01*
X191097800Y-76371660D01*
X191154868Y-76658558D01*
X191266810Y-76928811D01*
X191429325Y-77172032D01*
X191636168Y-77378875D01*
X191810560Y-77495400D01*
X191636168Y-77611925D01*
X191429325Y-77818768D01*
X191266810Y-78061989D01*
X191154868Y-78332242D01*
X191097800Y-78619140D01*
X191097800Y-78911660D01*
X191154868Y-79198558D01*
X191266810Y-79468811D01*
X191429325Y-79712032D01*
X191636168Y-79918875D01*
X191810560Y-80035400D01*
X191636168Y-80151925D01*
X191429325Y-80358768D01*
X191266810Y-80601989D01*
X191154868Y-80872242D01*
X191097800Y-81159140D01*
X191097800Y-81451660D01*
X191154868Y-81738558D01*
X191266810Y-82008811D01*
X191429325Y-82252032D01*
X191561180Y-82383887D01*
X191488620Y-82405898D01*
X191378306Y-82464863D01*
X191281615Y-82544215D01*
X191202263Y-82640906D01*
X191143298Y-82751220D01*
X191106988Y-82870918D01*
X191094728Y-82995400D01*
X191097800Y-83559650D01*
X191256550Y-83718400D01*
X192455800Y-83718400D01*
X192455800Y-83698400D01*
X192709800Y-83698400D01*
X192709800Y-83718400D01*
X193909050Y-83718400D01*
X194067800Y-83559650D01*
X194070872Y-82995400D01*
X194058612Y-82870918D01*
X194022302Y-82751220D01*
X193963337Y-82640906D01*
X193883985Y-82544215D01*
X193787294Y-82464863D01*
X193676980Y-82405898D01*
X193604420Y-82383887D01*
X193736275Y-82252032D01*
X193898790Y-82008811D01*
X194010732Y-81738558D01*
X194067800Y-81451660D01*
X194067800Y-81159140D01*
X194010732Y-80872242D01*
X193898790Y-80601989D01*
X193736275Y-80358768D01*
X193529432Y-80151925D01*
X193355040Y-80035400D01*
X193529432Y-79918875D01*
X193736275Y-79712032D01*
X193898790Y-79468811D01*
X194010732Y-79198558D01*
X194067800Y-78911660D01*
X194067800Y-78619140D01*
X194010732Y-78332242D01*
X193898790Y-78061989D01*
X193736275Y-77818768D01*
X193529432Y-77611925D01*
X193355040Y-77495400D01*
X193529432Y-77378875D01*
X193736275Y-77172032D01*
X193898790Y-76928811D01*
X194010732Y-76658558D01*
X194067800Y-76371660D01*
X194067800Y-76079140D01*
X194010732Y-75792242D01*
X193898790Y-75521989D01*
X193736275Y-75278768D01*
X193529432Y-75071925D01*
X193355040Y-74955400D01*
X193529432Y-74838875D01*
X193736275Y-74632032D01*
X193898790Y-74388811D01*
X194010732Y-74118558D01*
X194067800Y-73831660D01*
X194067800Y-73539140D01*
X194010732Y-73252242D01*
X193898790Y-72981989D01*
X193736275Y-72738768D01*
X193529432Y-72531925D01*
X193355040Y-72415400D01*
X193529432Y-72298875D01*
X193736275Y-72092032D01*
X193898790Y-71848811D01*
X194010732Y-71578558D01*
X194067800Y-71291660D01*
X194067800Y-70999140D01*
X194010732Y-70712242D01*
X193898790Y-70441989D01*
X193736275Y-70198768D01*
X193529432Y-69991925D01*
X193355040Y-69875400D01*
X193529432Y-69758875D01*
X193736275Y-69552032D01*
X193898790Y-69308811D01*
X194010732Y-69038558D01*
X194067800Y-68751660D01*
X194067800Y-68459140D01*
X194010732Y-68172242D01*
X193898790Y-67901989D01*
X193736275Y-67658768D01*
X193529432Y-67451925D01*
X193286211Y-67289410D01*
X193015958Y-67177468D01*
X192729060Y-67120400D01*
X192436540Y-67120400D01*
X192149642Y-67177468D01*
X191879389Y-67289410D01*
X191636168Y-67451925D01*
X191429325Y-67658768D01*
X191266810Y-67901989D01*
X191154868Y-68172242D01*
X191097800Y-68459140D01*
X191097800Y-68751660D01*
X191154868Y-69038558D01*
X191266810Y-69308811D01*
X191429325Y-69552032D01*
X191636168Y-69758875D01*
X191810560Y-69875400D01*
X191730138Y-69929136D01*
X190928005Y-69127004D01*
X190904202Y-69098000D01*
X190788477Y-69003027D01*
X190656448Y-68932455D01*
X190513187Y-68888998D01*
X190401534Y-68878001D01*
X190401523Y-68878001D01*
X190364201Y-68874325D01*
X190326879Y-68878001D01*
X183702802Y-68878001D01*
X182008391Y-67183590D01*
X182990000Y-67183590D01*
X182990000Y-67456412D01*
X183043225Y-67723990D01*
X183147629Y-67976044D01*
X183299201Y-68202887D01*
X183492114Y-68395800D01*
X183718957Y-68547372D01*
X183971011Y-68651776D01*
X184238589Y-68705001D01*
X184511411Y-68705001D01*
X184778989Y-68651776D01*
X185031043Y-68547372D01*
X185257886Y-68395800D01*
X185450799Y-68202887D01*
X185602371Y-67976044D01*
X185706775Y-67723990D01*
X185760000Y-67456412D01*
X185760000Y-67183590D01*
X187840000Y-67183590D01*
X187840000Y-67456412D01*
X187893225Y-67723990D01*
X187997629Y-67976044D01*
X188149201Y-68202887D01*
X188342114Y-68395800D01*
X188568957Y-68547372D01*
X188821011Y-68651776D01*
X189088589Y-68705001D01*
X189361411Y-68705001D01*
X189628989Y-68651776D01*
X189881043Y-68547372D01*
X190107886Y-68395800D01*
X190300799Y-68202887D01*
X190452371Y-67976044D01*
X190556775Y-67723990D01*
X190610000Y-67456412D01*
X190610000Y-67183590D01*
X190556775Y-66916012D01*
X190452371Y-66663958D01*
X190300799Y-66437115D01*
X190107886Y-66244202D01*
X189881043Y-66092630D01*
X189628989Y-65988226D01*
X189361411Y-65935001D01*
X189088589Y-65935001D01*
X188821011Y-65988226D01*
X188568957Y-66092630D01*
X188342114Y-66244202D01*
X188149201Y-66437115D01*
X187997629Y-66663958D01*
X187893225Y-66916012D01*
X187840000Y-67183590D01*
X185760000Y-67183590D01*
X185706775Y-66916012D01*
X185602371Y-66663958D01*
X185450799Y-66437115D01*
X185257886Y-66244202D01*
X185031043Y-66092630D01*
X184778989Y-65988226D01*
X184511411Y-65935001D01*
X184238589Y-65935001D01*
X183971011Y-65988226D01*
X183718957Y-66092630D01*
X183492114Y-66244202D01*
X183299201Y-66437115D01*
X183147629Y-66663958D01*
X183043225Y-66916012D01*
X182990000Y-67183590D01*
X182008391Y-67183590D01*
X181340990Y-66516189D01*
X181365368Y-66516189D01*
X181697821Y-66450060D01*
X182010984Y-66320343D01*
X182292824Y-66132024D01*
X182532509Y-65892339D01*
X182720828Y-65610499D01*
X182850545Y-65297336D01*
X182862338Y-65238050D01*
X182882688Y-65268506D01*
X183096495Y-65482313D01*
X183347905Y-65650300D01*
X183627257Y-65766012D01*
X183923816Y-65825001D01*
X184226184Y-65825001D01*
X184522743Y-65766012D01*
X184802095Y-65650300D01*
X185053505Y-65482313D01*
X185267312Y-65268506D01*
X185435299Y-65017096D01*
X185551011Y-64737744D01*
X185610000Y-64441185D01*
X185610000Y-64138817D01*
X185551011Y-63842258D01*
X185435299Y-63562906D01*
X185267312Y-63311496D01*
X185053505Y-63097689D01*
X184841100Y-62955764D01*
X188765675Y-62951238D01*
X188546495Y-63097689D01*
X188332688Y-63311496D01*
X188164701Y-63562906D01*
X188048989Y-63842258D01*
X187990000Y-64138817D01*
X187990000Y-64441185D01*
X188048989Y-64737744D01*
X188164701Y-65017096D01*
X188332688Y-65268506D01*
X188546495Y-65482313D01*
X188797905Y-65650300D01*
X189077257Y-65766012D01*
X189373816Y-65825001D01*
X189676184Y-65825001D01*
X189972743Y-65766012D01*
X190252095Y-65650300D01*
X190503505Y-65482313D01*
X190717312Y-65268506D01*
X190791119Y-65158047D01*
X190818825Y-65297336D01*
X190948542Y-65610499D01*
X191136861Y-65892339D01*
X191376546Y-66132024D01*
X191658386Y-66320343D01*
X191971549Y-66450060D01*
X192304002Y-66516189D01*
X192642968Y-66516189D01*
X192975421Y-66450060D01*
X193288584Y-66320343D01*
X193570424Y-66132024D01*
X193810109Y-65892339D01*
X193998428Y-65610499D01*
X194128145Y-65297336D01*
X194194274Y-64964883D01*
X194194274Y-64625917D01*
X194128145Y-64293464D01*
X193998428Y-63980301D01*
X193810109Y-63698461D01*
X193570424Y-63458776D01*
X193288584Y-63270457D01*
X192975421Y-63140740D01*
X192642968Y-63074611D01*
X192304002Y-63074611D01*
X191971549Y-63140740D01*
X191658386Y-63270457D01*
X191376546Y-63458776D01*
X191136861Y-63698461D01*
X191010134Y-63888122D01*
X191001011Y-63842258D01*
X190885299Y-63562906D01*
X190717312Y-63311496D01*
X190503505Y-63097689D01*
X190281709Y-62949489D01*
X194318222Y-62944834D01*
X194309463Y-62955507D01*
%TA.AperFunction,Conductor*%
D21*
G36*
X194309463Y-62955507D02*
G01*
X194250498Y-63065821D01*
X194214188Y-63185519D01*
X194201928Y-63310001D01*
X194201928Y-65010001D01*
X194214188Y-65134483D01*
X194250498Y-65254181D01*
X194309463Y-65364495D01*
X194363222Y-65430001D01*
X194309463Y-65495507D01*
X194250498Y-65605821D01*
X194214188Y-65725519D01*
X194201928Y-65850001D01*
X194201928Y-67550001D01*
X194214188Y-67674483D01*
X194250498Y-67794181D01*
X194309463Y-67904495D01*
X194363222Y-67970001D01*
X194309463Y-68035507D01*
X194250498Y-68145821D01*
X194214188Y-68265519D01*
X194201928Y-68390001D01*
X194201928Y-70090001D01*
X194214188Y-70214483D01*
X194250498Y-70334181D01*
X194309463Y-70444495D01*
X194363222Y-70510001D01*
X194309463Y-70575507D01*
X194250498Y-70685821D01*
X194214188Y-70805519D01*
X194201928Y-70930001D01*
X194201928Y-72630001D01*
X194214188Y-72754483D01*
X194250498Y-72874181D01*
X194309463Y-72984495D01*
X194363222Y-73050001D01*
X194309463Y-73115507D01*
X194250498Y-73225821D01*
X194214188Y-73345519D01*
X194201928Y-73470001D01*
X194205000Y-74034251D01*
X194363750Y-74193001D01*
X195837000Y-74193001D01*
X195837000Y-74447001D01*
X194363750Y-74447001D01*
X194205000Y-74605751D01*
X194201928Y-75170001D01*
X194214188Y-75294483D01*
X194250498Y-75414181D01*
X194309463Y-75524495D01*
X194363222Y-75590001D01*
X194309463Y-75655507D01*
X194250498Y-75765821D01*
X194214188Y-75885519D01*
X194201928Y-76010001D01*
X194201928Y-77710001D01*
X194214188Y-77834483D01*
X194250498Y-77954181D01*
X194309463Y-78064495D01*
X194363222Y-78130001D01*
X194309463Y-78195507D01*
X194250498Y-78305821D01*
X194214188Y-78425519D01*
X194201928Y-78550001D01*
X194201928Y-80250001D01*
X194214188Y-80374483D01*
X194250498Y-80494181D01*
X194309463Y-80604495D01*
X194363222Y-80670001D01*
X194309463Y-80735507D01*
X194250498Y-80845821D01*
X194214188Y-80965519D01*
X194201928Y-81090001D01*
X194201928Y-82790001D01*
X194214188Y-82914483D01*
X194250498Y-83034181D01*
X194309463Y-83144495D01*
X194363222Y-83210001D01*
X194309463Y-83275507D01*
X194250498Y-83385821D01*
X194214188Y-83505519D01*
X194201928Y-83630001D01*
X194201928Y-85330001D01*
X194214188Y-85454483D01*
X194250498Y-85574181D01*
X194309463Y-85684495D01*
X194363222Y-85750001D01*
X194309463Y-85815507D01*
X194250498Y-85925821D01*
X194214188Y-86045519D01*
X194201928Y-86170001D01*
X194201928Y-87158326D01*
X193416994Y-86373392D01*
X193393191Y-86344389D01*
X193277466Y-86249416D01*
X193145437Y-86178844D01*
X193002176Y-86135387D01*
X192890523Y-86124390D01*
X192890512Y-86124390D01*
X192853190Y-86120714D01*
X192815868Y-86124390D01*
X184729732Y-86124390D01*
X184692409Y-86120714D01*
X184655086Y-86124390D01*
X184655077Y-86124390D01*
X184543424Y-86135387D01*
X184429315Y-86170001D01*
X184400163Y-86178844D01*
X184268133Y-86249416D01*
X184186282Y-86316590D01*
X184152409Y-86344389D01*
X184128611Y-86373387D01*
X183930601Y-86571397D01*
X183929901Y-86571328D01*
X183404899Y-86571328D01*
X183231645Y-86588392D01*
X183065049Y-86638928D01*
X182911513Y-86720995D01*
X182776938Y-86831438D01*
X182754900Y-86858291D01*
X182732862Y-86831438D01*
X182598287Y-86720995D01*
X182444751Y-86638928D01*
X182278155Y-86588392D01*
X182104901Y-86571328D01*
X181579899Y-86571328D01*
X181406645Y-86588392D01*
X181240049Y-86638928D01*
X181086513Y-86720995D01*
X180951938Y-86831438D01*
X180841495Y-86966013D01*
X180759428Y-87119549D01*
X180708892Y-87286145D01*
X180691828Y-87459399D01*
X180691828Y-88359401D01*
X180708892Y-88532655D01*
X180759428Y-88699251D01*
X180841495Y-88852787D01*
X180951938Y-88987362D01*
X181082401Y-89094430D01*
X181082401Y-89476068D01*
X181078724Y-89513400D01*
X181082401Y-89550733D01*
X181093398Y-89662386D01*
X181104141Y-89697801D01*
X181136854Y-89805646D01*
X181207426Y-89937676D01*
X181278003Y-90023673D01*
X181302400Y-90053401D01*
X181331398Y-90077199D01*
X181633712Y-90379514D01*
X181597400Y-90562065D01*
X181597400Y-90844735D01*
X181652547Y-91121974D01*
X181760720Y-91383127D01*
X181917763Y-91618159D01*
X182117641Y-91818037D01*
X182352673Y-91975080D01*
X182613826Y-92083253D01*
X182891065Y-92138400D01*
X183173735Y-92138400D01*
X183450974Y-92083253D01*
X183712127Y-91975080D01*
X183947159Y-91818037D01*
X184147037Y-91618159D01*
X184304080Y-91383127D01*
X184412253Y-91121974D01*
X184421444Y-91075767D01*
X186473200Y-91075767D01*
X186473200Y-91397833D01*
X186536032Y-91713712D01*
X186659282Y-92011263D01*
X186838213Y-92279052D01*
X187065948Y-92506787D01*
X187333737Y-92685718D01*
X187631288Y-92808968D01*
X187947167Y-92871800D01*
X188269233Y-92871800D01*
X188585112Y-92808968D01*
X188882663Y-92685718D01*
X189150452Y-92506787D01*
X189378187Y-92279052D01*
X189557118Y-92011263D01*
X189680368Y-91713712D01*
X189743200Y-91397833D01*
X189743200Y-91075767D01*
X189680368Y-90759888D01*
X189557118Y-90462337D01*
X189378187Y-90194548D01*
X189150452Y-89966813D01*
X188882663Y-89787882D01*
X188585112Y-89664632D01*
X188269233Y-89601800D01*
X187947167Y-89601800D01*
X187631288Y-89664632D01*
X187333737Y-89787882D01*
X187065948Y-89966813D01*
X186838213Y-90194548D01*
X186659282Y-90462337D01*
X186536032Y-90759888D01*
X186473200Y-91075767D01*
X184421444Y-91075767D01*
X184467400Y-90844735D01*
X184467400Y-90562065D01*
X184412253Y-90284826D01*
X184304080Y-90023673D01*
X184147037Y-89788641D01*
X183947159Y-89588763D01*
X183712127Y-89431720D01*
X183450974Y-89323547D01*
X183173735Y-89268400D01*
X182891065Y-89268400D01*
X182708514Y-89304712D01*
X182602400Y-89198599D01*
X182602400Y-89094430D01*
X182732862Y-88987362D01*
X182754900Y-88960509D01*
X182776938Y-88987362D01*
X182911513Y-89097805D01*
X183065049Y-89179872D01*
X183231645Y-89230408D01*
X183404899Y-89247472D01*
X183929901Y-89247472D01*
X184103155Y-89230408D01*
X184269751Y-89179872D01*
X184423287Y-89097805D01*
X184557862Y-88987362D01*
X184668305Y-88852787D01*
X184750372Y-88699251D01*
X184777627Y-88609400D01*
X188384228Y-88609400D01*
X188396488Y-88733882D01*
X188432798Y-88853580D01*
X188491763Y-88963894D01*
X188571115Y-89060585D01*
X188667806Y-89139937D01*
X188778120Y-89198902D01*
X188897818Y-89235212D01*
X189022300Y-89247472D01*
X189249050Y-89244400D01*
X189407800Y-89085650D01*
X189407800Y-88036400D01*
X188546050Y-88036400D01*
X188387300Y-88195150D01*
X188384228Y-88609400D01*
X184777627Y-88609400D01*
X184800908Y-88532655D01*
X184817972Y-88359401D01*
X184817972Y-87833630D01*
X185007212Y-87644390D01*
X188408040Y-87644390D01*
X188546050Y-87782400D01*
X189407800Y-87782400D01*
X189407800Y-87762400D01*
X189661800Y-87762400D01*
X189661800Y-87782400D01*
X189681800Y-87782400D01*
X189681800Y-88036400D01*
X189661800Y-88036400D01*
X189661800Y-89085650D01*
X189820550Y-89244400D01*
X190047300Y-89247472D01*
X190171782Y-89235212D01*
X190291480Y-89198902D01*
X190401794Y-89139937D01*
X190498485Y-89060585D01*
X190522663Y-89031124D01*
X190603913Y-89097805D01*
X190757449Y-89179872D01*
X190924045Y-89230408D01*
X191097299Y-89247472D01*
X191622301Y-89247472D01*
X191623001Y-89247403D01*
X191848201Y-89472603D01*
X191848201Y-89781891D01*
X191833737Y-89787882D01*
X191565948Y-89966813D01*
X191338213Y-90194548D01*
X191159282Y-90462337D01*
X191036032Y-90759888D01*
X190973200Y-91075767D01*
X190973200Y-91397833D01*
X191036032Y-91713712D01*
X191159282Y-92011263D01*
X191338213Y-92279052D01*
X191565948Y-92506787D01*
X191833737Y-92685718D01*
X191848200Y-92691709D01*
X191848201Y-96281891D01*
X191833737Y-96287882D01*
X191565948Y-96466813D01*
X191338213Y-96694548D01*
X191159282Y-96962337D01*
X191036032Y-97259888D01*
X190973200Y-97575767D01*
X190973200Y-97897833D01*
X191036032Y-98213712D01*
X191159282Y-98511263D01*
X191338213Y-98779052D01*
X191565948Y-99006787D01*
X191833737Y-99185718D01*
X191848201Y-99191709D01*
X191848200Y-109300879D01*
X191844524Y-109338201D01*
X191848200Y-109375523D01*
X191848200Y-109375533D01*
X191859197Y-109487186D01*
X191885410Y-109573600D01*
X191902654Y-109630447D01*
X191973226Y-109762477D01*
X192013071Y-109811027D01*
X192068199Y-109878202D01*
X192097203Y-109902005D01*
X192506094Y-110310896D01*
X192354802Y-110310896D01*
X192022349Y-110377025D01*
X191709186Y-110506742D01*
X191427346Y-110695061D01*
X191187661Y-110934746D01*
X190999342Y-111216586D01*
X190869625Y-111529749D01*
X190828072Y-111738650D01*
X190828072Y-111340001D01*
X190815812Y-111215519D01*
X190779502Y-111095821D01*
X190720537Y-110985507D01*
X190641185Y-110888816D01*
X190544494Y-110809464D01*
X190434180Y-110750499D01*
X190314482Y-110714189D01*
X190190000Y-110701929D01*
X188490000Y-110701929D01*
X188365518Y-110714189D01*
X188245820Y-110750499D01*
X188135506Y-110809464D01*
X188070000Y-110863223D01*
X188004494Y-110809464D01*
X187894180Y-110750499D01*
X187774482Y-110714189D01*
X187650000Y-110701929D01*
X187560000Y-110701929D01*
X187560000Y-109570522D01*
X187563676Y-109533199D01*
X187560000Y-109495876D01*
X187560000Y-109495867D01*
X187549003Y-109384214D01*
X187505546Y-109240953D01*
X187434975Y-109108925D01*
X187434974Y-109108923D01*
X187363799Y-109022197D01*
X187340001Y-108993199D01*
X187311004Y-108969402D01*
X186644203Y-108302602D01*
X186620401Y-108273599D01*
X186504676Y-108178626D01*
X186372647Y-108108054D01*
X186229386Y-108064597D01*
X186117733Y-108053600D01*
X186117722Y-108053600D01*
X186080400Y-108049924D01*
X186043078Y-108053600D01*
X184757072Y-108053600D01*
X184757072Y-107813600D01*
X188480928Y-107813600D01*
X188480928Y-109813600D01*
X188493188Y-109938082D01*
X188529498Y-110057780D01*
X188588463Y-110168094D01*
X188667815Y-110264785D01*
X188764506Y-110344137D01*
X188874820Y-110403102D01*
X188994518Y-110439412D01*
X189119000Y-110451672D01*
X191119000Y-110451672D01*
X191243482Y-110439412D01*
X191363180Y-110403102D01*
X191473494Y-110344137D01*
X191570185Y-110264785D01*
X191649537Y-110168094D01*
X191708502Y-110057780D01*
X191744812Y-109938082D01*
X191757072Y-109813600D01*
X191757072Y-107813600D01*
X191744812Y-107689118D01*
X191708502Y-107569420D01*
X191649537Y-107459106D01*
X191570185Y-107362415D01*
X191473494Y-107283063D01*
X191363180Y-107224098D01*
X191243482Y-107187788D01*
X191119000Y-107175528D01*
X189119000Y-107175528D01*
X188994518Y-107187788D01*
X188874820Y-107224098D01*
X188764506Y-107283063D01*
X188667815Y-107362415D01*
X188588463Y-107459106D01*
X188529498Y-107569420D01*
X188493188Y-107689118D01*
X188480928Y-107813600D01*
X184757072Y-107813600D01*
X184744812Y-107689118D01*
X184708502Y-107569420D01*
X184649537Y-107459106D01*
X184570185Y-107362415D01*
X184473494Y-107283063D01*
X184363180Y-107224098D01*
X184243482Y-107187788D01*
X184119000Y-107175528D01*
X182119000Y-107175528D01*
X181994518Y-107187788D01*
X181874820Y-107224098D01*
X181764506Y-107283063D01*
X181667815Y-107362415D01*
X181588463Y-107459106D01*
X181529498Y-107569420D01*
X181493188Y-107689118D01*
X181480928Y-107813600D01*
X181480928Y-109813600D01*
X181493188Y-109938082D01*
X181529498Y-110057780D01*
X181588463Y-110168094D01*
X181667815Y-110264785D01*
X181764506Y-110344137D01*
X181874820Y-110403102D01*
X181994518Y-110439412D01*
X182119000Y-110451672D01*
X184119000Y-110451672D01*
X184243482Y-110439412D01*
X184363180Y-110403102D01*
X184473494Y-110344137D01*
X184570185Y-110264785D01*
X184649537Y-110168094D01*
X184708502Y-110057780D01*
X184744812Y-109938082D01*
X184757072Y-109813600D01*
X184757072Y-109573600D01*
X185765599Y-109573600D01*
X186040000Y-109848002D01*
X186040000Y-110701929D01*
X185950000Y-110701929D01*
X185825518Y-110714189D01*
X185705820Y-110750499D01*
X185595506Y-110809464D01*
X185530000Y-110863223D01*
X185464494Y-110809464D01*
X185354180Y-110750499D01*
X185234482Y-110714189D01*
X185110000Y-110701929D01*
X183410000Y-110701929D01*
X183285518Y-110714189D01*
X183165820Y-110750499D01*
X183055506Y-110809464D01*
X182958815Y-110888816D01*
X182879463Y-110985507D01*
X182820498Y-111095821D01*
X182784188Y-111215519D01*
X182771928Y-111340001D01*
X182771928Y-111542321D01*
X182764375Y-111504349D01*
X182634658Y-111191186D01*
X182446339Y-110909346D01*
X182206654Y-110669661D01*
X181924814Y-110481342D01*
X181611651Y-110351625D01*
X181279198Y-110285496D01*
X180940232Y-110285496D01*
X180607779Y-110351625D01*
X180294616Y-110481342D01*
X180012776Y-110669661D01*
X179773091Y-110909346D01*
X179584772Y-111191186D01*
X179455055Y-111504349D01*
X179398072Y-111790822D01*
X179398072Y-111570001D01*
X179385812Y-111445519D01*
X179349502Y-111325821D01*
X179290537Y-111215507D01*
X179236778Y-111150001D01*
X179290537Y-111084495D01*
X179349502Y-110974181D01*
X179385812Y-110854483D01*
X179398072Y-110730001D01*
X179398072Y-109030001D01*
X179385812Y-108905519D01*
X179349502Y-108785821D01*
X179290537Y-108675507D01*
X179236778Y-108610001D01*
X179290537Y-108544495D01*
X179349502Y-108434181D01*
X179385812Y-108314483D01*
X179398072Y-108190001D01*
X179398072Y-106490001D01*
X179385812Y-106365519D01*
X179349502Y-106245821D01*
X179290537Y-106135507D01*
X179236778Y-106070001D01*
X179290537Y-106004495D01*
X179349502Y-105894181D01*
X179385812Y-105774483D01*
X179398072Y-105650001D01*
X179398072Y-103950001D01*
X179385812Y-103825519D01*
X179349502Y-103705821D01*
X179290537Y-103595507D01*
X179236778Y-103530001D01*
X179290537Y-103464495D01*
X179349502Y-103354181D01*
X179385812Y-103234483D01*
X179398072Y-103110001D01*
X179398072Y-101410001D01*
X179385812Y-101285519D01*
X179349502Y-101165821D01*
X179290537Y-101055507D01*
X179236778Y-100990001D01*
X179290537Y-100924495D01*
X179349502Y-100814181D01*
X179349678Y-100813600D01*
X181480928Y-100813600D01*
X181480928Y-102813600D01*
X181493188Y-102938082D01*
X181529498Y-103057780D01*
X181588463Y-103168094D01*
X181667815Y-103264785D01*
X181764506Y-103344137D01*
X181874820Y-103403102D01*
X181994518Y-103439412D01*
X182119000Y-103451672D01*
X184119000Y-103451672D01*
X184243482Y-103439412D01*
X184363180Y-103403102D01*
X184473494Y-103344137D01*
X184570185Y-103264785D01*
X184649537Y-103168094D01*
X184708502Y-103057780D01*
X184744812Y-102938082D01*
X184757072Y-102813600D01*
X184757072Y-100813600D01*
X188480928Y-100813600D01*
X188480928Y-102813600D01*
X188493188Y-102938082D01*
X188529498Y-103057780D01*
X188588463Y-103168094D01*
X188667815Y-103264785D01*
X188764506Y-103344137D01*
X188874820Y-103403102D01*
X188994518Y-103439412D01*
X189119000Y-103451672D01*
X191119000Y-103451672D01*
X191243482Y-103439412D01*
X191363180Y-103403102D01*
X191473494Y-103344137D01*
X191570185Y-103264785D01*
X191649537Y-103168094D01*
X191708502Y-103057780D01*
X191744812Y-102938082D01*
X191757072Y-102813600D01*
X191757072Y-100813600D01*
X191744812Y-100689118D01*
X191708502Y-100569420D01*
X191649537Y-100459106D01*
X191570185Y-100362415D01*
X191473494Y-100283063D01*
X191363180Y-100224098D01*
X191243482Y-100187788D01*
X191119000Y-100175528D01*
X189119000Y-100175528D01*
X188994518Y-100187788D01*
X188874820Y-100224098D01*
X188764506Y-100283063D01*
X188667815Y-100362415D01*
X188588463Y-100459106D01*
X188529498Y-100569420D01*
X188493188Y-100689118D01*
X188480928Y-100813600D01*
X184757072Y-100813600D01*
X184744812Y-100689118D01*
X184708502Y-100569420D01*
X184649537Y-100459106D01*
X184570185Y-100362415D01*
X184473494Y-100283063D01*
X184363180Y-100224098D01*
X184243482Y-100187788D01*
X184119000Y-100175528D01*
X183792400Y-100175528D01*
X183792400Y-99761472D01*
X183832400Y-99761472D01*
X183956882Y-99749212D01*
X184076580Y-99712902D01*
X184186894Y-99653937D01*
X184283585Y-99574585D01*
X184362937Y-99477894D01*
X184421902Y-99367580D01*
X184458212Y-99247882D01*
X184470472Y-99123400D01*
X184470472Y-97575767D01*
X186473200Y-97575767D01*
X186473200Y-97897833D01*
X186536032Y-98213712D01*
X186659282Y-98511263D01*
X186838213Y-98779052D01*
X187065948Y-99006787D01*
X187333737Y-99185718D01*
X187631288Y-99308968D01*
X187947167Y-99371800D01*
X188269233Y-99371800D01*
X188585112Y-99308968D01*
X188882663Y-99185718D01*
X189150452Y-99006787D01*
X189378187Y-98779052D01*
X189557118Y-98511263D01*
X189680368Y-98213712D01*
X189743200Y-97897833D01*
X189743200Y-97575767D01*
X189680368Y-97259888D01*
X189557118Y-96962337D01*
X189378187Y-96694548D01*
X189150452Y-96466813D01*
X188882663Y-96287882D01*
X188585112Y-96164632D01*
X188269233Y-96101800D01*
X187947167Y-96101800D01*
X187631288Y-96164632D01*
X187333737Y-96287882D01*
X187065948Y-96466813D01*
X186838213Y-96694548D01*
X186659282Y-96962337D01*
X186536032Y-97259888D01*
X186473200Y-97575767D01*
X184470472Y-97575767D01*
X184470472Y-97523400D01*
X184458212Y-97398918D01*
X184421902Y-97279220D01*
X184362937Y-97168906D01*
X184283585Y-97072215D01*
X184186894Y-96992863D01*
X184076580Y-96933898D01*
X183956882Y-96897588D01*
X183832400Y-96885328D01*
X182232400Y-96885328D01*
X182107918Y-96897588D01*
X181988220Y-96933898D01*
X181877906Y-96992863D01*
X181781215Y-97072215D01*
X181701863Y-97168906D01*
X181642898Y-97279220D01*
X181606588Y-97398918D01*
X181594328Y-97523400D01*
X181594328Y-99123400D01*
X181606588Y-99247882D01*
X181642898Y-99367580D01*
X181701863Y-99477894D01*
X181781215Y-99574585D01*
X181877906Y-99653937D01*
X181988220Y-99712902D01*
X182107918Y-99749212D01*
X182232400Y-99761472D01*
X182272400Y-99761472D01*
X182272401Y-100175528D01*
X182119000Y-100175528D01*
X181994518Y-100187788D01*
X181874820Y-100224098D01*
X181764506Y-100283063D01*
X181667815Y-100362415D01*
X181588463Y-100459106D01*
X181529498Y-100569420D01*
X181493188Y-100689118D01*
X181480928Y-100813600D01*
X179349678Y-100813600D01*
X179385812Y-100694483D01*
X179398072Y-100570001D01*
X179398072Y-98870001D01*
X179385812Y-98745519D01*
X179349502Y-98625821D01*
X179290537Y-98515507D01*
X179236778Y-98450001D01*
X179290537Y-98384495D01*
X179349502Y-98274181D01*
X179385812Y-98154483D01*
X179398072Y-98030001D01*
X179398072Y-96330001D01*
X179385812Y-96205519D01*
X179349502Y-96085821D01*
X179290537Y-95975507D01*
X179236778Y-95910001D01*
X179290537Y-95844495D01*
X179349502Y-95734181D01*
X179385812Y-95614483D01*
X179398072Y-95490001D01*
X179398072Y-93790001D01*
X179385812Y-93665519D01*
X179349502Y-93545821D01*
X179290537Y-93435507D01*
X179236778Y-93370001D01*
X179290537Y-93304495D01*
X179349502Y-93194181D01*
X179385812Y-93074483D01*
X179398072Y-92950001D01*
X179398072Y-91250001D01*
X179385812Y-91125519D01*
X179349502Y-91005821D01*
X179290537Y-90895507D01*
X179236778Y-90830001D01*
X179290537Y-90764495D01*
X179349502Y-90654181D01*
X179385812Y-90534483D01*
X179398072Y-90410001D01*
X179398072Y-88710001D01*
X179385812Y-88585519D01*
X179349502Y-88465821D01*
X179290537Y-88355507D01*
X179236778Y-88290001D01*
X179290537Y-88224495D01*
X179349502Y-88114181D01*
X179385812Y-87994483D01*
X179398072Y-87870001D01*
X179398072Y-86170001D01*
X179385812Y-86045519D01*
X179349502Y-85925821D01*
X179290537Y-85815507D01*
X179236778Y-85750001D01*
X179290537Y-85684495D01*
X179349502Y-85574181D01*
X179385812Y-85454483D01*
X179398072Y-85330001D01*
X179398072Y-85265800D01*
X180238573Y-85265800D01*
X180247628Y-85295651D01*
X180329695Y-85449187D01*
X180440138Y-85583762D01*
X180574713Y-85694205D01*
X180728249Y-85776272D01*
X180894845Y-85826808D01*
X181068099Y-85843872D01*
X181593101Y-85843872D01*
X181766355Y-85826808D01*
X181932951Y-85776272D01*
X182086487Y-85694205D01*
X182221062Y-85583762D01*
X182243100Y-85556909D01*
X182265138Y-85583762D01*
X182399713Y-85694205D01*
X182553249Y-85776272D01*
X182719845Y-85826808D01*
X182893099Y-85843872D01*
X183418101Y-85843872D01*
X183591355Y-85826808D01*
X183757951Y-85776272D01*
X183911487Y-85694205D01*
X184046062Y-85583762D01*
X184156505Y-85449187D01*
X184238572Y-85295651D01*
X184247627Y-85265800D01*
X185014027Y-85265800D01*
X185024253Y-85299509D01*
X185105742Y-85451964D01*
X185215408Y-85585592D01*
X185349036Y-85695258D01*
X185501491Y-85776747D01*
X185666915Y-85826928D01*
X185838950Y-85843872D01*
X186326450Y-85843872D01*
X186498485Y-85826928D01*
X186663909Y-85776747D01*
X186816364Y-85695258D01*
X186949992Y-85585592D01*
X187020200Y-85500044D01*
X187090408Y-85585592D01*
X187224036Y-85695258D01*
X187376491Y-85776747D01*
X187541915Y-85826928D01*
X187713950Y-85843872D01*
X188201450Y-85843872D01*
X188373485Y-85826928D01*
X188538909Y-85776747D01*
X188691364Y-85695258D01*
X188824992Y-85585592D01*
X188934658Y-85451964D01*
X188946136Y-85430490D01*
X189055102Y-85475626D01*
X189255061Y-85515400D01*
X189458939Y-85515400D01*
X189658898Y-85475626D01*
X189847256Y-85397605D01*
X190016774Y-85284337D01*
X190160937Y-85140174D01*
X190274205Y-84970656D01*
X190352226Y-84782298D01*
X190369510Y-84695400D01*
X191094728Y-84695400D01*
X191106988Y-84819882D01*
X191143298Y-84939580D01*
X191202263Y-85049894D01*
X191281615Y-85146585D01*
X191378306Y-85225937D01*
X191488620Y-85284902D01*
X191608318Y-85321212D01*
X191732800Y-85333472D01*
X192297050Y-85330400D01*
X192455800Y-85171650D01*
X192455800Y-83972400D01*
X192709800Y-83972400D01*
X192709800Y-85171650D01*
X192868550Y-85330400D01*
X193432800Y-85333472D01*
X193557282Y-85321212D01*
X193676980Y-85284902D01*
X193787294Y-85225937D01*
X193883985Y-85146585D01*
X193963337Y-85049894D01*
X194022302Y-84939580D01*
X194058612Y-84819882D01*
X194070872Y-84695400D01*
X194067800Y-84131150D01*
X193909050Y-83972400D01*
X192709800Y-83972400D01*
X192455800Y-83972400D01*
X191256550Y-83972400D01*
X191097800Y-84131150D01*
X191094728Y-84695400D01*
X190369510Y-84695400D01*
X190392000Y-84582339D01*
X190392000Y-84378461D01*
X190352226Y-84178502D01*
X190274205Y-83990144D01*
X190160937Y-83820626D01*
X190016774Y-83676463D01*
X189847256Y-83563195D01*
X189658898Y-83485174D01*
X189458939Y-83445400D01*
X189255061Y-83445400D01*
X189055102Y-83485174D01*
X188919608Y-83541298D01*
X188824992Y-83426008D01*
X188691364Y-83316342D01*
X188539531Y-83235185D01*
X188689064Y-83155258D01*
X188822692Y-83045592D01*
X188932358Y-82911964D01*
X188933137Y-82910506D01*
X189055102Y-82961026D01*
X189255061Y-83000800D01*
X189458939Y-83000800D01*
X189658898Y-82961026D01*
X189847256Y-82883005D01*
X190016774Y-82769737D01*
X190160937Y-82625574D01*
X190274205Y-82456056D01*
X190352226Y-82267698D01*
X190392000Y-82067739D01*
X190392000Y-81863861D01*
X190352226Y-81663902D01*
X190274205Y-81475544D01*
X190160937Y-81306026D01*
X190016774Y-81161863D01*
X189847256Y-81048595D01*
X189658898Y-80970574D01*
X189458939Y-80930800D01*
X189255061Y-80930800D01*
X189055102Y-80970574D01*
X188933137Y-81021094D01*
X188932358Y-81019636D01*
X188822692Y-80886008D01*
X188689064Y-80776342D01*
X188540535Y-80696951D01*
X188541209Y-80696747D01*
X188693664Y-80615258D01*
X188827292Y-80505592D01*
X188870879Y-80452481D01*
X188978902Y-80497226D01*
X189178861Y-80537000D01*
X189382739Y-80537000D01*
X189582698Y-80497226D01*
X189771056Y-80419205D01*
X189940574Y-80305937D01*
X190084737Y-80161774D01*
X190198005Y-79992256D01*
X190276026Y-79803898D01*
X190315800Y-79603939D01*
X190315800Y-79400061D01*
X190276026Y-79200102D01*
X190198005Y-79011744D01*
X190084737Y-78842226D01*
X189940574Y-78698063D01*
X189771056Y-78584795D01*
X189582698Y-78506774D01*
X189382739Y-78467000D01*
X189178861Y-78467000D01*
X188978902Y-78506774D01*
X188956437Y-78516079D01*
X188936958Y-78479636D01*
X188827292Y-78346008D01*
X188693664Y-78236342D01*
X188541209Y-78154853D01*
X188540535Y-78154649D01*
X188689064Y-78075258D01*
X188822692Y-77965592D01*
X188932358Y-77831964D01*
X188933137Y-77830506D01*
X189055102Y-77881026D01*
X189255061Y-77920800D01*
X189458939Y-77920800D01*
X189658898Y-77881026D01*
X189847256Y-77803005D01*
X190016774Y-77689737D01*
X190160937Y-77545574D01*
X190274205Y-77376056D01*
X190352226Y-77187698D01*
X190392000Y-76987739D01*
X190392000Y-76783861D01*
X190352226Y-76583902D01*
X190274205Y-76395544D01*
X190160937Y-76226026D01*
X190016774Y-76081863D01*
X189847256Y-75968595D01*
X189658898Y-75890574D01*
X189458939Y-75850800D01*
X189255061Y-75850800D01*
X189055102Y-75890574D01*
X188933137Y-75941094D01*
X188932358Y-75939636D01*
X188822692Y-75806008D01*
X188689064Y-75696342D01*
X188536609Y-75614853D01*
X188522666Y-75610623D01*
X188663664Y-75535258D01*
X188797292Y-75425592D01*
X188879604Y-75325295D01*
X188978902Y-75366426D01*
X189178861Y-75406200D01*
X189382739Y-75406200D01*
X189582698Y-75366426D01*
X189771056Y-75288405D01*
X189940574Y-75175137D01*
X190084737Y-75030974D01*
X190176396Y-74893797D01*
X191141590Y-75858992D01*
X191097800Y-76079140D01*
X191097800Y-76371660D01*
X191154868Y-76658558D01*
X191266810Y-76928811D01*
X191429325Y-77172032D01*
X191636168Y-77378875D01*
X191810560Y-77495400D01*
X191636168Y-77611925D01*
X191429325Y-77818768D01*
X191266810Y-78061989D01*
X191154868Y-78332242D01*
X191097800Y-78619140D01*
X191097800Y-78911660D01*
X191154868Y-79198558D01*
X191266810Y-79468811D01*
X191429325Y-79712032D01*
X191636168Y-79918875D01*
X191810560Y-80035400D01*
X191636168Y-80151925D01*
X191429325Y-80358768D01*
X191266810Y-80601989D01*
X191154868Y-80872242D01*
X191097800Y-81159140D01*
X191097800Y-81451660D01*
X191154868Y-81738558D01*
X191266810Y-82008811D01*
X191429325Y-82252032D01*
X191561180Y-82383887D01*
X191488620Y-82405898D01*
X191378306Y-82464863D01*
X191281615Y-82544215D01*
X191202263Y-82640906D01*
X191143298Y-82751220D01*
X191106988Y-82870918D01*
X191094728Y-82995400D01*
X191097800Y-83559650D01*
X191256550Y-83718400D01*
X192455800Y-83718400D01*
X192455800Y-83698400D01*
X192709800Y-83698400D01*
X192709800Y-83718400D01*
X193909050Y-83718400D01*
X194067800Y-83559650D01*
X194070872Y-82995400D01*
X194058612Y-82870918D01*
X194022302Y-82751220D01*
X193963337Y-82640906D01*
X193883985Y-82544215D01*
X193787294Y-82464863D01*
X193676980Y-82405898D01*
X193604420Y-82383887D01*
X193736275Y-82252032D01*
X193898790Y-82008811D01*
X194010732Y-81738558D01*
X194067800Y-81451660D01*
X194067800Y-81159140D01*
X194010732Y-80872242D01*
X193898790Y-80601989D01*
X193736275Y-80358768D01*
X193529432Y-80151925D01*
X193355040Y-80035400D01*
X193529432Y-79918875D01*
X193736275Y-79712032D01*
X193898790Y-79468811D01*
X194010732Y-79198558D01*
X194067800Y-78911660D01*
X194067800Y-78619140D01*
X194010732Y-78332242D01*
X193898790Y-78061989D01*
X193736275Y-77818768D01*
X193529432Y-77611925D01*
X193355040Y-77495400D01*
X193529432Y-77378875D01*
X193736275Y-77172032D01*
X193898790Y-76928811D01*
X194010732Y-76658558D01*
X194067800Y-76371660D01*
X194067800Y-76079140D01*
X194010732Y-75792242D01*
X193898790Y-75521989D01*
X193736275Y-75278768D01*
X193529432Y-75071925D01*
X193355040Y-74955400D01*
X193529432Y-74838875D01*
X193736275Y-74632032D01*
X193898790Y-74388811D01*
X194010732Y-74118558D01*
X194067800Y-73831660D01*
X194067800Y-73539140D01*
X194010732Y-73252242D01*
X193898790Y-72981989D01*
X193736275Y-72738768D01*
X193529432Y-72531925D01*
X193355040Y-72415400D01*
X193529432Y-72298875D01*
X193736275Y-72092032D01*
X193898790Y-71848811D01*
X194010732Y-71578558D01*
X194067800Y-71291660D01*
X194067800Y-70999140D01*
X194010732Y-70712242D01*
X193898790Y-70441989D01*
X193736275Y-70198768D01*
X193529432Y-69991925D01*
X193355040Y-69875400D01*
X193529432Y-69758875D01*
X193736275Y-69552032D01*
X193898790Y-69308811D01*
X194010732Y-69038558D01*
X194067800Y-68751660D01*
X194067800Y-68459140D01*
X194010732Y-68172242D01*
X193898790Y-67901989D01*
X193736275Y-67658768D01*
X193529432Y-67451925D01*
X193286211Y-67289410D01*
X193015958Y-67177468D01*
X192729060Y-67120400D01*
X192436540Y-67120400D01*
X192149642Y-67177468D01*
X191879389Y-67289410D01*
X191636168Y-67451925D01*
X191429325Y-67658768D01*
X191266810Y-67901989D01*
X191154868Y-68172242D01*
X191097800Y-68459140D01*
X191097800Y-68751660D01*
X191154868Y-69038558D01*
X191266810Y-69308811D01*
X191429325Y-69552032D01*
X191636168Y-69758875D01*
X191810560Y-69875400D01*
X191730138Y-69929136D01*
X190928005Y-69127004D01*
X190904202Y-69098000D01*
X190788477Y-69003027D01*
X190656448Y-68932455D01*
X190513187Y-68888998D01*
X190401534Y-68878001D01*
X190401523Y-68878001D01*
X190364201Y-68874325D01*
X190326879Y-68878001D01*
X183702802Y-68878001D01*
X182008391Y-67183590D01*
X182990000Y-67183590D01*
X182990000Y-67456412D01*
X183043225Y-67723990D01*
X183147629Y-67976044D01*
X183299201Y-68202887D01*
X183492114Y-68395800D01*
X183718957Y-68547372D01*
X183971011Y-68651776D01*
X184238589Y-68705001D01*
X184511411Y-68705001D01*
X184778989Y-68651776D01*
X185031043Y-68547372D01*
X185257886Y-68395800D01*
X185450799Y-68202887D01*
X185602371Y-67976044D01*
X185706775Y-67723990D01*
X185760000Y-67456412D01*
X185760000Y-67183590D01*
X187840000Y-67183590D01*
X187840000Y-67456412D01*
X187893225Y-67723990D01*
X187997629Y-67976044D01*
X188149201Y-68202887D01*
X188342114Y-68395800D01*
X188568957Y-68547372D01*
X188821011Y-68651776D01*
X189088589Y-68705001D01*
X189361411Y-68705001D01*
X189628989Y-68651776D01*
X189881043Y-68547372D01*
X190107886Y-68395800D01*
X190300799Y-68202887D01*
X190452371Y-67976044D01*
X190556775Y-67723990D01*
X190610000Y-67456412D01*
X190610000Y-67183590D01*
X190556775Y-66916012D01*
X190452371Y-66663958D01*
X190300799Y-66437115D01*
X190107886Y-66244202D01*
X189881043Y-66092630D01*
X189628989Y-65988226D01*
X189361411Y-65935001D01*
X189088589Y-65935001D01*
X188821011Y-65988226D01*
X188568957Y-66092630D01*
X188342114Y-66244202D01*
X188149201Y-66437115D01*
X187997629Y-66663958D01*
X187893225Y-66916012D01*
X187840000Y-67183590D01*
X185760000Y-67183590D01*
X185706775Y-66916012D01*
X185602371Y-66663958D01*
X185450799Y-66437115D01*
X185257886Y-66244202D01*
X185031043Y-66092630D01*
X184778989Y-65988226D01*
X184511411Y-65935001D01*
X184238589Y-65935001D01*
X183971011Y-65988226D01*
X183718957Y-66092630D01*
X183492114Y-66244202D01*
X183299201Y-66437115D01*
X183147629Y-66663958D01*
X183043225Y-66916012D01*
X182990000Y-67183590D01*
X182008391Y-67183590D01*
X181340990Y-66516189D01*
X181365368Y-66516189D01*
X181697821Y-66450060D01*
X182010984Y-66320343D01*
X182292824Y-66132024D01*
X182532509Y-65892339D01*
X182720828Y-65610499D01*
X182850545Y-65297336D01*
X182862338Y-65238050D01*
X182882688Y-65268506D01*
X183096495Y-65482313D01*
X183347905Y-65650300D01*
X183627257Y-65766012D01*
X183923816Y-65825001D01*
X184226184Y-65825001D01*
X184522743Y-65766012D01*
X184802095Y-65650300D01*
X185053505Y-65482313D01*
X185267312Y-65268506D01*
X185435299Y-65017096D01*
X185551011Y-64737744D01*
X185610000Y-64441185D01*
X185610000Y-64138817D01*
X185551011Y-63842258D01*
X185435299Y-63562906D01*
X185267312Y-63311496D01*
X185053505Y-63097689D01*
X184841100Y-62955764D01*
X188765675Y-62951238D01*
X188546495Y-63097689D01*
X188332688Y-63311496D01*
X188164701Y-63562906D01*
X188048989Y-63842258D01*
X187990000Y-64138817D01*
X187990000Y-64441185D01*
X188048989Y-64737744D01*
X188164701Y-65017096D01*
X188332688Y-65268506D01*
X188546495Y-65482313D01*
X188797905Y-65650300D01*
X189077257Y-65766012D01*
X189373816Y-65825001D01*
X189676184Y-65825001D01*
X189972743Y-65766012D01*
X190252095Y-65650300D01*
X190503505Y-65482313D01*
X190717312Y-65268506D01*
X190791119Y-65158047D01*
X190818825Y-65297336D01*
X190948542Y-65610499D01*
X191136861Y-65892339D01*
X191376546Y-66132024D01*
X191658386Y-66320343D01*
X191971549Y-66450060D01*
X192304002Y-66516189D01*
X192642968Y-66516189D01*
X192975421Y-66450060D01*
X193288584Y-66320343D01*
X193570424Y-66132024D01*
X193810109Y-65892339D01*
X193998428Y-65610499D01*
X194128145Y-65297336D01*
X194194274Y-64964883D01*
X194194274Y-64625917D01*
X194128145Y-64293464D01*
X193998428Y-63980301D01*
X193810109Y-63698461D01*
X193570424Y-63458776D01*
X193288584Y-63270457D01*
X192975421Y-63140740D01*
X192642968Y-63074611D01*
X192304002Y-63074611D01*
X191971549Y-63140740D01*
X191658386Y-63270457D01*
X191376546Y-63458776D01*
X191136861Y-63698461D01*
X191010134Y-63888122D01*
X191001011Y-63842258D01*
X190885299Y-63562906D01*
X190717312Y-63311496D01*
X190503505Y-63097689D01*
X190281709Y-62949489D01*
X194318222Y-62944834D01*
X194309463Y-62955507D01*
G37*
%TD.AperFunction*%
%TD*%
M02*
