M48
; DRILL file {KiCad (5.1.9)-1} date 04/21/21 20:59:42
; FORMAT={-:-/ absolute / metric / decimal}
; #@! TF.CreationDate,2021-04-21T20:59:42+02:00
; #@! TF.GenerationSoftware,Kicad,Pcbnew,(5.1.9)-1
FMAT,2
METRIC
T1C0.400
T2C0.800
T3C1.000
T4C1.020
T5C1.100
T6C1.500
T7C1.800
%
G90
G05
T1
X189.281Y-74.371
X189.281Y-79.502
X189.357Y-76.886
X189.357Y-81.966
X189.357Y-84.48
T2
X183.032Y-90.703
X183.032Y-98.323
T3
X192.583Y-68.605
X192.583Y-71.145
X192.583Y-73.685
X192.583Y-76.225
X192.583Y-78.765
X192.583Y-81.305
X192.583Y-83.845
T4
X177.91Y-64.16
X177.91Y-66.7
X177.91Y-69.24
X177.91Y-71.78
X177.91Y-74.32
X177.91Y-76.86
X177.91Y-79.4
X177.91Y-81.94
X177.91Y-84.48
X177.91Y-87.02
X177.91Y-89.56
X177.91Y-92.1
X177.91Y-94.64
X177.91Y-97.18
X177.91Y-99.72
X177.91Y-102.26
X177.91Y-104.8
X177.91Y-107.34
X177.91Y-109.88
X177.91Y-112.42
X184.26Y-112.19
X186.8Y-112.19
X189.34Y-112.19
X195.69Y-64.16
X195.69Y-66.7
X195.69Y-69.24
X195.69Y-71.78
X195.69Y-74.32
X195.69Y-76.86
X195.69Y-79.4
X195.69Y-81.94
X195.69Y-84.48
X195.69Y-87.02
X195.69Y-89.56
X195.69Y-92.1
X195.69Y-94.64
X195.69Y-97.18
X195.69Y-99.72
X195.69Y-102.26
X195.69Y-104.8
X195.69Y-107.34
X195.69Y-109.88
X195.69Y-112.42
T5
X188.108Y-91.237
X188.108Y-97.737
X192.608Y-91.237
X192.608Y-97.737
T6
X184.375Y-67.32
X189.225Y-67.32
T7
X184.075Y-64.29
X189.525Y-64.29
T0
M30
